<svg width="146" height="103" viewBox="0 0 146 103" fill="none" xmlns="http://www.w3.org/2000/svg">
<path d="M21.1261 85.5831C20.3396 85.5831 19.3938 85.4875 18.2884 85.2962V75.9861H12.645V85.2962C11.5184 85.4875 10.5832 85.5831 9.83923 85.5831C9.05276 85.5831 8.10687 85.4875 7.00156 85.2962V62.5311C7.57547 62.4461 8.09624 62.3823 8.56387 62.3398C9.0315 62.2973 9.44599 62.276 9.80734 62.276C10.1899 62.276 10.6151 62.2973 11.0827 62.3398C11.5716 62.3823 12.0924 62.4461 12.645 62.5311V70.9803H18.2884V62.5311C18.8624 62.4461 19.3725 62.3823 19.8189 62.3398C20.2865 62.2973 20.7116 62.276 21.0942 62.276C21.4768 62.276 21.902 62.2973 22.3696 62.3398C22.8585 62.3823 23.3792 62.4461 23.9319 62.5311V85.2962C22.8053 85.4875 21.8701 85.5831 21.1261 85.5831ZM27.1639 74.0093C27.1639 72.3088 27.3552 70.7359 27.7378 69.2905C28.1416 67.8238 28.7474 66.5591 29.5552 65.4963C30.3841 64.4335 31.4257 63.6045 32.6798 63.0094C33.9551 62.393 35.4643 62.0847 37.2073 62.0847C38.9503 62.0847 40.4488 62.393 41.7029 63.0094C42.957 63.6045 43.9879 64.4335 44.7956 65.4963C45.6246 66.5591 46.2304 67.8238 46.613 69.2905C47.0169 70.7359 47.2188 72.3088 47.2188 74.0093C47.2188 75.7098 47.0169 77.2827 46.613 78.7281C46.2304 80.1523 45.6246 81.3957 44.7956 82.4585C43.9879 83.5001 42.957 84.3184 41.7029 84.9136C40.4488 85.4875 38.9503 85.7745 37.2073 85.7745C35.4643 85.7745 33.9551 85.4875 32.6798 84.9136C31.4257 84.3184 30.3841 83.5001 29.5552 82.4585C28.7474 81.3957 28.1416 80.1523 27.7378 78.7281C27.3552 77.2827 27.1639 75.7098 27.1639 74.0093ZM41.2884 74.0093C41.2884 69.3755 39.9387 67.0586 37.2392 67.0586C34.4759 67.0586 33.0943 69.3755 33.0943 74.0093C33.0943 76.3262 33.4237 78.0586 34.0827 79.2064C34.7629 80.3329 35.8044 80.8962 37.2073 80.8962C39.928 80.8962 41.2884 78.6006 41.2884 74.0093ZM50.4371 62.5311C51.4786 62.4248 52.4351 62.3292 53.3066 62.2442C54.1994 62.1379 55.1346 62.0847 56.1124 62.0847C57.2815 62.0847 58.4506 62.2017 59.6196 62.4355C60.7887 62.648 61.8303 63.0306 62.7443 63.5833C63.6583 64.1359 64.4022 64.8905 64.9761 65.847C65.55 66.8036 65.837 68.0151 65.837 69.4818C65.837 70.2683 65.7413 70.9803 65.55 71.618C65.38 72.2344 65.1462 72.7871 64.8486 73.276C64.5723 73.7649 64.2534 74.19 63.8921 74.5513C63.552 74.9127 63.2119 75.2209 62.8718 75.476L67.8457 85.2962C67.3355 85.3812 66.7723 85.445 66.1558 85.4875C65.5607 85.53 65.0186 85.5513 64.5298 85.5513C64.1046 85.5513 63.6051 85.53 63.0312 85.4875C62.4786 85.445 61.9897 85.3812 61.5646 85.2962L57.0371 74.8702L57.324 74.7108C57.5791 74.5832 57.8554 74.3707 58.153 74.0731C58.4718 73.7755 58.7588 73.4248 59.0139 73.0209C59.2902 72.5958 59.5134 72.1282 59.6834 71.618C59.8747 71.1079 59.9704 70.5765 59.9704 70.0238C59.9704 68.961 59.6728 68.1852 59.0776 67.6963C58.4825 67.2074 57.7491 66.963 56.8776 66.963C56.6651 66.963 56.4844 66.9736 56.3356 66.9949C56.1868 67.0161 56.0912 67.0374 56.0487 67.0586V85.2962C54.9221 85.4875 53.9975 85.5831 53.2748 85.5831C52.4883 85.5831 51.5424 85.4875 50.4371 85.2962V62.5311ZM72.9219 85.5831C72.1355 85.5831 71.1896 85.4875 70.0843 85.2962V62.5311C70.6582 62.4461 71.179 62.3823 71.6466 62.3398C72.1142 62.2973 72.5287 62.276 72.8901 62.276C73.2727 62.276 73.6978 62.2973 74.1654 62.3398C74.6543 62.3823 75.1751 62.4461 75.7277 62.5311V85.2962C74.6012 85.4875 73.6659 85.5831 72.9219 85.5831ZM94.5033 82.873C94.5033 83.6595 94.4077 84.4991 94.2164 85.3918H78.8484L78.2744 84.531L87.0744 67.4412H79.2628C79.1566 66.9736 79.0822 66.5379 79.0397 66.134C79.0184 65.7301 79.0078 65.3475 79.0078 64.9862C79.0078 64.6248 79.0184 64.2316 79.0397 63.8065C79.0822 63.3814 79.1566 62.935 79.2628 62.4674H94.7903L95.2685 63.392L86.5324 80.4498H94.2164C94.4077 81.3426 94.5033 82.1503 94.5033 82.873ZM95.4464 74.0093C95.4464 72.3088 95.6377 70.7359 96.0203 69.2905C96.4242 67.8238 97.03 66.5591 97.8377 65.4963C98.6667 64.4335 99.7082 63.6045 100.962 63.0094C102.238 62.393 103.747 62.0847 105.49 62.0847C107.233 62.0847 108.731 62.393 109.985 63.0094C111.24 63.6045 112.27 64.4335 113.078 65.4963C113.907 66.5591 114.513 67.8238 114.896 69.2905C115.299 70.7359 115.501 72.3088 115.501 74.0093C115.501 75.7098 115.299 77.2827 114.896 78.7281C114.513 80.1523 113.907 81.3957 113.078 82.4585C112.27 83.5001 111.24 84.3184 109.985 84.9136C108.731 85.4875 107.233 85.7745 105.49 85.7745C103.747 85.7745 102.238 85.4875 100.962 84.9136C99.7082 84.3184 98.6667 83.5001 97.8377 82.4585C97.03 81.3957 96.4242 80.1523 96.0203 78.7281C95.6377 77.2827 95.4464 75.7098 95.4464 74.0093ZM109.571 74.0093C109.571 69.3755 108.221 67.0586 105.522 67.0586C102.758 67.0586 101.377 69.3755 101.377 74.0093C101.377 76.3262 101.706 78.0586 102.365 79.2064C103.045 80.3329 104.087 80.8962 105.49 80.8962C108.211 80.8962 109.571 78.6006 109.571 74.0093ZM118.72 62.5311C119.187 62.4461 119.612 62.3823 119.995 62.3398C120.378 62.2973 120.75 62.276 121.111 62.276C121.494 62.276 121.887 62.3079 122.291 62.3717C122.716 62.4142 123.077 62.4674 123.375 62.5311L130.772 75.0296V62.5311C131.324 62.4461 131.824 62.3823 132.27 62.3398C132.717 62.2973 133.12 62.276 133.482 62.276C133.843 62.276 134.226 62.2973 134.63 62.3398C135.034 62.3823 135.459 62.4461 135.905 62.5311L135.873 85.2962C135.661 85.36 135.352 85.4237 134.948 85.4875C134.545 85.5513 134.109 85.5831 133.641 85.5831C133.11 85.5831 132.632 85.5406 132.206 85.4556C131.781 85.3918 131.473 85.3387 131.282 85.2962L123.853 72.8615V85.2962C122.918 85.4875 122.067 85.5831 121.302 85.5831C120.537 85.5831 119.676 85.4875 118.72 85.2962V62.5311Z" fill="black"/>
<path d="M33.3109 92.6996H31.1639C31.0868 92.331 31.0482 91.9925 31.0482 91.6839C31.0482 91.4011 31.0868 91.0711 31.1639 90.694H37.7335C37.7678 90.8826 37.7935 91.0583 37.8107 91.2211C37.8278 91.384 37.8364 91.5382 37.8364 91.6839C37.8364 91.9668 37.8021 92.3053 37.7335 92.6996H35.5865V99.8992C35.1322 99.9763 34.7551 100.015 34.4551 100.015C34.138 100.015 33.7566 99.9763 33.3109 99.8992V92.6996ZM37.539 93.3167C37.9418 93.2653 38.3575 93.2224 38.786 93.1881C39.2232 93.1539 39.6346 93.1367 40.0202 93.1367C41.0573 93.1367 41.833 93.3338 42.3473 93.7281C42.8701 94.1138 43.1315 94.6581 43.1315 95.3609C43.1315 95.6266 43.1015 95.858 43.0415 96.0551C42.9815 96.2522 42.9087 96.4237 42.8229 96.5694C42.7372 96.7065 42.6472 96.8179 42.553 96.9036C42.4587 96.9893 42.3815 97.0579 42.3215 97.1093L43.7872 99.912C43.6158 99.9463 43.4229 99.972 43.2086 99.9892C43.0029 100.006 42.8015 100.015 42.6044 100.015C42.3644 100.015 42.133 100.006 41.9101 99.9892C41.6873 99.972 41.503 99.9463 41.3573 99.912L39.9303 96.8779L40.1102 96.7751C40.4102 96.6037 40.6159 96.4237 40.7273 96.2351C40.8388 96.038 40.8945 95.828 40.8945 95.6051C40.8945 95.3823 40.8259 95.2023 40.6888 95.0652C40.5602 94.9195 40.3502 94.8466 40.0588 94.8466C39.896 94.8466 39.7717 94.8552 39.686 94.8723V99.9249C39.4631 99.9677 39.2617 99.9935 39.0817 100.002C38.9017 100.019 38.7432 100.028 38.606 100.028C38.4603 100.028 38.3018 100.019 38.1304 100.002C37.9589 99.9935 37.7618 99.9677 37.539 99.9249V93.3167ZM44.1979 97.765C44.1979 97.345 44.2879 96.9979 44.4679 96.7236C44.6478 96.4494 44.8793 96.2308 45.1621 96.068C45.4449 95.9051 45.7578 95.7937 46.1006 95.7337C46.4435 95.6651 46.7777 95.6309 47.1034 95.6309H47.8877C47.8791 95.4766 47.8362 95.348 47.7591 95.2452C47.682 95.1423 47.5834 95.0652 47.4634 95.0137C47.3434 94.9537 47.2106 94.9152 47.0648 94.898C46.9191 94.8723 46.7692 94.8595 46.6149 94.8595C46.4092 94.8595 46.1692 94.8852 45.8949 94.9366C45.6206 94.9795 45.3378 95.0523 45.0464 95.1552C44.9693 95.0095 44.9007 94.8766 44.8407 94.7566C44.7893 94.6366 44.7464 94.5166 44.7121 94.3966C44.6864 94.2681 44.665 94.1395 44.6478 94.0109C44.6393 93.8738 44.635 93.7195 44.635 93.5481C45.0464 93.411 45.4535 93.3081 45.8563 93.2396C46.2678 93.171 46.6363 93.1367 46.962 93.1367C47.4077 93.1367 47.8105 93.1924 48.1705 93.3038C48.5305 93.4067 48.8347 93.5695 49.0833 93.7924C49.3404 94.0152 49.5376 94.3024 49.6747 94.6538C49.8118 94.9966 49.8804 95.408 49.8804 95.888V99.6549C49.5547 99.7492 49.1604 99.8435 48.6976 99.9377C48.2348 100.032 47.7462 100.079 47.232 100.079C46.7863 100.079 46.3749 100.036 45.9978 99.9506C45.6292 99.8735 45.3121 99.7449 45.0464 99.5649C44.7807 99.3849 44.5707 99.1492 44.4164 98.8578C44.2707 98.5578 44.1979 98.1936 44.1979 97.765ZM47.232 98.485C47.3091 98.485 47.4205 98.4764 47.5662 98.4593C47.712 98.4421 47.8191 98.425 47.8877 98.4078V96.9936H47.1548C46.8549 96.9936 46.602 97.0579 46.3963 97.1865C46.1906 97.315 46.0878 97.495 46.0878 97.7264C46.0878 97.8979 46.1263 98.035 46.2035 98.1378C46.2806 98.2321 46.3749 98.305 46.4863 98.3564C46.6063 98.4078 46.7306 98.4421 46.8591 98.4593C46.9963 98.4764 47.1206 98.485 47.232 98.485ZM54.985 93.291C55.0536 93.2738 55.195 93.2567 55.4093 93.2396C55.6235 93.2224 55.8421 93.2139 56.0649 93.2139C56.3478 93.2139 56.6092 93.2224 56.8492 93.2396C57.0977 93.2567 57.2691 93.2738 57.3634 93.291L54.8436 99.912C54.6636 99.9549 54.4793 99.9806 54.2907 99.9892C54.1108 100.006 53.9351 100.015 53.7636 100.015C53.5922 100.015 53.4165 100.006 53.2365 99.9892C53.0565 99.9806 52.8937 99.9549 52.748 99.912L50.2795 93.291C50.3738 93.2738 50.541 93.2567 50.7809 93.2396C51.0295 93.2224 51.2952 93.2139 51.578 93.2139C51.8009 93.2139 52.0237 93.2224 52.2466 93.2396C52.4694 93.2567 52.6151 93.2738 52.6837 93.291L53.8536 97.2765C54.0508 96.6165 54.2393 95.948 54.4193 95.2709C54.6079 94.5938 54.7964 93.9338 54.985 93.291ZM59.8177 97.3022C59.912 97.6536 60.0748 97.9021 60.3062 98.0479C60.5462 98.1936 60.8591 98.2664 61.2447 98.2664C61.4933 98.2664 61.7719 98.2364 62.0804 98.1764C62.389 98.1164 62.6932 98.0264 62.9932 97.9064C63.1132 98.1293 63.2161 98.395 63.3018 98.7035C63.3961 99.0121 63.4475 99.3335 63.456 99.6678C62.6932 99.9506 61.9133 100.092 61.1162 100.092C60.4991 100.092 59.9677 100.006 59.522 99.8349C59.0849 99.6635 58.7249 99.4278 58.4421 99.1278C58.1678 98.8192 57.9621 98.455 57.8249 98.035C57.6964 97.615 57.6321 97.1565 57.6321 96.6594C57.6321 96.1708 57.7007 95.7123 57.8378 95.2837C57.9749 94.8552 58.1806 94.4823 58.4549 94.1652C58.7292 93.8481 59.072 93.5995 59.4834 93.4196C59.8948 93.231 60.3748 93.1367 60.9233 93.1367C61.3776 93.1367 61.7804 93.2138 62.1318 93.3681C62.4918 93.5224 62.7961 93.7367 63.0446 94.0109C63.2932 94.2766 63.4818 94.6023 63.6103 94.988C63.7475 95.3652 63.816 95.7766 63.816 96.2222C63.816 96.4537 63.8032 96.6636 63.7775 96.8522C63.7603 97.0322 63.7432 97.1822 63.726 97.3022H59.8177ZM60.8462 94.7695C60.5719 94.7695 60.3362 94.8552 60.1391 95.0266C59.942 95.198 59.8263 95.4637 59.792 95.8237H61.849C61.8319 95.5237 61.7376 95.2752 61.5662 95.078C61.4033 94.8723 61.1633 94.7695 60.8462 94.7695ZM67.0441 98.125H69.4739C69.5168 98.2964 69.5425 98.455 69.5511 98.6007C69.5682 98.7464 69.5768 98.8878 69.5768 99.0249C69.5768 99.1621 69.5682 99.3078 69.5511 99.4621C69.5425 99.6078 69.5168 99.7663 69.4739 99.9377H64.8714L64.8842 93.291C65.0728 93.2481 65.257 93.2181 65.437 93.201C65.6256 93.1839 65.8056 93.1753 65.977 93.1753C66.1399 93.1753 66.3156 93.1839 66.5041 93.201C66.6927 93.2181 66.877 93.2481 67.0569 93.291L67.0441 98.125Z" fill="#005C98"/>
<path d="M74.8768 99.912C74.6797 99.9463 74.4997 99.972 74.3369 99.9892C74.174 100.006 74.0155 100.015 73.8612 100.015C73.7069 100.015 73.5269 100.002 73.3212 99.9763C73.1241 99.9592 72.9012 99.9292 72.6527 99.8863L75.5325 90.7069C75.7554 90.6811 75.9611 90.6597 76.1496 90.6426C76.3468 90.6254 76.5439 90.6169 76.741 90.6169C76.9039 90.6169 77.0796 90.6254 77.2681 90.6426C77.4653 90.6597 77.6881 90.6811 77.9367 90.7069L80.7779 99.8992C80.2894 99.9763 79.8608 100.015 79.4923 100.015C79.3209 100.015 79.1495 100.006 78.978 99.9892C78.8066 99.972 78.6223 99.9463 78.4252 99.912L77.9367 98.125C77.6967 98.1936 77.4653 98.245 77.2424 98.2793C77.0281 98.3136 76.8139 98.3307 76.5996 98.3307C76.4025 98.3307 76.2011 98.3178 75.9954 98.2921C75.7896 98.2578 75.5754 98.2107 75.3525 98.1507L74.8768 99.912ZM76.6767 93.1239L75.8154 96.4279C75.9611 96.4708 76.0982 96.5051 76.2268 96.5308C76.3553 96.5565 76.4882 96.5694 76.6253 96.5694C76.771 96.5694 76.9124 96.5608 77.0496 96.5437C77.1953 96.5179 77.3453 96.4837 77.4995 96.4408L76.6767 93.1239ZM84.5299 100.092C83.9128 100.092 83.3857 100.002 82.9485 99.822C82.52 99.6335 82.1686 99.3806 81.8943 99.0635C81.6201 98.7464 81.4186 98.3735 81.2901 97.945C81.1701 97.5165 81.1101 97.0579 81.1101 96.5694C81.1101 96.098 81.1829 95.6523 81.3286 95.2323C81.4829 94.8123 81.7058 94.4481 81.9972 94.1395C82.2972 93.831 82.6657 93.5867 83.1028 93.4067C83.5399 93.2267 84.0456 93.1367 84.6199 93.1367C84.9199 93.1367 85.2498 93.171 85.6098 93.2396C85.9698 93.3081 86.3641 93.4281 86.7926 93.5995C86.784 93.7452 86.7669 93.8824 86.7412 94.0109C86.7155 94.1395 86.6812 94.2724 86.6383 94.4095C86.6041 94.5381 86.5569 94.6795 86.4969 94.8338C86.4455 94.9795 86.3812 95.1466 86.3041 95.3352C86.0127 95.2152 85.7427 95.1295 85.4941 95.078C85.2456 95.018 85.0313 94.988 84.8513 94.988C84.5685 94.988 84.3285 95.0309 84.1313 95.1166C83.9342 95.2023 83.7756 95.318 83.6557 95.4637C83.5357 95.6094 83.4457 95.7808 83.3857 95.978C83.3342 96.1665 83.3085 96.3637 83.3085 96.5694C83.3085 97.1436 83.4328 97.5679 83.6814 97.8422C83.9299 98.1079 84.2942 98.2407 84.7742 98.2407H85.0056V96.3508C85.2198 96.308 85.4084 96.278 85.5713 96.2608C85.7427 96.2437 85.9055 96.2351 86.0598 96.2351C86.3598 96.2351 86.7155 96.2737 87.1269 96.3508V99.6163C86.8783 99.7106 86.5312 99.8135 86.0855 99.9249C85.6398 100.036 85.1213 100.092 84.5299 100.092ZM90.1884 97.3022C90.2827 97.6536 90.4455 97.9021 90.6769 98.0479C90.9169 98.1936 91.2298 98.2664 91.6155 98.2664C91.864 98.2664 92.1426 98.2364 92.4511 98.1764C92.7597 98.1164 93.064 98.0264 93.3639 97.9064C93.4839 98.1293 93.5868 98.395 93.6725 98.7035C93.7668 99.0121 93.8182 99.3335 93.8268 99.6678C93.064 99.9506 92.284 100.092 91.4869 100.092C90.8698 100.092 90.3384 100.006 89.8927 99.8349C89.4556 99.6635 89.0956 99.4278 88.8128 99.1278C88.5385 98.8192 88.3328 98.455 88.1957 98.035C88.0671 97.615 88.0028 97.1565 88.0028 96.6594C88.0028 96.1708 88.0714 95.7123 88.2085 95.2837C88.3457 94.8552 88.5514 94.4823 88.8256 94.1652C89.0999 93.8481 89.4427 93.5995 89.8541 93.4196C90.2655 93.231 90.7455 93.1367 91.2941 93.1367C91.7483 93.1367 92.1511 93.2138 92.5026 93.3681C92.8625 93.5224 93.1668 93.7367 93.4154 94.0109C93.6639 94.2766 93.8525 94.6023 93.981 94.988C94.1182 95.3652 94.1867 95.7766 94.1867 96.2222C94.1867 96.4537 94.1739 96.6636 94.1482 96.8522C94.131 97.0322 94.1139 97.1822 94.0967 97.3022H90.1884ZM91.2169 94.7695C90.9426 94.7695 90.7069 94.8552 90.5098 95.0266C90.3127 95.198 90.197 95.4637 90.1627 95.8237H92.2197C92.2026 95.5237 92.1083 95.2752 91.9369 95.078C91.774 94.8723 91.534 94.7695 91.2169 94.7695ZM97.9419 93.1624C98.319 93.1624 98.6962 93.1967 99.0733 93.2653C99.4504 93.3253 99.789 93.4581 100.089 93.6638C100.397 93.8695 100.646 94.1652 100.835 94.5509C101.032 94.9366 101.13 95.4466 101.13 96.0808V99.9249C100.907 99.9677 100.706 99.9935 100.526 100.002C100.346 100.019 100.188 100.028 100.05 100.028C99.9047 100.028 99.7418 100.019 99.5618 100.002C99.3818 99.9935 99.1804 99.9677 98.9576 99.9249V96.3122C98.9576 95.858 98.8719 95.5323 98.7004 95.3352C98.529 95.138 98.2676 95.0395 97.9162 95.0395C97.8219 95.0395 97.7191 95.048 97.6077 95.0652C97.5048 95.0823 97.4405 95.0995 97.4148 95.1166V99.9249C97.192 99.9677 96.9905 99.9935 96.8106 100.002C96.6306 100.019 96.472 100.028 96.3349 100.028C96.1892 100.028 96.0263 100.019 95.8463 100.002C95.6663 99.9935 95.4649 99.9677 95.2421 99.9249V93.6124C95.5421 93.5095 95.9063 93.411 96.3349 93.3167C96.7634 93.2138 97.2991 93.1624 97.9419 93.1624ZM102.19 96.6208C102.19 96.1065 102.263 95.6351 102.409 95.2066C102.554 94.778 102.769 94.4138 103.051 94.1138C103.334 93.8052 103.681 93.5653 104.093 93.3938C104.504 93.2224 104.976 93.1367 105.507 93.1367C105.687 93.1367 105.858 93.141 106.021 93.1496C106.184 93.1581 106.343 93.1753 106.497 93.201C106.66 93.2267 106.823 93.2653 106.985 93.3167C107.157 93.3681 107.345 93.4324 107.551 93.5095C107.568 93.801 107.543 94.0924 107.474 94.3838C107.405 94.6666 107.298 94.9452 107.153 95.2194C107.007 95.168 106.874 95.1295 106.754 95.1037C106.643 95.0695 106.536 95.0437 106.433 95.0266C106.33 95.0095 106.227 95.0009 106.124 95.0009C106.03 94.9923 105.927 94.988 105.816 94.988C105.404 94.988 105.061 95.1123 104.787 95.3609C104.521 95.6009 104.388 96.0208 104.388 96.6208C104.388 96.9379 104.427 97.2036 104.504 97.4179C104.59 97.6236 104.697 97.7864 104.826 97.9064C104.963 98.0264 105.117 98.1121 105.288 98.1636C105.468 98.215 105.657 98.2407 105.854 98.2407C106.103 98.2407 106.317 98.2193 106.497 98.1764C106.686 98.1336 106.904 98.065 107.153 97.9707C107.298 98.2021 107.414 98.4635 107.5 98.755C107.585 99.0378 107.628 99.3635 107.628 99.732C107.234 99.8863 106.874 99.9849 106.548 100.028C106.223 100.071 105.897 100.092 105.571 100.092C105.023 100.092 104.538 100.011 104.119 99.8477C103.699 99.6849 103.343 99.4535 103.051 99.1535C102.769 98.845 102.554 98.4807 102.409 98.0607C102.263 97.6322 102.19 97.1522 102.19 96.6208ZM112.78 93.291C112.848 93.2738 112.977 93.2567 113.166 93.2396C113.363 93.2224 113.573 93.2139 113.796 93.2139C114.078 93.2139 114.331 93.2224 114.554 93.2396C114.777 93.2567 114.935 93.2738 115.03 93.291L112.548 97.5979V99.9249C112.326 99.9592 112.124 99.9849 111.944 100.002C111.764 100.019 111.601 100.028 111.456 100.028C111.31 100.028 111.147 100.019 110.967 100.002C110.787 99.9849 110.59 99.9592 110.376 99.9249V97.5979L107.907 93.291C108.002 93.2738 108.164 93.2567 108.396 93.2396C108.636 93.2224 108.897 93.2139 109.18 93.2139C109.403 93.2139 109.622 93.2224 109.836 93.2396C110.05 93.2567 110.191 93.2738 110.26 93.291L111.52 95.8237L112.78 93.291Z" fill="#ED6D6C"/>
<path d="M144.557 59.0879H1.49134C0.668533 59.0879 0 58.4194 0 57.5966C0 56.7738 0.668533 56.1052 1.49134 56.1052H144.506C145.329 56.1052 145.997 56.7738 145.997 57.5966C146.049 58.4194 145.38 59.0879 144.557 59.0879Z" fill="black"/>
<path d="M15.4277 51.6828H53.9969V2.87988C31.5239 9.92519 15.4277 29.1069 15.4277 51.6828Z" fill="#ED6D6B"/>
<path d="M53.9969 51.6827H92.566V3.03411C86.4464 1.07993 79.8639 0 73.0243 0C66.339 0 59.9622 1.02851 53.9969 2.87983V51.6827Z" fill="#EFC81E"/>
<path d="M92.566 3.03394V51.7854H130.878C130.878 29.3124 114.885 10.1821 92.566 3.03394Z" fill="#005C98"/>
<path fill-rule="evenodd" clip-rule="evenodd" d="M100.074 23.0902C100.023 23.0902 99.8171 23.1417 99.6628 23.1931C99.5085 23.2445 99.3028 23.2959 99.2514 23.2959C99.2 23.2959 99.0971 23.3474 98.9942 23.3988C98.8914 23.4502 98.7886 23.5016 98.7886 23.5016C98.7371 23.5016 98.6857 23.5531 98.6857 23.5531C98.6857 23.5531 98.6343 23.5531 98.6343 23.6045C98.6343 23.6045 98.5828 23.6559 98.5314 23.6559C98.48 23.7073 98.3771 23.8102 98.3771 23.8616C98.3771 23.913 98.4286 23.913 98.48 23.9645C98.5314 23.9645 98.5828 24.0159 98.6343 24.0159C98.6857 24.0159 98.7371 24.0159 98.7371 24.0159C98.7371 24.0159 98.84 24.0159 98.8914 24.0159C98.9942 24.0159 99.0971 24.0159 99.1999 24.0673C99.2514 24.0673 99.2514 24.0673 99.3028 24.0673C99.3028 24.0673 99.5085 24.1187 99.5599 24.1187C99.9713 24.273 100.331 24.4273 100.434 24.633C100.486 24.6844 100.486 24.6844 100.486 24.7358C100.537 24.7873 100.64 24.9416 100.64 24.9416C100.64 24.9416 100.64 24.993 100.691 25.0444C100.691 25.0958 100.743 25.0958 100.743 25.1473C100.794 25.2501 100.897 25.6101 100.897 25.6615C100.948 25.9186 100.948 26.0729 100.948 26.1243C100.948 26.1758 100.948 26.2272 100.948 26.2786C100.948 26.3815 100.897 26.6386 100.794 26.8957C100.743 26.9986 100.691 27.1529 100.64 27.2557C100.588 27.3071 100.588 27.41 100.537 27.4614C100.486 27.5128 100.434 27.6671 100.331 27.8214C100.074 28.2328 100.074 28.2328 100.023 28.4385C100.023 28.4385 99.9713 28.4899 99.9713 28.5413C99.9713 28.5928 99.9199 28.6442 99.8685 28.6956C99.8171 28.747 99.7656 28.8499 99.7656 28.9528C99.7142 29.0556 99.7142 29.107 99.6628 29.1585C99.6628 29.2099 99.6114 29.2613 99.6114 29.3127C99.6114 29.3642 99.5599 29.467 99.5599 29.5184C99.5599 29.5699 99.5085 29.6213 99.5085 29.6727C99.5085 29.7241 99.4571 29.7756 99.4571 29.827C99.4571 29.8784 99.4056 29.9813 99.4056 29.9813C99.4056 30.0327 99.3542 30.0841 99.2514 30.5984C99.1485 30.9583 99.1485 31.0098 99.1485 31.0098V31.0612C99.1485 31.0612 99.1485 31.1641 99.0971 31.2669C99.0971 31.3698 99.0457 31.4212 99.0457 31.4726C99.0457 31.524 99.0457 31.5755 99.0457 31.6269C99.0457 31.6783 99.0457 31.7812 98.9942 31.8326C98.9942 31.884 98.9942 31.9869 98.9942 32.0383C98.9942 32.0897 98.9942 32.1411 98.9942 32.1411C98.9942 32.1411 98.9942 32.1926 98.9942 32.244C98.9942 32.2954 98.9942 32.3468 98.9942 32.3468C98.9942 32.3468 98.9942 32.4497 98.9942 32.5011C98.9942 32.5525 98.9942 32.6554 98.9942 32.7068C98.9942 32.7582 98.9942 32.8611 98.9942 33.0668C98.9942 33.1182 98.9942 33.1696 98.9942 33.2725C98.9942 33.3753 98.9942 33.3753 98.9942 33.4268C98.9942 33.4782 98.9942 33.5296 98.9942 33.5811C98.9942 33.6325 98.9942 33.7353 98.9942 33.7868C98.9942 33.8382 98.9942 33.941 98.9942 33.941C98.9942 33.9925 98.9942 34.0953 98.9942 34.1982C98.9942 34.301 98.9942 34.4553 98.9942 34.5067C98.9942 34.5581 98.9942 34.7124 98.9942 34.7638C98.9942 34.8667 99.0457 34.9695 99.0457 35.0724C99.0457 35.5352 99.4057 37.078 99.6114 37.6437C99.6114 37.6951 99.6628 37.8494 99.7142 37.9522C99.7656 38.0551 99.7656 38.2094 99.8171 38.2094C99.8171 38.2094 99.8685 38.3122 99.8685 38.4151C99.8685 38.5179 99.9199 38.5693 99.9713 38.6208C100.023 38.775 100.074 38.8265 100.074 38.9293C100.074 38.9807 100.126 39.0322 100.126 39.0836C100.126 39.135 100.177 39.1864 100.177 39.2379C100.177 39.2893 100.228 39.3921 100.228 39.3921C100.228 39.4436 100.28 39.495 100.28 39.5464C100.28 39.5978 100.331 39.6493 100.331 39.7007C100.331 39.7521 100.383 39.7521 100.331 39.8035C100.331 39.855 100.28 39.9064 100.28 39.9578C100.228 40.0092 100.177 40.0607 100.177 40.1121C100.023 40.3178 99.8171 40.6264 99.7656 40.6778C99.6114 40.8835 99.3028 41.3463 99.1485 41.6034C99.0971 41.7063 99.0457 41.8091 99.0457 41.8606C99.0457 41.912 98.9942 41.9634 98.9942 42.0148C98.9942 42.0663 98.9428 42.1177 98.9428 42.1177C98.9428 42.1691 98.8914 42.1691 98.8914 42.2205C98.8914 42.2205 98.8914 42.272 98.84 42.3234C98.7886 42.4263 98.7371 42.6319 98.6857 42.7348C98.6857 42.8377 98.6343 43.0948 98.6343 43.1462C98.6343 43.1976 98.6343 43.2491 98.6343 43.3005C98.6343 43.3519 98.6343 43.4033 98.6343 43.4548C98.6343 43.5062 98.6343 43.5576 98.6343 43.609C98.6343 43.7633 98.7371 44.2261 98.7886 44.329C98.7886 44.3804 98.84 44.4318 98.84 44.4833C98.84 44.5347 98.8914 44.5861 98.8914 44.5861H98.9428L98.9942 44.5347L99.0457 44.4833L99.0971 44.4318C99.0971 44.4318 99.1485 44.4319 99.1485 44.3804L99.1999 44.329L99.2514 44.2776L99.3542 44.2261C99.4057 44.2261 99.4571 44.1747 99.5085 44.1747C99.5599 44.1747 99.6114 44.1233 99.6114 44.1233C99.6628 44.1233 99.7142 44.0719 99.7142 44.0719C99.7142 44.0719 99.8171 44.0204 99.9199 43.969C100.023 43.969 100.126 43.9176 100.177 43.8662C100.228 43.8147 100.331 43.8147 100.434 43.7633C100.537 43.7119 100.64 43.7119 100.691 43.6605C100.794 43.609 100.846 43.609 101.051 43.5576C101.154 43.5062 101.257 43.5062 101.257 43.4548C101.308 43.4548 101.36 43.4033 101.463 43.3519C101.514 43.3519 101.668 43.3005 101.72 43.2491C101.771 43.1976 101.874 43.1976 101.926 43.1462C101.977 43.1462 102.028 43.0948 102.08 43.0948C102.08 43.0948 102.131 43.0434 102.183 43.0434C102.234 43.0434 102.285 42.9919 102.285 42.9919C102.337 42.9919 102.337 42.9405 102.388 42.9405C102.44 42.8891 102.697 42.7348 102.8 42.632C102.903 42.5291 103.057 42.272 103.057 42.2205C103.057 42.1691 103.108 42.1177 103.108 42.1177C103.16 42.1177 103.365 42.1177 103.365 42.1691C103.417 42.1691 103.623 42.2205 103.725 42.2205C103.777 42.2205 103.88 42.2205 103.931 42.2205C103.983 42.2205 104.085 42.2205 104.343 42.1691C104.651 42.1177 104.754 42.0663 104.908 42.0148C104.96 42.0148 105.062 41.9634 105.165 41.912C105.268 41.8606 105.371 41.8606 105.422 41.8091C105.525 41.7577 105.937 41.7063 106.142 41.6549C106.4 41.6549 106.4 41.6549 106.348 41.6034C106.348 41.6034 106.297 41.552 106.297 41.5006C106.297 41.4492 106.245 41.3977 106.245 41.3977C106.245 41.3977 106.194 41.3463 106.194 41.2949C106.142 41.2435 106.142 41.192 106.091 41.192C106.04 41.1406 105.988 41.0378 105.885 40.9349C105.834 40.8835 105.782 40.8321 105.782 40.8321L105.731 40.7806C105.731 40.7806 105.68 40.7292 105.628 40.6778C105.577 40.6264 105.525 40.6264 105.525 40.5749C105.474 40.5235 105.011 40.2664 104.96 40.215C104.908 40.215 104.805 40.1635 104.754 40.1121C104.6 40.0607 104.445 40.0092 104.188 39.9064C103.983 39.855 103.777 39.8035 103.777 39.8035H103.725C103.725 39.8035 103.674 39.8035 103.623 39.8035C103.571 39.8035 103.571 39.8035 103.52 39.8035C103.468 39.8035 103.468 39.8035 103.417 39.8035C103.365 39.8035 103.314 39.8035 103.314 39.8035C103.263 39.8035 103.263 39.8035 103.211 39.8035H103.16C103.16 39.8035 103.057 39.8035 102.954 39.7521C102.903 39.7521 102.8 39.7521 102.748 39.7007C102.697 39.7007 102.645 39.7007 102.645 39.7007C102.594 39.7007 102.543 39.7007 102.543 39.7007C102.543 39.7007 102.491 39.7007 102.44 39.7007H102.337C102.234 39.7007 102.234 39.7007 102.234 39.7521C102.234 39.7521 102.234 39.8035 102.234 39.855C102.234 39.9064 102.234 39.9064 102.234 39.9578C102.234 39.9578 102.234 40.0092 102.234 40.0607C102.234 40.1121 102.234 40.1635 102.234 40.1635C102.234 40.2149 102.234 40.4207 102.183 40.4721C102.183 40.5235 102.183 40.5235 102.183 40.5749C102.183 40.5749 102.183 40.6264 102.183 40.6778C102.183 40.7292 102.131 40.7292 102.131 40.7292C102.08 40.7292 102.08 40.5749 102.08 40.5235C102.08 40.4721 102.08 40.2149 102.028 40.0607C102.028 39.9578 102.028 39.9064 101.977 39.7007C101.977 39.6493 101.977 39.495 101.977 39.4436C101.977 39.3407 101.977 39.2379 101.977 39.135C101.977 39.0836 101.977 38.9293 101.977 38.8779C101.977 38.8265 101.977 38.7236 101.977 38.7236C101.977 38.7236 101.977 38.6208 101.977 38.5179C101.977 38.4151 101.977 38.3122 101.977 38.3122C101.977 38.2608 101.977 38.2094 101.977 38.1579C101.977 38.1065 101.977 38.0551 101.977 38.0036C101.977 37.9522 101.977 37.9008 101.977 37.8494C101.977 37.7979 101.977 37.7465 101.977 37.6951C101.977 37.6437 101.977 37.5922 101.977 37.5408C101.977 37.4894 101.977 37.438 101.977 37.3865C101.977 37.2837 102.028 37.1294 102.028 37.0266C102.028 36.9751 102.028 36.9237 102.028 36.8723C102.028 36.8209 102.028 36.7694 102.028 36.7694C102.028 36.7694 102.028 36.718 102.028 36.6666C102.028 36.6152 102.028 36.5637 102.028 36.5123C102.028 36.4609 102.028 36.4095 102.028 36.4095C102.028 36.358 102.028 36.3066 102.028 36.3066C102.028 36.2552 102.028 36.2038 102.028 36.2038V36.1523C102.028 36.1523 102.028 36.1009 102.028 36.0495C102.028 35.998 102.028 35.9466 102.028 35.9466C102.028 35.8952 102.183 35.2781 102.234 35.1238V35.0724C102.285 34.9181 102.337 34.7124 102.44 34.4039C102.491 34.3524 102.491 34.2496 102.491 34.2496C102.491 34.2496 102.491 34.1982 102.543 34.1467C102.543 34.0953 102.594 34.0439 102.594 34.0439C102.645 33.941 102.903 33.4782 103.005 33.1696C103.16 32.9125 103.417 32.5011 103.674 32.244C103.725 32.1926 103.777 32.1411 103.777 32.0897C103.828 32.0383 103.88 31.9869 103.931 31.9354C104.137 31.7297 104.24 31.6269 104.24 31.6269C104.24 31.6269 104.291 31.5755 104.343 31.524C104.394 31.4726 104.445 31.4212 104.548 31.3698C104.6 31.3183 104.702 31.2669 104.702 31.2155C104.805 31.1126 105.114 30.9069 105.217 30.8041C105.268 30.8041 105.32 30.7526 105.32 30.7012C105.371 30.7012 105.474 30.5984 105.525 30.5469C105.628 30.4955 105.731 30.4441 105.782 30.3927C105.834 30.3412 105.885 30.3412 105.885 30.3412C105.885 30.3412 105.988 30.2898 106.04 30.2898C106.142 30.2384 106.245 30.187 106.4 30.1355C106.451 30.1355 106.554 30.0841 106.554 30.0327C106.605 30.0327 106.657 29.9813 106.76 29.9298C106.811 29.9298 106.914 29.8784 107.017 29.827C107.119 29.7756 107.274 29.7241 107.377 29.7241C107.479 29.6727 107.634 29.6213 107.685 29.6213C107.788 29.5699 107.942 29.5184 107.994 29.5699C108.045 29.5699 108.045 29.5699 107.994 29.6213L107.942 29.6727C107.942 29.6727 107.891 29.7241 107.839 29.7241C107.788 29.7241 107.737 29.7756 107.737 29.827C107.582 29.8784 107.479 30.0327 107.479 30.1355C107.479 30.1355 107.479 30.187 107.479 30.2384C107.479 30.2898 107.479 30.2898 107.479 30.3412C107.479 30.3927 107.325 30.8555 107.274 31.0098C107.222 31.1126 107.119 31.3183 107.068 31.3698C107.068 31.4212 107.017 31.4726 106.965 31.524C106.914 31.6269 106.657 31.9354 106.502 32.1411C106.4 32.2954 106.245 32.5011 106.245 32.5011C106.245 32.5525 106.245 32.5525 106.348 32.604C106.4 32.604 106.451 32.604 106.554 32.604C106.76 32.5525 107.068 32.5011 107.222 32.4497C107.274 32.3983 107.377 32.3983 107.428 32.3468C107.479 32.3468 107.531 32.2954 107.582 32.2954C107.634 32.2954 107.685 32.244 107.685 32.244C107.737 32.244 107.788 32.1926 107.788 32.1926C107.788 32.1926 107.891 32.1411 107.942 32.0897C107.994 32.0383 108.097 31.9869 108.148 31.9869C108.199 31.9354 108.251 31.9354 108.302 31.884C108.354 31.884 108.405 31.8326 108.405 31.8326C108.508 31.7297 108.611 31.6783 108.611 31.6783C108.611 31.6783 108.662 31.6783 108.662 31.6269C108.714 31.5755 108.765 31.524 108.868 31.4726C108.971 31.4212 109.022 31.3183 109.074 31.3183C109.125 31.2669 109.279 31.1126 109.331 31.0612C109.331 31.0612 109.382 30.9069 109.382 30.8041C109.382 30.7012 109.382 30.6498 109.382 30.5469C109.382 30.4955 109.382 30.4441 109.382 30.3927C109.382 30.3412 109.382 30.2384 109.382 30.187C109.382 30.0327 109.382 29.9813 109.434 29.9813C109.485 29.9813 109.485 30.0841 109.536 30.2898C109.588 30.4441 109.588 30.5469 109.588 30.6498C109.588 30.7526 109.588 30.8555 109.588 30.9069C109.588 30.9583 109.588 31.0098 109.588 31.0612C109.588 31.1126 109.588 31.164 109.588 31.2155C109.588 31.2669 109.588 31.3183 109.588 31.3698C109.588 31.4212 109.588 31.4726 109.588 31.4726C109.588 31.4726 109.588 31.524 109.485 31.884C109.434 32.1411 109.382 32.2954 109.331 32.3468C109.331 32.3468 109.331 32.3983 109.279 32.3983C109.279 32.4497 109.177 32.6554 109.125 32.8097C109.074 32.8611 109.074 32.9639 109.074 32.9639C109.074 33.0154 109.022 33.0668 109.022 33.0668C108.971 33.1696 108.919 33.3239 108.919 33.4268C108.919 33.4782 108.919 33.5296 108.919 33.5296C108.919 33.5811 108.919 33.5811 108.971 33.5811C109.022 33.5811 109.022 33.5811 109.125 33.5811C109.177 33.5811 109.228 33.5296 109.279 33.5296C109.331 33.5296 109.382 33.4782 109.434 33.4782C109.485 33.4782 109.588 33.4268 109.588 33.3753C109.588 33.3239 109.691 33.3239 109.691 33.2725C109.742 33.2725 109.794 33.2211 109.845 33.1696C109.896 33.1182 109.948 33.1182 109.999 33.0668C110.051 33.0668 110.102 32.9639 110.154 32.9125C110.308 32.8097 110.308 32.8097 110.462 32.6554C110.565 32.604 110.616 32.5011 110.616 32.5011C110.616 32.5011 110.668 32.4497 110.719 32.3983C110.771 32.3468 110.822 32.2954 110.874 32.1926C110.925 32.1411 110.976 32.0383 111.028 32.0383C111.131 31.9354 111.388 31.5755 111.594 31.2669C111.748 31.0612 111.954 30.6498 111.954 30.5984C111.954 30.5469 111.953 30.5469 112.056 30.3927C112.056 30.3412 112.108 30.2898 112.108 30.2898V30.2384C112.159 30.1355 112.262 29.7756 112.262 29.5699C112.262 29.5184 112.262 29.4156 112.313 29.3642C112.313 29.3127 112.313 29.2613 112.313 29.2613C112.313 29.1584 112.365 29.107 112.519 29.107C112.571 29.107 112.673 29.107 112.725 29.107C112.776 29.107 112.879 29.107 112.879 29.107C112.879 29.107 112.982 29.107 113.033 29.107C113.085 29.107 113.136 29.107 113.188 29.107C113.239 29.107 113.291 29.107 113.342 29.107C113.393 29.107 113.496 29.107 113.496 29.107C113.548 29.107 113.599 29.107 113.599 29.107C113.651 29.107 113.702 29.107 113.702 29.107C113.753 29.107 113.805 29.107 113.856 29.107C113.908 29.107 113.959 29.107 113.959 29.107C114.011 29.107 114.062 29.107 114.113 29.107C114.165 29.107 114.216 29.107 114.268 29.107C114.371 29.107 114.525 29.1585 114.628 29.1585C114.679 29.1585 114.73 29.1585 114.73 29.1585C114.782 29.1585 114.782 29.1585 114.833 29.1585C114.833 29.1585 114.885 29.1585 114.936 29.1585C114.988 29.1585 115.039 29.1585 115.09 29.1585C115.142 29.1585 115.193 29.1585 115.193 29.1585C115.193 29.1585 115.296 29.1585 115.348 29.2099C115.399 29.2099 115.502 29.2099 115.553 29.2613C115.605 29.2613 115.656 29.2613 115.708 29.2613C115.759 29.2613 115.759 29.2613 115.81 29.2613C115.81 29.2613 115.862 29.2613 115.913 29.2613C116.016 29.2613 116.222 29.3127 116.222 29.3127C116.222 29.3127 116.273 29.3127 116.325 29.3127C116.376 29.3127 116.428 29.3127 116.53 29.3642C116.633 29.4156 116.685 29.4156 116.736 29.4156C116.839 29.4156 116.942 29.467 117.045 29.467C117.096 29.467 117.147 29.467 117.147 29.467H117.199C117.199 29.467 117.25 29.467 117.302 29.467C117.405 29.467 117.559 29.467 117.662 29.5184C117.713 29.5184 117.765 29.5184 117.816 29.5184C117.867 29.5184 117.97 29.5184 117.97 29.5184C118.022 29.5184 118.073 29.5184 118.073 29.5184C118.073 29.5184 118.125 29.5184 118.227 29.5184C118.382 29.5184 118.69 29.5184 118.742 29.5184C118.793 29.5184 118.845 29.5184 118.896 29.5184C118.999 29.5184 119.564 29.467 119.719 29.4156C119.77 29.4156 119.822 29.3642 119.873 29.3642C119.976 29.3127 120.13 29.2613 120.182 29.2099C120.233 29.1585 120.284 29.0556 120.284 29.0042C120.284 28.9527 120.233 28.8499 120.182 28.747C120.13 28.6442 120.079 28.6442 119.873 28.4899C119.77 28.4385 119.564 28.3356 119.513 28.2842C119.359 28.2328 119.307 28.1814 119.102 28.0785C118.793 27.9242 118.639 27.8214 118.485 27.7185C118.279 27.5643 118.227 27.5128 118.073 27.41C117.97 27.3071 117.97 27.2557 117.97 27.05C117.919 26.5872 117.867 26.33 117.765 26.0215C117.713 25.9186 117.713 25.8158 117.662 25.7129C117.61 25.6101 117.61 25.5072 117.559 25.4558C117.507 25.4044 117.507 25.353 117.507 25.3015C117.456 25.1473 116.993 24.4787 116.89 24.3759L116.839 24.3244C116.839 24.273 116.788 24.2216 116.736 24.2216C116.685 24.1702 116.685 24.1702 116.633 24.1187C116.633 24.1187 116.582 24.0673 116.53 24.0159C116.479 23.9645 116.428 23.9645 116.428 23.913C116.376 23.8616 116.17 23.7073 116.016 23.6045C115.913 23.5531 115.862 23.5016 115.862 23.5016C115.862 23.5016 115.45 23.2445 115.348 23.1931C115.296 23.1931 115.245 23.1417 115.193 23.0902C115.142 23.0902 115.09 23.0388 114.988 22.9874C114.936 22.936 114.833 22.936 114.73 22.8845C114.679 22.8331 114.576 22.8331 114.525 22.7817C114.473 22.7817 114.37 22.7303 114.319 22.7303C114.268 22.7303 114.216 22.6788 114.216 22.6788H114.165C114.165 22.6788 113.959 22.6274 113.753 22.576C113.548 22.5245 113.342 22.4731 113.342 22.4731C113.291 22.4731 113.239 22.4731 113.188 22.4217C113.136 22.3703 113.033 22.4217 112.982 22.3703C112.931 22.3189 112.828 22.3703 112.776 22.3703C112.725 22.3703 112.673 22.3703 112.673 22.3703C112.622 22.3703 112.211 22.3188 112.108 22.3188C112.056 22.3188 112.005 22.3188 111.954 22.3188C111.954 22.3188 111.902 22.3188 111.851 22.3188C111.799 22.3188 111.748 22.3188 111.696 22.3188C111.645 22.3188 111.594 22.3188 111.542 22.3188C111.491 22.3188 111.439 22.3188 111.388 22.3188C111.336 22.3188 111.285 22.3188 111.234 22.3188C111.182 22.3188 111.131 22.3188 111.079 22.3188C111.028 22.3188 110.976 22.3188 110.925 22.3188C110.874 22.3188 110.822 22.3188 110.771 22.3188C110.719 22.3188 110.668 22.3188 110.616 22.3188C110.565 22.3188 110.514 22.3188 110.462 22.3188C110.411 22.3188 110.308 22.3188 110.205 22.3188C110.102 22.3188 109.999 22.3188 109.948 22.3188C109.896 22.3188 109.794 22.3188 109.691 22.3188C109.639 22.3188 109.536 22.3188 109.485 22.3188C109.382 22.3188 109.331 22.3189 108.971 22.3703C108.868 22.3703 108.765 22.3703 108.714 22.4217C108.148 22.4731 106.605 22.8331 106.297 22.936C106.245 22.9874 106.091 22.9874 105.988 23.0388C105.885 23.0388 105.782 23.0902 105.731 23.1417C105.68 23.1931 105.577 23.1931 105.474 23.2445C105.371 23.2959 105.32 23.2959 105.268 23.3474C105.217 23.3474 105.165 23.3988 105.114 23.3988C105.062 23.3988 104.96 23.4502 104.908 23.5016C104.857 23.5531 104.805 23.5531 104.754 23.5531C104.754 23.5531 104.651 23.6045 104.6 23.6045C104.548 23.6559 104.497 23.6559 104.445 23.6559C104.445 23.6559 104.394 23.7073 104.343 23.7073C104.291 23.7588 104.24 23.7588 104.188 23.8102C104.085 23.8616 103.88 23.9645 103.828 24.0159C103.777 24.0673 103.674 24.0673 103.674 24.0673C103.674 24.0673 103.674 24.0673 103.674 24.0159C103.674 23.9645 103.725 23.913 103.777 23.913C103.931 23.7588 103.931 23.7588 103.983 23.7073L104.034 23.6559C104.034 23.6559 104.085 23.6045 104.137 23.5531C104.24 23.4502 104.24 23.4502 104.085 23.3988C104.034 23.3988 103.931 23.3474 103.931 23.3474C103.88 23.3474 103.52 23.2445 103.417 23.2445C103.365 23.2445 103.314 23.2445 103.263 23.2445C103.211 23.2445 103.16 23.2445 103.108 23.2445C103.005 23.2445 102.851 23.1931 102.8 23.1931H102.748C102.748 23.1931 102.697 23.1931 102.645 23.1931C102.543 23.1931 102.44 23.1931 102.234 23.1417C102.183 23.1417 102.131 23.1417 102.08 23.1417C102.028 23.1417 101.977 23.1417 101.926 23.1417C101.874 23.1417 101.823 23.1417 101.72 23.1417C101.668 23.1417 101.566 23.1417 101.514 23.1417C101.463 23.1417 101.36 23.1417 101.308 23.1417C101.257 23.1417 101.154 23.1417 101.103 23.1417C101.051 23.1417 100.897 23.1417 100.794 23.1931C100.691 23.1931 100.486 23.2445 100.331 23.2445C100.177 23.2959 99.9713 23.2959 99.9199 23.2959C100.177 23.0902 100.126 23.0902 100.074 23.0902Z" fill="white"/>
<path fill-rule="evenodd" clip-rule="evenodd" d="M36.5122 17.5363C33.478 19.6962 32.0381 23.7073 33.0666 27.3586C33.478 28.7985 34.0951 29.9298 35.3294 31.3183C36.8721 33.0668 37.6949 34.8667 37.9521 37.0266C38.1063 38.1579 37.6949 40.2664 37.0778 41.5006C36.8207 42.0663 36.1007 42.8891 36.1007 42.9405C36.255 42.9919 38.2092 42.3748 39.5463 41.552C40.9347 40.7806 41.9633 39.7007 43.0432 38.3122C43.5575 37.5408 43.1975 38.2094 43.6603 37.3866C44.2774 36.2552 44.7917 35.1753 46.0773 34.8153C46.4373 34.7124 46.6944 34.5581 46.8487 34.2496C46.9515 33.9925 47.2087 33.6839 47.4144 33.4782L47.7744 33.1697L47.3115 33.0154C47.0544 32.9125 46.643 32.6554 46.3859 32.3983C45.9745 31.9869 45.8202 31.9354 45.2031 31.9354C44.3803 31.9354 43.8146 32.244 43.506 32.9125C43.3518 33.3239 43.3518 33.3239 43.146 32.3468C42.8375 30.4441 42.2718 29.467 40.5748 27.5128C39.2377 25.9701 38.3635 24.273 37.7464 22.1132C37.5407 21.3932 37.4892 20.6732 37.4892 18.9762C37.4892 17.742 37.4892 16.7649 37.4892 16.7649C37.4892 16.7649 37.0778 17.1249 36.5122 17.5363ZM41.1919 19.6447C40.1634 20.3647 39.3406 21.8046 39.3406 22.7303C39.3406 23.5531 40.5233 25.6615 41.8604 27.2557C42.4261 27.9757 42.5289 27.9757 42.6832 27.77C43.0432 27.2557 42.8889 26.2786 42.3747 25.4558C41.2433 23.7074 40.9348 21.7532 41.5519 20.0561C41.7061 19.5933 41.809 19.2333 41.809 19.2333C41.7576 19.2333 41.5004 19.439 41.1919 19.6447ZM45.6659 32.964C45.7173 33.1182 45.6145 33.2211 45.5116 33.2211C45.2545 33.2211 45.1002 33.0154 45.2031 32.8097C45.3059 32.5526 45.6145 32.7068 45.6659 32.964ZM24.9414 37.5923C26.947 39.2893 30.1868 40.8835 32.3981 41.192C32.8095 41.2435 32.9638 41.3463 32.8609 41.4492C32.7581 41.552 31.8324 41.552 30.3411 41.5006C27.7698 41.4492 26.1756 41.0892 24.4271 40.3692C23.3472 39.9064 23.5529 40.1121 24.89 40.8835C26.227 41.6549 28.1298 42.4263 29.5697 42.7348C30.7011 42.9919 34.0951 43.4033 34.6608 43.2491C34.8665 43.1976 35.1751 42.6834 35.4322 42.2206C35.895 41.4492 36.5636 39.7521 36.4607 39.6493C36.4093 39.5979 35.7408 39.6493 34.8665 39.7521C31.781 40.1121 28.2326 39.3407 25.3528 37.7465C24.8385 37.438 24.6843 37.3866 24.9414 37.5923Z" fill="white"/>
<path fill-rule="evenodd" clip-rule="evenodd" d="M82.6409 12.1363H82.5895C82.5895 12.1363 82.5381 12.1363 82.5381 12.1878L82.4867 12.2392C82.4352 12.2392 82.3838 12.342 82.3838 12.3935C82.3838 12.4449 82.3838 12.4449 82.3838 12.4449C82.3838 12.4449 82.3324 12.4963 82.3324 12.5477C82.3324 12.5477 82.3324 12.5992 82.3324 12.6506C82.3324 12.7534 82.3324 12.7534 82.4352 12.8563L82.4867 12.9077C82.4867 12.9077 82.4867 12.9591 82.5381 12.9591C82.5895 13.0106 82.5895 13.062 82.5895 13.062C82.5895 13.062 82.5895 13.1134 82.6409 13.1134L82.6924 13.2163C82.7438 13.2163 82.7438 13.422 82.7438 13.5762C82.7438 13.6277 82.7438 13.6791 82.7438 13.6791C82.7438 13.6791 82.7952 13.8848 82.7438 13.9362C82.7438 13.9876 82.7438 13.9877 82.6924 13.9877C82.6924 13.9877 82.6409 13.9876 82.6409 13.9362H82.5895C82.5895 13.9362 82.5381 13.9362 82.5381 13.8848C82.4867 13.8334 82.3838 13.8334 82.3324 13.8848C82.281 13.9362 82.2295 13.9877 82.2295 13.9877C82.2295 13.9877 82.2295 13.9877 82.2295 14.0391V14.0905V14.1419C82.2295 14.1419 82.1781 14.1934 82.1781 14.2448C82.1781 14.2962 82.1267 14.3476 82.1267 14.3991C82.1267 14.4505 82.1267 14.4505 82.1267 14.5019C82.1267 14.5533 82.1267 14.6562 82.1267 14.6562V14.759C82.1267 14.759 82.1267 14.8105 82.0753 14.8619V14.9133C82.0753 14.9133 82.0753 14.9647 82.0238 15.0162C81.9724 15.0676 81.9724 15.119 81.9724 15.1704C81.9724 15.2219 81.921 15.2219 81.921 15.2219V15.2733C81.921 15.2733 81.921 15.2733 81.921 15.3247L81.8181 15.479L81.7667 15.5304L81.7153 15.5818C81.7153 15.5818 81.6638 15.6333 81.6638 15.6847C81.6638 15.7361 81.6124 15.7361 81.6124 15.7361C81.6124 15.7361 81.5096 15.839 81.4581 15.9418C81.4581 15.9418 81.4067 15.9932 81.4067 16.0447C81.3553 16.0961 81.3553 16.1475 81.2524 16.3018C81.201 16.3532 81.201 16.4047 81.201 16.4047V16.4561V16.5075V16.5589C81.201 16.6104 81.201 16.6618 81.0982 16.8161C81.0982 16.8675 81.0982 16.8675 81.0982 16.8675C81.0982 16.8675 81.0982 16.9189 81.0467 16.9189L80.9953 16.9703V17.0218V17.0732C80.9953 17.0732 80.9953 17.1246 80.9439 17.1246C80.8925 17.1246 80.8925 17.176 80.8925 17.176C80.8925 17.176 80.8925 17.2275 80.841 17.2789C80.7896 17.3303 80.7896 17.3817 80.7896 17.3817C80.7896 17.3817 80.7382 17.4332 80.7382 17.4846C80.7382 17.4846 80.6868 17.536 80.6868 17.5874C80.6868 17.6389 80.6353 17.6903 80.5839 17.7417C80.5325 17.7931 80.5325 17.8446 80.4811 17.8446C80.4296 17.8446 80.4811 17.896 80.4811 17.896C80.4811 17.896 80.4811 17.9474 80.4296 17.9474C80.4296 17.9988 80.3782 17.9988 80.3782 17.9988V18.0503C80.3782 18.0503 80.3782 18.1017 80.3268 18.1531C80.2754 18.2046 80.1211 18.4102 80.0697 18.4617L80.0182 18.5131C80.0182 18.5131 79.9668 18.5645 79.9154 18.616C79.8639 18.6674 79.8639 18.7188 79.8639 18.7188L79.8125 18.7702C79.8125 18.7702 79.7611 18.8217 79.7611 18.8731C79.7097 18.9245 79.7097 18.9759 79.7097 18.9759C79.7097 18.9759 79.7097 19.0274 79.6582 19.0274C79.6068 19.0788 79.504 19.1816 79.4525 19.2845C79.4011 19.3359 79.4011 19.3873 79.3497 19.3873C79.3497 19.4388 79.2983 19.4388 79.2983 19.4388C79.2983 19.4388 79.2983 19.4388 79.2983 19.4902C79.2983 19.4902 79.2983 19.4902 79.2983 19.5416C79.2983 19.5416 79.2983 19.593 79.2468 19.593C79.1954 19.6445 79.0412 19.8502 79.0412 19.8502L78.9897 19.9016C78.9383 19.953 78.9383 19.953 78.9383 19.953C78.9383 19.953 78.9383 20.0044 78.8869 20.0044C78.8354 20.0559 78.8354 20.0559 78.784 20.1073C78.7326 20.1587 78.6812 20.2101 78.5783 20.3644C78.5269 20.4158 78.5269 20.4159 78.5269 20.4673C78.5269 20.4673 78.5269 20.4673 78.4755 20.5187C78.424 20.5701 78.424 20.5701 78.424 20.5701C78.424 20.5701 78.1155 20.9301 78.0641 20.9301V20.9815C78.0641 20.9815 78.0641 20.9815 78.0641 21.033C78.0641 21.033 78.0641 21.033 78.0126 21.0844C77.9612 21.1358 77.9612 21.1358 77.9612 21.1358C77.9612 21.1358 77.9098 21.1872 77.8584 21.2387C77.8069 21.2901 77.7555 21.3415 77.7555 21.3415C77.7555 21.3415 77.7041 21.3929 77.6527 21.4444C77.6012 21.4958 77.5498 21.5472 77.5498 21.5472C77.5498 21.5472 77.4984 21.5986 77.447 21.6501C77.3955 21.7015 77.3441 21.7529 77.3441 21.7529L77.2927 21.8043L76.9841 22.0615C76.9841 22.0615 76.9327 22.0615 76.9327 22.1129C76.9327 22.1129 76.8813 22.1643 76.8298 22.1643C76.7784 22.1643 76.7784 22.2157 76.7784 22.2157C76.7784 22.2157 76.7784 22.2157 76.727 22.2157C76.6756 22.2672 76.5213 22.37 76.367 22.4214C76.3156 22.4214 76.3156 22.4729 76.3156 22.4729C76.3156 22.4729 76.3156 22.4729 76.2642 22.4729H76.2127C76.2127 22.4729 76.1099 22.5243 76.007 22.5757C75.9042 22.6271 75.8528 22.6786 75.8528 22.6786C75.8528 22.6786 75.8528 22.6786 75.8013 22.6786H75.7499L75.6985 22.73C75.6471 22.73 75.5956 22.7814 75.4928 22.8328C75.4414 22.8328 75.3899 22.8843 75.3899 22.8843C75.3899 22.8843 75.3385 22.8843 75.3385 22.9357C75.3385 22.9357 75.3385 22.9357 75.2871 22.9357C75.2871 22.9357 75.2357 22.9357 75.1842 22.9871C75.1328 22.9871 75.0299 23.0386 74.9271 23.09C74.8242 23.1414 74.7214 23.1928 74.7214 23.1928C74.67 23.1928 74.5157 23.2443 74.5157 23.2443C74.5157 23.2443 74.4643 23.2443 74.4643 23.2957L74.4128 23.3471C74.3614 23.3471 74.1043 23.45 74.1043 23.5014C74.1043 23.5014 74.1043 23.5014 74.0529 23.5528C74.0014 23.6042 74.0014 23.6042 74.0014 23.6042L73.95 23.6557L73.8986 23.7071C73.8986 23.7071 73.8472 23.7585 73.7957 23.7585C73.7443 23.7585 73.7443 23.8099 73.7443 23.8099C73.7443 23.8099 73.7443 23.8099 73.6929 23.8099L73.6415 23.8614C73.6415 23.8614 73.59 23.9128 73.3843 24.0671C73.3329 24.1185 73.2815 24.1699 73.2815 24.1699C73.2815 24.1699 72.9729 24.4785 72.7158 24.7356C72.6644 24.787 72.5615 24.8899 72.5101 24.9413C72.4587 24.9927 72.4072 24.9927 72.4072 25.0442L72.2015 25.147C72.2015 25.147 72.1501 25.147 72.1501 25.1984C72.0987 25.1984 72.0987 25.2498 72.0987 25.2498C72.0987 25.2498 72.0987 25.2498 72.0473 25.2498C72.0473 25.2498 72.0473 25.2498 71.9958 25.2498H71.9444C71.893 25.2498 71.893 25.3013 71.8416 25.3013C71.7901 25.3013 71.7387 25.3527 71.6873 25.3527C71.6359 25.3527 71.5844 25.4041 71.5844 25.4041H71.533H71.4816H71.4302H71.3787H71.3273C71.3273 25.4041 71.2759 25.4556 71.173 25.4556C71.1216 25.4556 71.0702 25.507 71.0702 25.507C71.0702 25.507 70.9673 25.5584 70.9159 25.5584C70.9159 25.5584 70.8645 25.5584 70.8131 25.6098C70.7616 25.6098 70.7616 25.6613 70.7102 25.6613H70.6588C70.6588 25.6613 70.6073 25.7127 70.5559 25.7127C70.4531 25.7127 70.3502 25.7641 70.0931 25.867C70.0417 25.867 69.9902 25.9184 69.9902 25.9184H69.9388C69.9388 25.9184 69.8874 25.9184 69.836 25.9698C69.7845 25.9698 69.7331 26.0212 69.6817 26.0212C69.6303 26.0212 69.5788 26.0727 69.5274 26.0727C69.476 26.0727 69.476 26.0727 69.476 26.0727H69.4246C69.3731 26.0727 69.3217 26.0727 69.3217 26.1241C69.2703 26.1241 69.2189 26.1755 69.2189 26.1755C69.1674 26.1755 69.1674 26.1755 69.116 26.1755C69.116 26.1755 69.0646 26.1755 69.0132 26.1755C68.9617 26.1755 68.9103 26.1755 68.8589 26.2269C68.8075 26.2784 68.756 26.2784 68.756 26.2784C68.7046 26.2784 68.7046 26.3298 68.7046 26.3298C68.7046 26.3298 68.7046 26.3298 68.6532 26.3298C68.6532 26.3298 68.6017 26.3298 68.6017 26.3812C68.6017 26.3812 68.5503 26.4326 68.4989 26.4326C68.4475 26.4326 68.4475 26.4841 68.396 26.4841C68.396 26.4841 68.3446 26.4841 68.3446 26.5355C68.3446 26.5355 68.2932 26.5869 68.2418 26.5869C68.1389 26.6898 68.0875 26.6898 68.0875 26.6898H68.0361C68.0361 26.6898 68.0361 26.7412 67.9846 26.7412C67.9332 26.7412 67.9332 26.7926 67.8818 26.7926L67.8304 26.844C67.8304 26.844 67.8304 26.844 67.7789 26.8955L67.7275 26.9469C67.7275 26.9469 67.6761 26.9469 67.6247 27.0497C67.5732 27.1012 67.5218 27.1526 67.5218 27.1526L67.4704 27.204C67.419 27.2554 67.419 27.2555 67.419 27.2555C67.419 27.2555 67.3675 27.3069 67.2647 27.3583C67.1618 27.4097 67.059 27.564 67.0076 27.6154C66.9561 27.6669 66.8533 27.7697 66.8533 27.7697C66.8533 27.7697 66.8533 27.8211 66.8019 27.8211C66.7504 27.8211 66.699 27.924 66.6476 27.924C66.5962 27.9754 66.5447 28.0268 66.5447 28.0268C66.4933 28.0783 66.339 28.284 66.339 28.284V28.3354C66.339 28.3354 66.2362 28.5411 66.1847 28.6439C66.1333 28.7468 66.1333 28.7982 66.1333 28.7982C66.1333 28.7982 66.1333 28.7982 66.1333 28.8496V28.9011C66.1333 28.9011 66.1333 28.9525 66.0819 29.0039C66.0819 29.0553 66.0305 29.1068 65.979 29.261C65.979 29.3125 65.9276 29.3639 65.9276 29.3639C65.9276 29.4153 65.8762 29.4153 65.8762 29.4668V29.5182C65.8762 29.5182 65.8762 29.5696 65.8762 29.621C65.8762 29.6724 65.8762 29.7239 65.8762 29.7239C65.8762 29.7753 65.8762 29.7753 65.8248 29.8267C65.8248 29.8782 65.7733 29.8782 65.7733 29.8782C65.7733 29.8782 65.7733 29.9296 65.7219 29.9296C65.7219 29.981 65.6705 30.0324 65.6705 30.2381C65.6705 30.3924 65.6705 30.5467 65.6191 30.5981C65.6191 30.6495 65.6191 30.7524 65.5676 30.8552C65.5676 30.9581 65.5676 31.0609 65.5162 31.1124C65.5162 31.2152 65.5162 31.3695 65.5162 31.4209C65.5162 31.4723 65.5162 31.5238 65.5162 31.5752C65.5162 31.6266 65.5162 31.7295 65.5162 31.7809C65.5162 31.8323 65.5162 31.9352 65.5162 32.038C65.5162 32.1923 65.5162 32.2437 65.5162 32.2952C65.5162 32.3466 65.5162 32.3466 65.5162 32.4494C65.5162 32.5523 65.5162 32.6037 65.5162 32.758C65.5162 32.8608 65.5162 33.0151 65.5162 33.118C65.5162 33.2208 65.5162 33.4265 65.5162 33.5808C65.5162 33.7865 65.5162 33.8893 65.5162 33.9922C65.5162 34.0436 65.5162 34.1465 65.5162 34.1979C65.5162 34.2493 65.5162 34.3008 65.5162 34.3522C65.5162 34.4036 65.4648 34.455 65.4648 34.5065C65.4134 34.7122 65.3619 34.815 65.2591 34.9179C65.2077 34.9693 65.2077 34.9693 65.2077 34.9693L65.1562 35.0207C65.1562 35.0721 65.1048 35.1236 65.1048 35.1236C65.1048 35.1236 65.0534 35.175 65.0534 35.2264C65.0534 35.2778 65.0534 35.2778 65.002 35.2778C65.002 35.2778 64.9505 35.3293 64.9505 35.3807C64.8991 35.4321 64.8991 35.4835 64.8991 35.5864V35.6892H64.9505C65.002 35.6892 65.002 35.6892 65.002 35.6892V35.6378C65.002 35.6378 65.002 35.6378 65.0534 35.5864C65.1048 35.535 65.1562 35.4835 65.1562 35.4321C65.1562 35.4321 65.2077 35.3807 65.2077 35.3293C65.2591 35.2778 65.2591 35.2778 65.2591 35.2264C65.2591 35.175 65.2591 35.175 65.2591 35.175L65.3105 35.1236C65.3105 35.1236 65.3619 35.0721 65.3619 35.0207C65.4134 34.9693 65.4134 34.9179 65.4134 34.9179C65.4134 34.9179 65.4134 34.8664 65.4648 34.8664C65.4648 34.8664 65.4648 34.8664 65.4648 34.815C65.4648 34.815 65.4648 34.7636 65.5162 34.7122C65.5162 34.6607 65.5676 34.6093 65.5676 34.5579C65.5676 34.5065 65.5676 34.4036 65.6191 34.3522C65.6191 34.3008 65.6705 34.1979 65.6705 34.1465C65.6705 34.0951 65.6705 34.0436 65.6705 34.0436C65.6705 33.9922 65.7219 33.4779 65.7219 33.3751C65.7219 33.1694 65.7219 32.6037 65.7733 32.5009C65.7733 32.4494 65.8248 32.2952 65.8248 32.1409C65.8248 31.9866 65.8248 31.8838 65.8762 31.8838C65.8762 31.8838 65.8762 31.7295 65.8762 31.5752C65.8762 31.3181 65.9276 31.2152 65.9276 31.1638C65.9276 31.1638 65.9276 31.2152 65.9276 31.3181C65.9276 31.4209 65.9276 31.4724 65.9276 31.5238C65.9276 31.5752 65.9276 31.6266 65.979 31.7295C65.979 31.8323 65.979 31.8838 65.979 31.8838V31.9352C66.0305 32.1409 66.0819 32.5009 66.0819 32.5523C66.0819 32.6551 66.1333 32.758 66.1333 32.8094C66.1333 32.8608 66.1333 32.9123 66.1847 32.9637C66.1847 33.0151 66.1848 33.0665 66.2362 33.118C66.2362 33.1694 66.2876 33.2208 66.2876 33.3751C66.2876 33.6322 66.2876 33.8379 66.2362 33.8893C66.2362 33.9408 66.2362 33.9408 66.2362 33.9922V34.0436C66.2362 34.0436 66.2362 34.0951 66.1847 34.1465C66.1847 34.1979 66.1848 34.2493 66.1333 34.2493C66.1333 34.2493 66.1333 34.3008 66.1333 34.3522C66.1333 34.4036 66.0305 34.6093 66.0305 34.6607C66.0305 34.6607 66.0305 34.7122 65.979 34.7122C65.979 34.7122 65.979 34.7636 65.9276 34.7636V34.815V34.8664C65.9276 34.9179 65.7733 35.175 65.7733 35.175C65.7733 35.175 65.7733 35.175 65.7219 35.2264C65.7219 35.2264 65.7219 35.2778 65.6705 35.2778C65.6705 35.2778 65.6191 35.3293 65.5676 35.4321C65.4648 35.5864 65.4648 35.6378 65.4134 35.6892C65.4134 35.6892 65.3619 35.7407 65.3619 35.7921C65.3105 35.8435 65.2077 35.9978 65.2077 36.0492L65.1562 36.1007C65.1562 36.1521 65.1048 36.1521 65.1048 36.1521C65.1048 36.1521 65.0534 36.2549 65.002 36.4092C65.002 36.5121 65.002 36.5635 65.002 36.6663C65.002 36.7178 65.002 36.8206 65.002 36.8206C65.002 36.8206 65.002 36.872 65.002 36.9235C65.002 36.9749 65.0534 37.0263 65.0534 37.0777C65.1048 37.1806 65.1562 37.3349 65.2077 37.3863V37.4377C65.2077 37.4377 65.2077 37.4891 65.2077 37.5406C65.2077 37.592 65.2591 37.6948 65.2591 37.7977C65.2591 37.9005 65.3105 37.952 65.3105 37.952C65.3105 37.952 65.3105 38.0034 65.3105 38.1062C65.3105 38.2091 65.3105 38.2605 65.3619 38.312C65.3619 38.3634 65.3619 38.4662 65.3619 38.6205C65.3619 38.7748 65.3619 38.9805 65.4134 39.0833C65.4134 39.1862 65.4134 39.3405 65.4134 39.4433C65.4134 39.5462 65.4134 39.649 65.4134 39.8033C65.4134 39.9576 65.4134 40.3175 65.4648 41.7575C65.4648 42.7346 65.4648 43.5059 65.4648 43.5574C65.4648 43.6088 65.5162 43.6602 65.5162 43.6602C65.5162 43.7116 65.5676 43.7116 65.5676 43.7116C65.5676 43.7631 65.6191 43.7631 65.6705 43.7631C65.7219 43.7631 65.8248 43.7631 65.8248 43.8145C65.8762 43.9173 65.8762 43.9688 65.9276 44.1745C65.9276 44.3802 65.9276 44.4316 65.9276 44.483C65.9276 44.5344 65.9276 44.5344 65.9276 44.5859C65.9276 44.6373 65.9276 44.6373 65.979 44.6373C65.979 44.6373 65.979 44.6373 65.979 44.6887C65.979 44.7401 65.979 44.7401 66.0305 44.7916C66.0819 44.843 66.0819 44.843 66.1847 44.843C66.339 44.843 66.7504 44.843 66.8533 44.7916C66.9047 44.7916 66.9047 44.7916 66.9561 44.7916H67.059C67.1104 44.7916 67.1618 44.7916 67.2647 44.7916C67.3675 44.7916 67.3675 44.7916 67.419 44.7916C67.4704 44.7916 67.4704 44.7402 67.4704 44.7402C67.4704 44.6887 67.4704 44.6373 67.419 44.5859C67.419 44.5344 67.3675 44.5344 67.3675 44.5344C67.3161 44.4316 67.2647 44.4316 67.2133 44.3287C67.1618 44.2773 67.1618 44.2773 67.1618 44.2773C67.1618 44.2773 66.9561 44.0202 66.8533 43.9688C66.8019 43.9173 66.7504 43.8659 66.7504 43.8145C66.7504 43.8145 66.7504 43.7631 66.699 43.7631V43.7116V43.6602C66.699 43.6602 66.6476 43.5574 66.6476 43.5059C66.6476 43.4545 66.6476 43.4031 66.5962 43.3517C66.5962 43.3002 66.5447 43.1974 66.5447 43.146C66.5447 43.0431 66.5447 42.9917 66.4933 42.9917C66.4933 42.9917 66.4419 42.786 66.4419 42.6317C66.4419 42.5288 66.4419 42.4774 66.4419 42.426C66.4419 42.3746 66.4419 42.2717 66.4419 42.066C66.4419 41.8603 66.4419 41.706 66.4419 41.706C66.3905 41.6546 66.3905 38.7748 66.3905 38.2091C66.3905 38.0548 66.3905 37.952 66.4419 37.9005C66.4419 37.8491 66.4419 37.7977 66.4419 37.7977C66.4419 37.7977 66.4419 37.7463 66.4933 37.7463C66.4933 37.7463 66.5447 37.6948 66.5447 37.6434C66.5447 37.592 66.5962 37.3863 66.6476 37.3349V37.2834C66.6476 37.2834 66.6476 37.232 66.699 37.232C66.699 37.232 66.699 37.232 66.699 37.1806C66.699 37.1806 66.699 37.1292 66.7504 37.0777C66.8533 36.872 66.9047 36.7692 66.9047 36.7178C66.9047 36.7178 66.9561 36.6663 66.9561 36.5635C67.0076 36.5121 67.0076 36.4606 67.0076 36.4092L67.1104 36.2035C67.1104 36.2035 67.1104 36.1521 67.1618 36.1521L67.2133 36.1007V36.0492V35.9978C67.2133 35.9978 67.2133 35.9464 67.2647 35.9464L67.3161 35.895V35.8435L67.3675 35.7921C67.3675 35.7921 67.419 35.7407 67.419 35.6892C67.4704 35.5864 67.4704 35.5864 67.5218 35.535C67.5218 35.4835 67.5732 35.4835 67.5732 35.4835C67.5732 35.4835 67.5732 35.4835 67.5732 35.4321C67.5732 35.3807 67.5732 35.3807 67.6247 35.3293C67.6761 35.2264 67.6761 35.2264 67.7789 35.1236C67.8304 35.0721 67.8304 35.0207 67.8818 35.0207V34.9693C67.8818 34.9693 67.8818 34.9179 67.9332 34.9179L67.9846 34.8664V34.815C67.9846 34.815 68.0875 34.7122 68.0875 34.6607V34.6093L68.1389 34.5579C68.1389 34.5065 68.1903 34.455 68.2418 34.455C68.2418 34.4036 68.2932 34.4036 68.2932 34.3522C68.2932 34.3008 68.3446 34.3008 68.396 34.3008C68.396 34.3008 68.396 34.3008 68.396 34.3522C68.396 34.455 68.3446 34.7122 68.3446 34.7636C68.3446 34.7636 68.3446 34.8664 68.3446 34.9179C68.3446 34.9693 68.3446 35.0721 68.2932 35.0721C68.2418 35.0721 68.2932 35.1236 68.2932 35.175C68.2932 35.175 68.2932 35.2264 68.2932 35.2778C68.2932 35.3293 68.2932 35.3293 68.2932 35.3807C68.2932 35.3807 68.2932 35.4321 68.2418 35.4835C68.2418 35.535 68.1904 35.5864 68.1904 35.5864V35.6378C68.1904 35.6378 68.1903 35.6892 68.1389 35.7407C68.0875 35.7921 68.0875 35.8435 68.0875 35.895C68.0875 35.9464 68.0361 35.9978 68.0361 35.9978C68.0361 36.0492 68.0361 36.0492 67.9846 36.1007V36.1521V36.2035C67.9846 36.2035 67.9846 36.2549 67.9332 36.2549C67.9332 36.2549 67.9332 36.3064 67.8818 36.3064C67.8818 36.3064 67.8818 36.3578 67.8304 36.4092C67.7789 36.4606 67.8304 36.5121 67.7789 36.5121C67.7275 36.6149 67.7275 36.7692 67.7275 37.0263C67.7275 37.1292 67.7789 37.1806 67.8304 37.3349C67.8818 37.4891 67.9332 37.5406 67.9332 37.592C67.9332 37.592 67.9846 37.6434 67.9846 37.6948C67.9846 37.7463 68.0361 37.7463 68.0361 37.7463C68.0361 37.7463 68.0361 37.7977 68.0875 37.7977C68.0875 37.8491 68.1389 37.8491 68.1389 37.8491C68.1389 37.8491 68.1389 37.8491 68.1389 37.9005C68.1389 37.9005 68.1904 37.952 68.1904 38.0034C68.1904 38.0548 68.2418 38.1062 68.2932 38.1577C68.3446 38.2091 68.3446 38.2605 68.3446 38.2605L68.396 38.312C68.4475 38.3634 68.4475 38.3634 68.4475 38.3634C68.4475 38.3634 68.4475 38.3634 68.4989 38.4148C68.4989 38.4148 68.5503 38.4662 68.6017 38.5177C68.6532 38.5691 68.7046 38.6719 68.8075 38.7234C69.0132 38.9291 69.0646 38.9805 69.0646 39.0319C69.0646 39.0833 69.116 39.0833 69.116 39.1348L69.1674 39.1862C69.1674 39.1862 69.2189 39.2376 69.2189 39.289C69.2189 39.3405 69.2703 39.3405 69.2703 39.3919C69.2703 39.4433 69.3217 39.4433 69.3217 39.4947C69.3217 39.5462 69.3731 39.5462 69.3731 39.5976V39.649C69.3731 39.649 69.3731 39.7004 69.4246 39.7004C69.476 39.8033 69.5274 39.8547 69.5274 39.8547C69.5274 39.8547 69.5788 39.9576 69.6817 40.1118C69.6817 40.1633 69.7331 40.1633 69.7331 40.1633C69.7331 40.1633 69.7845 40.2147 69.7845 40.2661C69.7845 40.3176 69.836 40.3175 69.836 40.3175C69.836 40.3175 69.836 40.369 69.8874 40.369L69.9388 40.4204V40.4718C69.9388 40.4718 69.9902 40.5232 69.9902 40.5747C69.9902 40.5747 69.9902 40.6261 70.0417 40.6261V40.6775C70.0417 40.6775 70.0417 40.729 70.0931 40.729L70.1445 40.7804V40.8318V40.8832C70.1445 40.8832 70.1445 40.9347 70.1959 40.9347L70.2474 40.9861C70.2474 40.9861 70.2474 41.0375 70.2988 41.0375L70.3502 41.0889C70.3502 41.0889 70.5559 41.5003 70.5559 41.5518C70.5559 41.5518 70.5559 41.6032 70.6074 41.6032C70.6074 41.6032 70.6073 41.6546 70.6588 41.6546V41.706V41.7575C70.6588 41.7575 70.6588 41.7575 70.7102 41.8089C70.7102 41.9117 70.7616 41.9117 70.7616 41.9117V41.9632C70.7616 41.9632 70.813 42.1174 70.9159 42.2203C70.9673 42.3746 71.0188 42.4774 71.0702 42.4774C71.0702 42.4774 71.0702 42.4774 71.0702 42.5288C71.0702 42.5288 71.0702 42.5803 71.1216 42.6317C71.1216 42.6831 71.173 42.7346 71.2245 42.8374C71.3273 43.0945 71.3787 43.1974 71.4302 43.1974V43.2488L71.4816 43.3002L71.533 43.3517C71.533 43.4031 71.533 43.4031 71.5844 43.4545C71.5844 43.5059 71.5844 43.5059 71.6359 43.6088C71.6359 43.7116 71.6359 43.7631 71.5844 43.8145L71.533 43.8659C71.533 43.8659 71.533 43.9173 71.4816 43.9173C71.4302 44.0202 71.3787 44.2259 71.4816 44.2259C71.4816 44.2259 71.4816 44.2259 71.533 44.2259C71.533 44.2259 71.533 44.2259 71.5844 44.2259C71.5844 44.2259 71.5844 44.2259 71.6359 44.2259C71.6873 44.2773 71.9958 44.3802 72.253 44.3802C72.3044 44.3802 72.4072 44.3802 72.4587 44.4316C72.5615 44.4316 72.9215 44.483 72.9729 44.4316C73.0243 44.4316 73.0244 44.4316 73.0244 44.3287C73.0244 44.2773 73.0244 44.2259 73.0244 44.1745C73.0244 44.123 72.9729 44.123 72.9729 44.123C72.9729 44.123 72.9729 44.123 72.9215 44.0716C72.8701 44.0202 72.8701 44.0202 72.8701 44.0202C72.8701 44.0202 72.8701 44.0202 72.8701 43.9688C72.8701 43.9173 72.8701 43.9173 72.8701 43.9173C72.8701 43.9173 72.8187 43.8659 72.8187 43.8145C72.8187 43.7631 72.7672 43.7116 72.7672 43.6602C72.7672 43.6088 72.7158 43.6088 72.7158 43.5574C72.7158 43.5059 72.7158 43.5059 72.7158 43.5059C72.7158 43.5059 72.7158 43.4545 72.6644 43.4545C72.6644 43.4031 72.6129 43.3517 72.6129 43.3517V43.3002V43.2488C72.6129 43.1974 72.5101 42.9917 72.5101 42.8888C72.5101 42.8374 72.4587 42.786 72.4587 42.7345V42.6831C72.4587 42.6831 72.4587 42.6317 72.4587 42.5803C72.4587 42.5289 72.4587 42.5288 72.4587 42.4774C72.4587 42.4774 72.4587 42.426 72.4072 42.426L72.3558 42.3746C72.3558 42.3231 72.253 42.1689 72.253 42.1689C72.253 42.1689 72.2015 42.066 72.2015 41.9632L72.1501 41.9117C72.1501 41.9117 72.0987 41.8603 72.0987 41.8089V41.7575V41.706C72.0987 41.706 72.0473 41.6546 72.0473 41.6032C71.9958 41.4489 71.9444 41.3975 71.9444 41.3975C71.9444 41.3975 71.9444 41.3461 71.893 41.3461C71.893 41.2946 71.893 41.2946 71.8416 41.2946C71.8416 41.2946 71.8416 41.2946 71.7387 41.1404C71.6873 41.0889 71.6873 41.0375 71.6873 40.9861C71.6359 40.9347 71.6359 40.8832 71.6359 40.8318C71.6359 40.8318 71.4302 40.5233 71.4302 40.4718C71.4302 40.4718 71.4302 40.4204 71.3787 40.4204L71.3273 40.369V40.3175V40.2661C71.3273 40.2661 71.3273 40.2661 71.3273 40.2147L71.2759 40.1633C71.2759 40.1118 71.2245 40.1118 71.2245 40.0604C71.2245 40.0604 71.173 40.009 71.173 39.9576C71.173 39.9061 71.1216 39.9061 71.1216 39.8547C71.1216 39.8547 71.0702 39.8033 71.0702 39.7519C71.0702 39.7519 71.0702 39.7004 71.0188 39.7004L70.9673 39.649C70.9673 39.5976 70.9673 39.5976 70.9159 39.5976C70.9159 39.5976 70.8645 39.5462 70.8645 39.4947C70.8645 39.4433 70.8131 39.4433 70.8131 39.3919C70.8131 39.3919 70.8131 39.3405 70.7616 39.3405C70.7616 39.289 70.7102 39.289 70.7102 39.289C70.7102 39.289 70.7102 39.2376 70.6588 39.2376C70.6588 39.1862 70.6073 39.1348 70.5559 39.0833L70.5045 38.9805C70.4531 38.8776 70.4531 38.8776 70.3502 38.7234C70.2988 38.6719 70.2988 38.6205 70.2474 38.5691L70.1959 38.5177V38.4662L70.1445 38.4148C70.1445 38.4148 70.1445 38.3634 70.0931 38.3634V38.312V38.2605V38.2091V38.1577C70.0931 38.1577 70.0417 37.9005 69.9902 37.7977C69.9902 37.6948 69.9902 36.3578 69.9902 36.1007C70.0417 35.5864 70.0417 35.4321 70.0931 35.3807V35.2778C70.0931 35.2264 70.0931 35.175 70.1445 35.175V35.1236C70.1445 35.0721 70.1959 34.9693 70.1959 34.9179V34.8664V34.815C70.1959 34.815 70.1959 34.7636 70.2474 34.7122C70.2474 34.6607 70.2474 34.6607 70.2474 34.6607C70.2474 34.6607 70.2988 34.5579 70.3502 34.4036C70.3502 34.4036 70.3502 34.3522 70.4016 34.3008C70.4016 34.3008 70.4016 34.1979 70.4531 34.1465C70.4531 34.0951 70.5045 34.0436 70.5045 34.0436C70.5045 34.0436 70.5559 33.9922 70.5559 33.9408C70.5559 33.8894 70.6074 33.7865 70.6074 33.7865C70.6074 33.7351 70.6588 33.6836 70.6588 33.6836V33.6322V33.5808C70.6588 33.5808 70.6588 33.5294 70.7102 33.5294C70.7616 33.4779 70.7616 33.4265 70.8131 33.3751C70.8131 33.3237 70.8645 33.2722 70.8645 33.2722C70.9159 33.2722 70.9159 33.2208 70.9159 33.1694C70.9159 33.118 70.9159 33.118 70.9673 33.0665V33.0151C70.9673 33.0151 70.9673 32.9637 70.9673 32.9123C71.0188 32.8094 71.0702 32.5009 71.0702 32.398V32.2952H71.1216C71.173 32.2952 71.173 32.2952 71.2245 32.2437L71.2759 32.1923H71.3273C71.3273 32.1923 71.3787 32.1409 71.4302 32.1409C71.4816 32.1409 71.4816 32.0895 71.6359 32.038C71.6873 31.9866 71.7387 31.9866 71.7387 31.9866C71.7387 31.9866 71.7387 31.9866 71.7901 31.9866L71.8416 31.9352C71.8416 31.9352 71.893 31.9352 71.893 31.8838C71.9444 31.8838 72.0473 31.7809 72.0987 31.7809C72.0987 31.7809 72.1501 31.7809 72.2015 31.7809C72.253 31.7809 72.3044 31.7295 72.3044 31.7295C72.3558 31.7295 72.3558 31.7295 72.4072 31.678C72.4072 31.678 72.5101 31.6781 72.5615 31.6266C72.6129 31.6266 72.6644 31.6266 72.7158 31.6266C72.7672 31.6266 72.8701 31.6266 72.9729 31.6266C73.0758 31.6266 73.2301 31.6266 73.2815 31.6266C73.4872 31.6266 73.8986 31.5752 74.1043 31.6266C74.2071 31.6266 74.2586 31.6266 74.31 31.678C74.3614 31.678 74.5157 31.8838 74.5157 31.8838C74.5157 31.8838 74.5157 31.9352 74.5671 31.9866C74.6185 32.038 74.67 32.2437 74.67 32.3466C74.67 32.398 74.67 32.5009 74.67 32.5009C74.67 32.5523 74.67 32.6037 74.67 32.7066C74.67 32.758 74.67 32.8608 74.67 32.8608C74.7214 32.9123 74.7214 33.2208 74.7214 33.9408C74.7214 34.6607 74.7214 35.2264 74.67 35.4835C74.67 35.535 74.67 35.8435 74.67 36.1521C74.67 36.4606 74.67 36.7178 74.67 36.7178C74.67 36.7178 74.6185 36.872 74.6185 37.0263C74.6185 37.1292 74.6185 37.5406 74.6185 37.592C74.6185 37.6434 74.6185 37.6948 74.6185 37.7463C74.6185 37.7977 74.6185 37.9005 74.6185 37.9005C74.6185 37.952 74.6185 38.0034 74.6185 38.0034C74.6185 38.0548 74.6185 38.0548 74.67 38.1062L74.7214 38.2091C74.7214 38.2605 74.7214 38.3119 74.7728 38.3634C74.8242 38.4148 74.7728 38.4662 74.7728 38.5691C74.7728 38.6719 74.7728 38.7748 74.8242 38.8776C74.8757 39.1348 74.8757 39.4433 74.8757 39.9576C74.8757 40.2147 74.8757 40.5232 74.8757 40.6775C74.8757 40.8318 74.8757 41.0889 74.8757 41.2432C74.8757 41.5003 74.8757 41.5518 74.8757 41.6032C74.8757 41.6546 74.8242 41.6546 74.8242 41.6546C74.8242 41.6546 74.8242 41.706 74.7728 41.706C74.7728 41.7575 74.67 41.9117 74.6185 41.9117C74.6185 41.9117 74.5671 41.9117 74.5671 41.9632C74.4643 42.0146 74.3614 42.1174 74.3614 42.1174C74.3614 42.1174 74.31 42.1174 74.31 42.1689L74.2586 42.2203H74.2071C74.1557 42.2717 73.8986 42.3231 73.8472 42.3231C73.7957 42.3231 73.7957 42.3231 73.7443 42.3746C73.6929 42.426 73.6929 42.4774 73.6929 42.5803C73.6929 42.6831 73.6929 42.8888 73.7443 42.9403C73.7443 42.9403 73.7443 42.9917 73.7443 43.0431C73.7443 43.0431 73.7443 43.146 73.7957 43.146C73.7957 43.1974 73.8472 43.2488 73.8472 43.2488C73.8472 43.3002 73.8472 43.3002 73.8472 43.3002C73.8472 43.3002 73.8472 43.3002 73.8986 43.3517C73.8986 43.4031 73.8986 43.4031 73.95 43.4545C74.0014 43.5059 74.0014 43.5059 74.0529 43.6088C74.1557 43.7631 74.1557 43.7631 74.2071 43.8659C74.31 43.9688 74.31 43.9688 74.4128 43.9688C74.5157 43.9688 74.5671 43.9173 74.5671 43.8659V43.8145V43.7631C74.5671 43.6602 74.6185 43.5059 74.67 43.4031C74.67 43.3517 74.7214 43.3002 74.7214 43.3002V43.2488C74.7214 43.1974 74.7214 43.1974 74.7214 43.1974L74.7728 43.0945C74.8242 43.0945 74.8242 43.0945 74.8242 43.146C74.8242 43.1974 74.8242 43.2488 74.8242 43.2488C74.8242 43.3002 74.8757 43.3002 74.8757 43.3002C74.8757 43.3002 74.8757 43.3517 74.9271 43.4031C74.9271 43.4545 74.9785 43.5059 74.9785 43.5059V43.5574C74.9785 43.5574 75.0299 43.6602 75.0814 43.7116L75.1328 43.8145V43.9688C75.1328 44.0716 75.1328 44.123 75.0814 44.1745V44.2259C75.0814 44.2773 75.0814 44.2773 75.0299 44.3287C74.9785 44.3802 74.9785 44.4316 75.0299 44.483C75.0299 44.5344 75.1328 44.6373 75.1328 44.6373H75.1842C75.1842 44.6373 75.2357 44.6373 75.2357 44.6887H75.2871C75.2871 44.6887 75.3385 44.6887 75.3899 44.7402C75.4414 44.7402 75.5442 44.7916 75.5956 44.7916C75.6985 44.7916 75.7499 44.7916 76.1099 44.7916C76.4184 44.7916 76.5213 44.7916 76.5727 44.7916C76.5727 44.7916 76.6241 44.7916 76.6756 44.7402C76.727 44.7402 76.727 44.7401 76.727 44.6887C76.727 44.6373 76.727 44.5859 76.727 44.5344C76.727 44.483 76.6241 44.4316 76.6241 44.4316L76.5727 44.3802C76.4699 44.3287 76.3156 44.1745 76.3156 44.1745V44.123L76.2642 44.0716C76.2642 44.0716 76.2127 44.0202 76.2127 43.9688C76.2127 43.9173 76.1613 43.8659 76.1613 43.8659C76.1613 43.8145 76.1099 43.8145 76.1099 43.8145C76.1099 43.8145 76.1099 43.7631 76.0585 43.7116C76.0585 43.6602 76.007 43.6088 76.007 43.6088C75.9042 43.4545 75.9042 43.4545 75.9042 42.9917C75.9042 42.5803 75.9042 42.5289 75.8528 42.426C75.8528 42.3231 75.8013 42.2203 75.8013 42.1689C75.8013 42.1174 75.7499 42.066 75.7499 42.066V42.0146C75.7499 42.0146 75.7499 42.0146 75.7499 41.9632V41.9117V41.8603V41.8089C75.7499 41.7575 75.7499 41.6032 75.8528 41.5003C75.8528 41.4489 75.9042 41.3975 75.9042 41.3461C75.9556 41.1918 76.007 41.1404 76.0585 41.0375C76.1099 40.9861 76.1099 40.9347 76.1099 40.9347V40.8832C76.1099 40.8832 76.1099 40.8318 76.1613 40.8318C76.2127 40.729 76.2127 40.729 76.2642 40.6775L76.3156 40.6261C76.367 40.5747 76.367 40.5233 76.367 40.5233C76.367 40.5233 76.367 40.4718 76.4184 40.4718C76.4184 40.4204 76.4699 40.4204 76.4699 40.4204C76.4699 40.4204 76.4699 40.369 76.5213 40.369L76.5727 40.3175V40.2661C76.5727 40.2661 76.5727 40.2661 76.6241 40.2147C76.6241 40.1633 76.6756 40.1633 76.6756 40.1633C76.6756 40.1633 76.727 40.1118 76.7784 40.0604C76.8298 40.009 76.8298 39.9576 76.8813 39.9576C76.8813 39.9576 76.8813 39.9576 76.8813 39.9061C76.8813 39.9061 76.8813 39.9061 76.9327 39.8547L76.9841 39.8033V39.7519L77.0355 39.7004C77.087 39.649 77.087 39.5976 77.087 39.5976V39.5462C77.087 39.5462 77.087 39.5462 77.1384 39.4947C77.1384 39.4433 77.1898 39.4433 77.1898 39.4433V39.3919V39.3405C77.1898 39.3405 77.1898 39.289 77.2413 39.289L77.2927 39.2376C77.2927 39.2376 77.3955 39.0833 77.447 39.0319V38.9805C77.447 38.9805 77.4984 38.9291 77.5498 38.8776C77.6012 38.8262 77.6527 38.7748 77.6527 38.7234V38.6719C77.6527 38.6719 77.6527 38.6205 77.7041 38.6205C77.7555 38.6205 77.7555 38.5691 77.7555 38.5691C77.7555 38.5691 77.7555 38.5177 77.8069 38.5177C77.8583 38.5177 77.8584 38.4662 77.8584 38.4662C77.9098 38.4148 77.9098 38.4148 77.9612 38.312L78.0126 38.2605L78.0641 38.2091C78.1155 38.1577 78.1155 38.1577 78.1155 38.1062C78.1155 38.1062 78.1155 38.1063 78.1155 38.0548C78.1155 38.0548 78.2183 37.952 78.2183 37.9005C78.2183 37.9005 78.2183 37.9005 78.2698 37.8491L78.3212 37.7977C78.3212 37.7977 78.3726 37.7463 78.3726 37.6948C78.424 37.6434 78.424 37.6434 78.424 37.592C78.424 37.592 78.424 37.592 78.424 37.5406V37.4891C78.424 37.4891 78.4755 37.3863 78.5269 37.3349V37.2834C78.5269 37.2834 78.5269 37.232 78.5783 37.1806C78.5783 37.1292 78.6297 37.1292 78.6297 37.0777V37.0263C78.6812 36.9749 78.6812 36.7692 78.6812 36.5121C78.6812 36.2549 78.6812 36.1521 78.5783 35.895C78.5783 35.8435 78.5783 35.7921 78.5269 35.7921C78.5269 35.7407 78.4755 35.6892 78.4755 35.6892C78.4755 35.6378 78.4755 35.6378 78.4755 35.5864C78.4755 35.5864 78.4755 35.535 78.424 35.4835C78.424 35.4321 78.3726 35.4321 78.3726 35.3807C78.3726 35.3807 78.3726 35.3293 78.3212 35.2778C78.3212 35.2778 78.3212 35.2264 78.2698 35.175C78.2698 35.1236 78.2183 35.0721 78.2183 35.0721C78.2183 35.0721 78.2183 35.0207 78.1669 35.0207C78.1155 35.0207 78.1669 34.9693 78.1155 34.9179C78.1155 34.8664 78.0641 34.8664 78.0641 34.815C78.0641 34.7636 78.0641 34.7636 78.0641 34.7636C78.0641 34.7636 78.0641 34.7122 78.0126 34.7122C78.0126 34.6607 77.9612 34.5579 77.8584 34.3522C77.8584 34.3008 77.8069 34.2493 77.8069 34.2493C77.8069 34.2493 77.8069 34.1979 77.7555 34.1465C77.7555 34.0951 77.7555 34.0951 77.7555 34.0436V33.9922C77.7555 33.9408 77.7041 33.8894 77.7041 33.8379C77.7041 33.7865 77.6527 33.6836 77.6527 33.6836C77.6527 33.6322 77.6527 33.6322 77.6527 33.5808V33.5294V33.4779C77.6527 33.4779 77.6526 33.4265 77.6012 33.3751C77.6012 33.3237 77.5498 33.2722 77.5498 33.2722C77.5498 33.2722 77.5498 33.2208 77.5498 33.1694C77.5498 33.118 77.4984 33.0665 77.4984 33.0151C77.4984 32.9637 77.447 32.8608 77.447 32.8608C77.447 32.8094 77.3955 32.7066 77.3955 32.6037C77.3955 32.5523 77.3955 32.5009 77.3441 32.4494C77.3441 32.398 77.3441 32.3466 77.3441 32.3466V32.2952C77.3441 32.2952 77.3441 32.2437 77.2927 32.1923C77.2412 32.1409 77.2927 32.0895 77.2927 32.0895C77.2412 31.9866 77.2413 31.9352 77.2413 31.8323C77.2413 31.7809 77.2413 31.7295 77.1898 31.7295C77.1384 31.7295 77.1898 31.6781 77.1898 31.6266C77.1898 31.5752 77.1898 31.4723 77.1898 31.4209C77.1898 31.2152 77.1898 30.9067 77.2413 30.7524C77.2413 30.701 77.2413 30.701 77.2413 30.6495C77.2413 30.5981 77.2413 30.5981 77.2413 30.5981C77.2413 30.5981 77.2413 30.5981 77.2413 30.5467V30.4953C77.2413 30.4953 77.2412 30.4438 77.2927 30.4438C77.2927 30.3924 77.2927 30.3924 77.2927 30.341C77.2927 30.341 77.3441 30.2896 77.3441 30.2381C77.3955 30.1353 77.3955 30.0839 77.447 30.0324C77.447 29.981 77.4984 29.9296 77.4984 29.9296C77.4984 29.9296 77.4984 29.8782 77.5498 29.8782V29.8267C77.5498 29.8267 77.5498 29.8267 77.6012 29.7753C77.6012 29.7239 77.6527 29.6725 77.7041 29.5696C77.7041 29.5696 77.7555 29.5182 77.7555 29.4668C77.8069 29.4153 77.9098 29.3125 77.9098 29.261V29.2096L77.9612 29.1582C77.9612 29.1068 78.0126 29.1068 78.0126 29.1068C78.0126 29.1068 78.0126 29.1068 78.0126 29.0553V29.0039V28.9525V28.9011C78.0641 28.8496 78.0641 28.6439 78.0641 28.4382C78.0641 28.2325 78.0641 28.1297 77.9612 28.0268C77.9612 27.9754 77.9098 27.924 77.9098 27.924L77.8584 27.8726C77.8584 27.8726 77.8069 27.7183 77.7555 27.6669V27.6154V27.564C77.7555 27.564 77.7041 27.4612 77.6527 27.4097C77.6012 27.3069 77.5498 27.2555 77.5498 27.2555V27.204C77.5498 27.204 77.4984 27.1526 77.4984 27.1012C77.4984 27.0497 77.447 26.9983 77.447 26.9983C77.3441 26.844 77.3441 26.7926 77.3441 26.7926C77.3441 26.7926 77.3441 26.6898 77.3441 26.6383C77.3441 26.5869 77.447 26.5355 77.4984 26.4841C77.5498 26.4326 77.6527 26.3298 77.6527 26.2784C77.7041 26.2269 77.7555 26.1755 77.7555 26.1755C77.7555 26.1755 77.7555 26.1755 77.7555 26.1241C77.7555 26.1241 77.8069 26.0212 77.8584 25.9698C77.8584 25.9698 77.9098 25.9184 77.9098 25.867C77.9098 25.8155 77.9612 25.8155 77.9612 25.8155L78.0126 25.7641C78.0126 25.7641 78.0641 25.7127 78.0641 25.6613L78.1155 25.6098L78.1669 25.5584V25.507V25.4556C78.1669 25.4556 78.1669 25.4556 78.1669 25.4041L78.2183 25.3527L78.2698 25.3013C78.2698 25.3013 78.2698 25.2499 78.3212 25.1984C78.4755 24.9413 78.5783 24.8384 78.5783 24.787C78.5783 24.787 78.6297 24.7356 78.6297 24.6842C78.6812 24.6327 78.6812 24.5813 78.6812 24.5813C78.6812 24.5813 78.6812 24.5299 78.7326 24.5299C78.784 24.4785 78.784 24.427 78.8354 24.3756L78.8869 24.3242C78.8869 24.3242 78.8869 24.3242 78.8869 24.2728V24.2213C78.8869 24.2213 78.8869 24.2213 78.9383 24.1699C78.9383 24.1185 78.9897 24.1185 79.0926 23.9642C79.144 23.9128 79.144 23.8614 79.144 23.8099C79.144 23.7585 79.144 23.7585 79.1954 23.7585C79.2468 23.7585 79.2469 23.7071 79.2983 23.6042L79.3497 23.5528V23.5014V23.45V23.3985C79.3497 23.3985 79.3497 23.3985 79.3497 23.3471L79.4525 23.1414C79.4525 23.1414 79.4526 23.1414 79.504 23.09C79.504 23.0386 79.5554 23.0386 79.5554 23.0386C79.5554 23.0386 79.5554 22.9871 79.6068 22.9871C79.6068 22.9357 79.6068 22.9357 79.6068 22.9357C79.6068 22.9357 79.6068 22.9357 79.6582 22.8843L79.7097 22.8328C79.7097 22.8328 79.7097 22.8329 79.7097 22.7814V22.73V22.6786C79.7097 22.6786 79.7097 22.6271 79.7611 22.6271C79.8125 22.6271 79.8125 22.5757 79.8125 22.5757C79.8125 22.5757 79.8639 22.4729 79.9154 22.37C79.9154 22.37 79.9154 22.3186 79.9668 22.3186C79.9668 22.3186 79.9668 22.2672 80.0182 22.2672C80.0697 22.2672 80.0696 22.1643 80.1211 22.0615C80.1725 21.9586 80.1725 21.9072 80.1725 21.9072C80.1725 21.9072 80.1725 21.9072 80.1725 21.8558V21.8043C80.1725 21.8043 80.1725 21.7529 80.2239 21.7529L80.2754 21.7015V21.6501C80.2754 21.6501 80.2754 21.6501 80.2754 21.5986C80.2754 21.5986 80.3782 21.3929 80.3782 21.3415C80.3782 21.3415 80.4296 21.2387 80.4811 21.1872C80.4811 21.1872 80.4811 21.1358 80.5325 21.1358C80.5325 21.1358 80.5839 21.0844 80.5839 21.033C80.5839 21.033 80.5839 20.9815 80.6353 20.9815C80.6868 20.9815 80.6353 20.9815 80.6353 20.9301C80.6353 20.8787 80.6353 20.8787 80.6868 20.8787C80.6868 20.8787 80.6868 20.8787 80.6868 20.8273V20.7758V20.7244V20.673C80.6868 20.673 80.6868 20.6215 80.7382 20.6215C80.7382 20.6215 80.7896 20.5187 80.841 20.4158C80.8925 20.313 80.9439 20.2616 80.9439 20.2101C80.9439 20.2101 80.9439 20.1587 80.9953 20.1073C80.9953 20.0559 81.0467 20.0559 81.0467 20.0559C81.0467 20.0559 81.1496 19.8502 81.201 19.7987C81.201 19.7987 81.2524 19.7473 81.2524 19.6959C81.2524 19.6959 81.2524 19.6445 81.3039 19.6445C81.3553 19.5416 81.3553 19.4902 81.4067 19.4388C81.4067 19.4388 81.4067 19.3873 81.4581 19.3873V19.3359C81.4581 19.3359 81.4581 19.2845 81.5096 19.2331C81.561 19.0788 81.6638 18.9245 81.6638 18.8731C81.6638 18.8731 81.6638 18.8217 81.7153 18.8217C81.7153 18.8217 81.7667 18.7702 81.8181 18.5645C81.8696 18.4617 81.921 18.3074 81.9724 18.256C81.9724 18.256 81.9724 18.2045 82.0238 18.2045C82.0238 18.1531 82.0753 18.0503 82.0753 18.0503C82.0753 18.0503 82.0753 18.0503 82.0753 17.9988V17.9474C82.0753 17.896 82.1267 17.8446 82.1267 17.7931C82.1267 17.7931 82.1781 17.7417 82.1781 17.6903C82.1781 17.6389 82.2295 17.536 82.281 17.4846C82.3324 17.3303 82.3324 17.3303 82.3838 17.2789C82.3838 17.2789 82.4352 17.2275 82.4352 17.176C82.4352 17.1246 82.4867 17.1246 82.4867 17.1246C82.4867 17.1246 82.4867 17.0732 82.5381 17.0732L82.5895 17.0218V16.9703C82.6409 16.9189 82.6409 16.8161 82.6409 16.8161C82.6409 16.8161 82.6409 16.8161 82.6409 16.7646V16.7132C82.6409 16.7132 82.6409 16.7132 82.6409 16.6618C82.6409 16.6618 82.6409 16.6104 82.6924 16.6104L82.7438 16.5589L82.7952 16.5075C82.8466 16.4561 82.8466 16.4561 82.8466 16.4561L82.8981 16.4047L82.9495 16.3532C82.9495 16.3532 83.0009 16.3018 83.0523 16.3018C83.1038 16.3018 83.1038 16.2504 83.1552 16.2504H83.2066H83.258C83.3095 16.2504 83.3095 16.2504 83.3609 16.2504H83.4123H83.4637L83.5152 16.3018C83.5666 16.3018 83.5666 16.3532 83.5666 16.3532C83.5666 16.3532 83.7209 16.4047 83.7723 16.4047C83.8237 16.4047 83.8752 16.4047 83.8752 16.4561C83.9266 16.4561 83.9266 16.4561 83.978 16.4561C83.978 16.4561 84.0809 16.4561 84.1323 16.5075C84.2351 16.5075 84.2866 16.5589 84.698 16.5589H85.1608L85.2122 16.6104C85.3665 16.6618 85.4179 16.7132 85.4179 16.7132C85.4179 16.7132 85.4179 16.7132 85.4693 16.7132C85.4693 16.7132 85.5208 16.7646 85.5722 16.8161C85.5722 16.8161 85.6236 16.8675 85.675 16.8675C85.7265 16.8675 85.7265 16.9189 85.7265 16.9189C85.7265 16.9189 85.8293 16.9703 85.9836 16.9703C86.0865 16.9703 86.0864 16.9703 86.1379 16.9189C86.1893 16.8675 86.2921 16.8161 86.2921 16.7132C86.2921 16.6618 86.2922 16.6618 86.395 16.6104C86.4464 16.6104 86.4979 16.5589 86.4979 16.5589C86.5493 16.5589 86.6007 16.5075 86.6007 16.4561C86.6007 16.4561 86.6007 16.4047 86.6521 16.4047C86.7036 16.4047 86.6521 16.199 86.6007 16.0961L86.5493 16.0447C86.5493 16.0447 86.5493 15.9932 86.4979 15.9418C86.4464 15.8904 86.3436 15.7875 86.2407 15.6847C86.1893 15.6333 86.1893 15.6333 86.1379 15.6333C86.1379 15.6333 86.1379 15.6333 86.0864 15.5818H86.035C86.035 15.5818 85.9836 15.5304 85.9322 15.4276C85.8807 15.3247 85.8293 15.3247 85.8293 15.2733C85.8293 15.2733 85.7779 15.2219 85.7265 15.1704C85.675 15.119 85.6236 15.0676 85.6236 15.0676L85.5722 15.0162C85.5208 14.9647 85.5208 14.9133 85.4693 14.9133C85.4179 14.9133 85.4179 14.8619 85.4179 14.8619C85.3665 14.8105 85.0065 14.4505 85.0065 14.3991C85.0065 14.3991 85.0065 14.3991 84.9551 14.3991C84.9551 14.3991 84.9551 14.3991 84.9037 14.3991C84.9037 14.3991 84.8522 14.3476 84.8008 14.2962C84.698 14.1934 84.6465 14.1419 84.5951 13.9877C84.5951 13.9362 84.5951 13.8848 84.5951 13.6277C84.5951 13.3705 84.5951 13.3191 84.5951 13.3191C84.5951 13.3191 84.5951 13.3191 84.5951 13.2677C84.5951 13.2677 84.4408 13.2163 84.3894 13.2163C84.3894 13.2163 84.338 13.2163 84.2865 13.2163H84.2351H84.1837C84.0809 13.2677 84.0294 13.2677 83.978 13.2163C83.978 13.2163 83.978 13.1648 83.9266 13.1648C83.9266 13.1648 83.8237 13.0106 83.8237 12.9591C83.8237 12.9591 83.8237 12.9077 83.7723 12.8563C83.7723 12.8049 83.7209 12.7534 83.7209 12.2392C83.7209 11.8792 83.7209 11.6735 83.7209 11.6735C83.7209 11.6735 83.6694 11.6735 83.5666 11.6735C83.4637 11.6735 83.4123 11.6735 83.3609 11.7249C83.3095 11.7249 83.258 11.7763 83.2066 11.7763L83.1552 11.8278V11.9306C83.1552 12.0335 83.1552 12.0335 83.2066 12.0849L83.258 12.1363C83.258 12.1363 83.258 12.1363 83.3095 12.1878C83.4123 12.342 83.4123 12.6506 83.3095 12.8049C83.3095 12.8563 83.258 12.9077 83.258 12.9077C83.258 12.9591 83.2066 12.9591 83.1038 12.8563L83.0523 12.8049L83.0009 12.7534C83.0009 12.7534 83.0009 12.702 82.9495 12.6506C82.9495 12.5992 82.8981 12.5477 82.8981 12.4963C82.8981 12.4449 82.8466 12.3935 82.8466 12.3935C82.8466 12.342 82.7438 12.1363 82.7438 12.1363V12.0849V12.0335C82.6924 11.8792 82.6924 11.8792 82.6924 11.7763C82.6924 11.6735 82.6409 11.6735 82.5895 11.6221C82.6924 12.1363 82.6409 12.1363 82.6409 12.1363ZM75.9042 33.9922L75.9556 34.0436V34.0951V34.1465V34.1979L76.007 34.2493C76.007 34.2493 76.0585 34.4036 76.1099 34.455L76.1613 34.5065V34.5579C76.1613 34.6093 76.2127 34.6093 76.2127 34.6093C76.2127 34.6093 76.2127 34.6607 76.2642 34.7122C76.3156 34.7636 76.3156 34.815 76.367 34.8664V34.9179C76.367 34.9179 76.4184 34.9693 76.4184 35.0207C76.4184 35.0721 76.4699 35.1236 76.4699 35.1236C76.5213 35.2264 76.6241 35.3807 76.6241 35.4321C76.6241 35.4321 76.6241 35.4835 76.6756 35.4835V35.535V35.5864V35.6378V35.6892C76.6756 35.6892 76.6756 35.6892 76.6756 35.7407C76.6756 35.7407 76.727 35.8435 76.7784 35.9464C76.8298 36.0492 76.8813 36.1521 76.8813 36.2035C76.8813 36.2549 76.9327 36.2549 76.9327 36.3064C76.9327 36.3578 76.9327 36.3578 76.9327 36.3578V36.4092C76.9327 36.4606 77.0355 36.7178 77.0355 36.7178V36.7692C77.0355 36.8206 77.0355 36.8206 77.0355 36.8206C77.0355 36.8206 77.0355 36.872 77.087 36.9235C77.1384 37.0263 77.1384 37.0263 77.1384 37.2834C77.1384 37.5406 77.1384 37.592 77.087 37.6434C77.087 37.6948 77.0355 37.7463 77.0355 37.7463V37.7977C77.0355 37.7977 77.0356 37.8491 76.9841 37.8491V37.9005L76.8813 38.1062C76.8813 38.1062 76.8813 38.1577 76.8298 38.1577C76.7784 38.2091 76.727 38.2605 76.727 38.2605C76.727 38.2605 76.727 38.2605 76.6756 38.312L76.6241 38.3634C76.6241 38.3634 76.5727 38.4148 76.5727 38.4662L76.5213 38.5177C76.5213 38.5177 76.5213 38.5691 76.4699 38.5691C76.4699 38.6205 76.4184 38.6205 76.4184 38.6719C76.4184 38.6719 76.4184 38.7234 76.367 38.7234C76.367 38.7748 76.2642 38.8776 76.2642 38.8776C76.2642 38.8776 76.2642 38.8776 76.2127 38.9291L76.1613 38.9805C76.1613 38.9805 76.1613 38.9805 76.1099 39.0319C76.1099 39.0833 76.0585 39.0833 76.0585 39.0833C76.0585 39.0833 76.007 39.0833 76.007 39.1348C76.007 39.1348 76.007 39.1862 75.9556 39.2376C75.9042 39.289 75.9042 39.3405 75.9042 39.3405C75.9042 39.3919 75.8528 39.3919 75.8528 39.4433C75.8528 39.4947 75.8013 39.4947 75.8013 39.4947C75.8013 39.4947 75.8013 39.4947 75.8013 39.5462V39.5976C75.8013 39.5976 75.8013 39.649 75.7499 39.649C75.6985 39.7004 75.6471 39.7519 75.6471 39.8033C75.6471 39.8547 75.6471 39.8547 75.5956 39.8547C75.5956 39.8547 75.5442 39.8547 75.5442 39.9061C75.5442 39.9576 75.4928 39.9576 75.4928 40.009L75.4414 40.0604C75.4414 40.0604 75.4414 40.0604 75.4414 40.1118C75.4414 40.1118 75.3899 40.1118 75.3899 40.1633C75.3385 40.2661 75.3385 40.2661 75.2871 40.369C75.2356 40.4204 75.2357 40.4718 75.2357 40.4718C75.2357 40.4718 75.2357 40.5233 75.1842 40.5233L75.1328 40.5747C75.1328 40.5747 75.1328 40.6261 75.0814 40.6261C75.0299 40.6775 75.0299 40.6775 75.0299 40.6261C75.0299 40.6261 75.0299 40.5232 75.0299 39.649C75.0299 38.8262 75.0299 38.6719 75.0814 38.6719C75.0814 38.6719 75.0814 38.6205 75.1328 38.5691C75.1328 38.5177 75.1328 38.4662 75.1842 38.4148C75.1842 38.3634 75.2357 38.312 75.2357 38.312C75.2357 38.2605 75.2356 38.2605 75.2871 38.2091C75.3385 38.0548 75.3899 37.9005 75.3899 37.8491C75.3899 37.8491 75.3899 37.7463 75.4414 37.6948C75.4928 37.5406 75.4928 37.1806 75.4414 37.1292C75.4414 37.1292 75.4414 36.9749 75.4414 36.5635C75.4928 35.175 75.4928 35.175 75.5442 34.5065C75.5442 34.455 75.5442 34.3522 75.5442 34.3522C75.5442 34.3522 75.5442 34.3008 75.5442 34.2493C75.5442 34.1979 75.5442 34.1465 75.5956 34.1465V34.0951C75.8528 34.0951 75.8528 34.0436 75.9042 33.9922Z" fill="white"/>
</svg>
