<svg width="26" height="26" viewBox="0 0 26 26" fill="none" xmlns="http://www.w3.org/2000/svg">
<mask id="mask0_20_184" style="mask-type:alpha" maskUnits="userSpaceOnUse" x="0" y="0" width="26" height="26">
<rect x="0.5" width="25" height="25.8065" fill="#D9D9D9"/>
</mask>
<g mask="url(#mask0_20_184)">
<path d="M13 13C11.9 13 10.9583 12.6083 10.175 11.825C9.39167 11.0417 9 10.1 9 9C9 7.9 9.39167 6.95833 10.175 6.175C10.9583 5.39167 11.9 5 13 5C14.1 5 15.0417 5.39167 15.825 6.175C16.6083 6.95833 17 7.9 17 9C17 10.1 16.6083 11.0417 15.825 11.825C15.0417 12.6083 14.1 13 13 13ZM5 21V18.2C5 17.6333 5.14583 17.1125 5.4375 16.6375C5.72917 16.1625 6.11667 15.8 6.6 15.55C7.63333 15.0333 8.68333 14.6458 9.75 14.3875C10.8167 14.1292 11.9 14 13 14C14.1 14 15.1833 14.1292 16.25 14.3875C17.3167 14.6458 18.3667 15.0333 19.4 15.55C19.8833 15.8 20.2708 16.1625 20.5625 16.6375C20.8542 17.1125 21 17.6333 21 18.2V21H5ZM7 19H19V18.2C19 18.0167 18.9542 17.85 18.8625 17.7C18.7708 17.55 18.65 17.4333 18.5 17.35C17.6 16.9 16.6917 16.5625 15.775 16.3375C14.8583 16.1125 13.9333 16 13 16C12.0667 16 11.1417 16.1125 10.225 16.3375C9.30833 16.5625 8.4 16.9 7.5 17.35C7.35 17.4333 7.22917 17.55 7.1375 17.7C7.04583 17.85 7 18.0167 7 18.2V19ZM13 11C13.55 11 14.0208 10.8042 14.4125 10.4125C14.8042 10.0208 15 9.55 15 9C15 8.45 14.8042 7.97917 14.4125 7.5875C14.0208 7.19583 13.55 7 13 7C12.45 7 11.9792 7.19583 11.5875 7.5875C11.1958 7.97917 11 8.45 11 9C11 9.55 11.1958 10.0208 11.5875 10.4125C11.9792 10.8042 12.45 11 13 11Z" fill="#005C98"/>
</g>
</svg>
