<svg width="60" height="60" viewBox="0 0 60 60" fill="none" xmlns="http://www.w3.org/2000/svg">
<path d="M38.611 22.2311L19.585 37.3511C19.207 37.6661 19.081 38.2961 19.459 38.6741C19.648 38.9261 19.9 39.0521 20.215 39.0521C20.404 39.0521 20.656 38.9891 20.782 38.8631L39.808 23.7431C40.186 23.4281 40.312 22.7981 39.934 22.4201C39.619 21.9791 39.052 21.9161 38.611 22.2311Z" fill="black" stroke="black"/>
<path d="M24.688 28.972C24.94 28.972 25.192 28.972 25.444 28.909C28.027 28.531 29.854 26.074 29.413 23.428C29.224 22.168 28.531 21.034 27.523 20.278C26.515 19.522 25.255 19.207 23.995 19.396C22.735 19.585 21.601 20.278 20.845 21.286C20.089 22.294 19.774 23.554 19.963 24.814C20.341 27.271 22.42 28.972 24.688 28.972ZM24.247 21.349C24.373 21.349 24.562 21.286 24.688 21.286C26.074 21.286 27.334 22.294 27.523 23.743C27.775 25.318 26.704 26.767 25.129 27.019C23.554 27.271 22.105 26.2 21.853 24.625C21.601 23.05 22.735 21.601 24.247 21.349Z" fill="black" stroke="black"/>
<path d="M34.768 32.1219C32.122 32.1219 29.98 34.2639 29.98 36.9099C29.98 39.5559 32.122 41.6979 34.768 41.6979C37.414 41.6979 39.556 39.5559 39.556 36.9099C39.493 34.2639 37.351 32.1219 34.768 32.1219ZM34.768 39.7449C33.193 39.7449 31.87 38.4219 31.87 36.8469C31.87 35.2719 33.193 33.9489 34.768 33.9489C36.343 33.9489 37.666 35.2719 37.666 36.8469C37.603 38.4849 36.343 39.7449 34.768 39.7449Z" fill="black" stroke="black"/>
<path d="M58.33 29.917C58.33 29.854 58.393 29.728 58.393 29.665C58.393 26.956 55.558 25.57 53.101 24.373C51.337 23.491 49.447 22.546 48.943 21.412C48.439 20.215 49.132 18.262 49.825 16.435C50.77 13.852 51.715 11.206 49.951 9.442C48.187 7.678 45.667 8.308 43.147 8.875C41.383 9.253 39.556 9.694 38.359 9.19C37.162 8.686 36.154 7.111 35.209 5.599C33.823 3.457 32.311 1 29.665 1C27.019 1 25.507 3.457 24.184 5.662C23.239 7.237 22.294 8.812 21.097 9.316C19.9 9.82 18.01 9.379 16.246 8.938C13.726 8.308 11.143 7.678 9.442 9.379C7.678 11.143 8.56 13.789 9.379 16.372C10.009 18.262 10.576 20.152 10.072 21.412C9.568 22.609 7.804 23.491 6.103 24.373C3.709 25.633 1 27.019 1 29.665C1 29.728 1 29.854 1.063 29.917C1.063 29.98 1 30.106 1 30.169C1 32.815 3.709 34.264 6.103 35.461C7.804 36.343 9.568 37.225 10.072 38.422C10.576 39.619 9.946 41.572 9.379 43.462C8.56 46.045 7.678 48.691 9.442 50.455C11.206 52.219 13.789 51.526 16.246 50.896C18.01 50.455 19.9 50.014 21.097 50.518C22.294 51.022 23.239 52.597 24.184 54.172C25.507 56.377 27.019 58.834 29.665 58.834C32.311 58.834 33.886 56.377 35.209 54.235C36.154 52.723 37.162 51.148 38.359 50.644C39.619 50.14 41.383 50.518 43.147 50.959C45.604 51.526 48.187 52.156 49.951 50.392C51.715 48.628 50.77 45.982 49.825 43.399C49.132 41.509 48.439 39.619 48.943 38.422C49.447 37.225 51.274 36.343 53.101 35.461C55.558 34.201 58.393 32.815 58.393 30.169C58.393 30.043 58.33 29.98 58.33 29.917ZM52.219 33.76C50.14 34.831 47.935 35.902 47.179 37.729C46.36 39.619 47.242 41.887 47.998 44.092C48.754 46.171 49.51 48.187 48.565 49.069C47.557 50.077 45.604 49.636 43.525 49.132C41.446 48.628 39.367 48.187 37.54 48.943C35.776 49.699 34.642 51.463 33.571 53.227C32.374 55.117 31.24 56.944 29.602 56.944C28.027 56.944 26.893 55.117 25.696 53.164C24.625 51.337 23.491 49.51 21.727 48.754C19.9 47.998 17.758 48.502 15.679 49.069C13.6 49.573 11.647 50.077 10.639 49.132C9.694 48.187 10.324 46.171 11.017 44.092C11.71 41.887 12.466 39.619 11.647 37.792C10.891 35.965 8.812 34.894 6.796 33.886C4.717 32.815 2.764 31.807 2.764 30.232C2.764 30.169 2.764 30.043 2.701 29.98C2.701 29.917 2.764 29.791 2.764 29.728C2.764 28.216 4.717 27.208 6.796 26.074C8.812 25.066 10.891 23.995 11.647 22.168C12.403 20.278 11.71 18.01 11.017 15.868C10.324 13.726 9.694 11.71 10.639 10.828C11.647 9.82 13.6 10.324 15.679 10.891C17.758 11.395 19.9 11.962 21.727 11.206C23.491 10.45 24.625 8.623 25.696 6.796C26.893 4.843 27.964 3.016 29.602 3.016C31.24 3.016 32.374 4.843 33.571 6.733C34.705 8.497 35.839 10.261 37.54 11.017C39.367 11.773 41.446 11.269 43.525 10.828C45.604 10.324 47.557 9.883 48.565 10.891C49.51 11.773 48.754 13.789 47.998 15.868C47.179 18.073 46.36 20.341 47.179 22.231C47.935 24.058 50.14 25.129 52.219 26.2C54.424 27.271 56.44 28.342 56.44 29.854C56.44 29.917 56.44 30.043 56.503 30.106C56.503 30.169 56.44 30.295 56.44 30.358C56.503 31.618 54.424 32.689 52.219 33.76Z" fill="black" stroke="black" stroke-width="2"/>
</svg>
