<svg width="45" height="37" viewBox="0 0 45 37" fill="none" xmlns="http://www.w3.org/2000/svg">
<path d="M4.10946 9.39523C8.47748 5.64421 11.928 2.6787 21.289 7.96822C25.7861 10.5087 29.4136 11.4677 32.4336 11.4672C37.7211 11.4672 41.1466 8.52573 44.1097 5.97971C45.1662 5.07271 45.3022 3.4622 44.4132 2.3827C43.5242 1.30319 41.9471 1.16369 40.8906 2.07219C36.5231 5.82471 33.0731 8.78923 23.7091 3.4987C11.3395 -3.48883 5.54596 1.48869 0.890442 5.48721C-0.165563 6.39472 -0.302064 8.00522 0.58694 9.08473C1.47544 10.1637 3.05245 10.3032 4.10946 9.39523ZM40.8906 14.8393C36.5231 18.5908 33.0731 21.5558 23.7091 16.2658C11.3395 9.27773 5.54596 14.2553 0.890442 18.2543C-0.165563 19.1623 -0.302064 20.7728 0.58694 21.8508C1.47544 22.9303 3.05295 23.0698 4.10946 22.1618C8.47748 18.4103 11.928 15.4453 21.289 20.7343C25.7861 23.2748 29.4136 24.2343 32.4336 24.2343C37.7211 24.2343 41.1466 21.2923 44.1097 18.7468C45.1662 17.8388 45.3022 16.2283 44.4132 15.1498C43.5247 14.0693 41.9476 13.9308 40.8906 14.8393ZM40.8906 27.6048C36.5231 31.3568 33.0731 34.3214 23.7091 29.0318C11.3395 22.0438 5.54596 27.0213 0.890442 31.0203C-0.165563 31.9278 -0.302064 33.5389 0.58694 34.6184C1.47544 35.6964 3.05295 35.8364 4.10946 34.9284C8.47748 31.1758 11.9275 28.2123 21.289 33.5004C25.7861 36.0419 29.4136 37.0004 32.4336 37.0004C37.7211 37.0004 41.1466 34.0584 44.1097 31.5133C45.1662 30.6058 45.3022 28.9943 44.4132 27.9153C43.5242 26.8363 41.9476 26.6978 40.8906 27.6048Z" fill="#030104"/>
</svg>
