<svg width="92" height="55" viewBox="0 0 92 55" fill="none" xmlns="http://www.w3.org/2000/svg">
<path d="M13.3604 54.1064C12.8648 54.1064 12.2688 54.0461 11.5723 53.9255V48.0589H8.01613V53.9255C7.30624 54.0461 6.7169 54.1064 6.24811 54.1064C5.75252 54.1064 5.15648 54.0461 4.45999 53.9255V39.5804C4.82163 39.5268 5.14979 39.4867 5.44446 39.4599C5.73913 39.4331 6.00031 39.4197 6.22801 39.4197C6.46911 39.4197 6.73699 39.4331 7.03166 39.4599C7.33973 39.4867 7.66788 39.5268 8.01613 39.5804V44.9046H11.5723V39.5804C11.9339 39.5268 12.2554 39.4867 12.5367 39.4599C12.8313 39.4331 13.0992 39.4197 13.3403 39.4197C13.5814 39.4197 13.8493 39.4331 14.144 39.4599C14.452 39.4867 14.7802 39.5268 15.1284 39.5804V53.9255C14.4185 54.0461 13.8292 54.1064 13.3604 54.1064ZM17.165 46.8132C17.165 45.7417 17.2856 44.7506 17.5266 43.8398C17.7811 42.9156 18.1629 42.1186 18.6718 41.4489C19.1942 40.7792 19.8505 40.2568 20.6408 39.8818C21.4444 39.4934 22.3954 39.2991 23.4937 39.2991C24.5921 39.2991 25.5363 39.4934 26.3266 39.8818C27.1169 40.2568 27.7665 40.7792 28.2754 41.4489C28.7978 42.1186 29.1795 42.9156 29.4206 43.8398C29.6751 44.7506 29.8024 45.7417 29.8024 46.8132C29.8024 47.8848 29.6751 48.8759 29.4206 49.7867C29.1795 50.6842 28.7978 51.4677 28.2754 52.1374C27.7665 52.7937 27.1169 53.3094 26.3266 53.6844C25.5363 54.0461 24.5921 54.2269 23.4937 54.2269C22.3954 54.2269 21.4444 54.0461 20.6408 53.6844C19.8505 53.3094 19.1942 52.7937 18.6718 52.1374C18.1629 51.4677 17.7811 50.6842 17.5266 49.7867C17.2856 48.8759 17.165 47.8848 17.165 46.8132ZM26.0654 46.8132C26.0654 43.8933 25.2149 42.4334 23.5138 42.4334C21.7726 42.4334 20.902 43.8933 20.902 46.8132C20.902 48.2732 21.1096 49.3648 21.5248 50.0881C21.9534 50.798 22.6097 51.1529 23.4937 51.1529C25.2082 51.1529 26.0654 49.7064 26.0654 46.8132ZM31.8303 39.5804C32.4866 39.5134 33.0894 39.4532 33.6385 39.3996C34.2011 39.3326 34.7904 39.2991 35.4066 39.2991C36.1432 39.2991 36.8799 39.3728 37.6166 39.5201C38.3533 39.6541 39.0096 39.8952 39.5855 40.2434C40.1615 40.5917 40.6303 41.0672 40.9919 41.6699C41.3536 42.2726 41.5344 43.0361 41.5344 43.9603C41.5344 44.4559 41.4741 44.9046 41.3536 45.3064C41.2464 45.6948 41.0991 46.0431 40.9116 46.3512C40.7374 46.6592 40.5365 46.9271 40.3088 47.1548C40.0945 47.3825 39.8802 47.5767 39.6659 47.7374L42.8001 53.9255C42.4787 53.9791 42.1237 54.0193 41.7353 54.0461C41.3603 54.0729 41.0187 54.0863 40.7106 54.0863C40.4428 54.0863 40.128 54.0729 39.7664 54.0461C39.4181 54.0193 39.11 53.9791 38.8422 53.9255L35.9892 47.3557L36.17 47.2553C36.3308 47.1749 36.5049 47.0409 36.6924 46.8534C36.8933 46.6659 37.0741 46.4449 37.2349 46.1904C37.409 45.9225 37.5496 45.6279 37.6568 45.3064C37.7773 44.9849 37.8376 44.6501 37.8376 44.3018C37.8376 43.6321 37.6501 43.1433 37.275 42.8352C36.9 42.5271 36.4379 42.3731 35.8888 42.3731C35.7548 42.3731 35.641 42.3798 35.5472 42.3932C35.4534 42.4066 35.3932 42.42 35.3664 42.4334V53.9255C34.6565 54.0461 34.0738 54.1064 33.6184 54.1064C33.1229 54.1064 32.5268 54.0461 31.8303 53.9255V39.5804ZM45.9989 54.1064C45.5033 54.1064 44.9072 54.0461 44.2108 53.9255V39.5804C44.5724 39.5268 44.9005 39.4867 45.1952 39.4599C45.4899 39.4331 45.7511 39.4197 45.9788 39.4197C46.2199 39.4197 46.4878 39.4331 46.7824 39.4599C47.0905 39.4867 47.4186 39.5268 47.7669 39.5804V53.9255C47.057 54.0461 46.4677 54.1064 45.9989 54.1064ZM59.5981 52.3986C59.5981 52.8942 59.5378 53.4233 59.4173 53.9858H49.7333L49.3717 53.4433L54.9168 42.6745H49.9945C49.9275 42.3798 49.8807 42.1052 49.8539 41.8507C49.8405 41.5962 49.8338 41.3551 49.8338 41.1274C49.8338 40.8997 49.8405 40.6519 49.8539 40.3841C49.8807 40.1162 49.9275 39.8349 49.9945 39.5402H59.7789L60.0803 40.1229L54.5753 50.8717H59.4173C59.5378 51.4342 59.5981 51.9432 59.5981 52.3986ZM60.1924 46.8132C60.1924 45.7417 60.3129 44.7506 60.554 43.8398C60.8085 42.9156 61.1902 42.1186 61.6992 41.4489C62.2216 40.7792 62.8779 40.2568 63.6681 39.8818C64.4718 39.4934 65.4228 39.2991 66.5211 39.2991C67.6194 39.2991 68.5637 39.4934 69.354 39.8818C70.1442 40.2568 70.7938 40.7792 71.3028 41.4489C71.8252 42.1186 72.2069 42.9156 72.448 43.8398C72.7025 44.7506 72.8297 45.7417 72.8297 46.8132C72.8297 47.8848 72.7025 48.8759 72.448 49.7867C72.2069 50.6842 71.8252 51.4677 71.3028 52.1374C70.7938 52.7937 70.1442 53.3094 69.354 53.6844C68.5637 54.0461 67.6194 54.2269 66.5211 54.2269C65.4228 54.2269 64.4718 54.0461 63.6681 53.6844C62.8779 53.3094 62.2216 52.7937 61.6992 52.1374C61.1902 51.4677 60.8085 50.6842 60.554 49.7867C60.3129 48.8759 60.1924 47.8848 60.1924 46.8132ZM69.0928 46.8132C69.0928 43.8933 68.2422 42.4334 66.5412 42.4334C64.7999 42.4334 63.9293 43.8933 63.9293 46.8132C63.9293 48.2732 64.1369 49.3648 64.5522 50.0881C64.9808 50.798 65.6371 51.1529 66.5211 51.1529C68.2355 51.1529 69.0928 49.7064 69.0928 46.8132ZM74.8577 39.5804C75.1524 39.5268 75.4202 39.4867 75.6613 39.4599C75.9024 39.4331 76.1368 39.4197 76.3645 39.4197C76.6056 39.4197 76.8534 39.4398 77.1079 39.48C77.3758 39.5067 77.6035 39.5402 77.791 39.5804L82.4522 47.4562V39.5804C82.8004 39.5268 83.1152 39.4867 83.3964 39.4599C83.6777 39.4331 83.9322 39.4197 84.1599 39.4197C84.3876 39.4197 84.6287 39.4331 84.8832 39.4599C85.1377 39.4867 85.4056 39.5268 85.6868 39.5804L85.6668 53.9255C85.5328 53.9657 85.3386 54.0059 85.0841 54.0461C84.8296 54.0863 84.555 54.1064 84.2604 54.1064C83.9255 54.1064 83.6241 54.0796 83.3563 54.026C83.0884 53.9858 82.8942 53.9523 82.7736 53.9255L78.0924 46.09V53.9255C77.503 54.0461 76.9673 54.1064 76.4851 54.1064C76.0029 54.1064 75.4604 54.0461 74.8577 53.9255V39.5804Z" fill="black"/>
<path d="M91.0909 37.2335H0.93975C0.421268 37.2335 0 36.8122 0 36.2938C0 35.7753 0.421268 35.354 0.93975 35.354H91.0585C91.577 35.354 91.9983 35.7753 91.9983 36.2938C92.0307 36.8122 91.6094 37.2335 91.0909 37.2335Z" fill="black"/>
<path d="M9.72159 32.5672H34.0255V1.81468C19.8644 6.25419 9.72159 18.3413 9.72159 32.5672Z" fill="#ED6D6B"/>
<path d="M34.0255 32.5672H58.3293V1.9119C54.4731 0.680506 50.3253 0 46.0154 0C41.8027 0 37.7845 0.6481 34.0255 1.81469V32.5672Z" fill="#EFC81E"/>
<path d="M58.3293 1.9119V32.632H82.4712C82.4712 18.4709 72.3932 6.41621 58.3293 1.9119Z" fill="#005C98"/>
<path fill-rule="evenodd" clip-rule="evenodd" d="M62.8337 13.8684C62.8013 13.8684 62.6717 13.9008 62.5745 13.9332C62.4773 13.9656 62.3476 13.998 62.3152 13.998C62.2828 13.998 62.218 14.0304 62.1532 14.0628C62.0884 14.0952 62.0236 14.1276 62.0236 14.1276C61.9912 14.1276 61.9588 14.16 61.9588 14.16C61.9588 14.16 61.9264 14.16 61.9264 14.1924C61.9264 14.1924 61.894 14.2248 61.8616 14.2248C61.8292 14.2572 61.7643 14.322 61.7643 14.3544C61.7643 14.3868 61.7968 14.3868 61.8292 14.4192C61.8616 14.4192 61.894 14.4516 61.9264 14.4516C61.9588 14.4516 61.9912 14.4516 61.9912 14.4516C61.9912 14.4516 62.056 14.4516 62.0884 14.4516C62.1532 14.4516 62.218 14.4517 62.2828 14.4841C62.3152 14.4841 62.3152 14.4841 62.3476 14.4841C62.3476 14.4841 62.4773 14.5165 62.5097 14.5165C62.7689 14.6137 62.9957 14.7109 63.0605 14.8405C63.093 14.8729 63.093 14.8729 63.093 14.9053C63.1254 14.9377 63.1902 15.0349 63.1902 15.0349C63.1902 15.0349 63.1902 15.0673 63.2226 15.0998C63.2226 15.1322 63.255 15.1322 63.255 15.1646C63.2874 15.2294 63.3522 15.4562 63.3522 15.4886C63.3846 15.6506 63.3846 15.7479 63.3846 15.7803C63.3846 15.8127 63.3846 15.8451 63.3846 15.8775C63.3846 15.9423 63.3522 16.1043 63.2874 16.2663C63.255 16.3312 63.2226 16.4284 63.1902 16.4932C63.1578 16.5256 63.1578 16.5904 63.1254 16.6228C63.093 16.6552 63.0606 16.7524 62.9957 16.8496C62.8337 17.1089 62.8337 17.1089 62.8013 17.2385C62.8013 17.2385 62.7689 17.2709 62.7689 17.3033C62.7689 17.3357 62.7365 17.3681 62.7041 17.4005C62.6717 17.4329 62.6393 17.4977 62.6393 17.5625C62.6069 17.6274 62.6069 17.6598 62.5745 17.6922C62.5745 17.7246 62.5421 17.757 62.5421 17.7894C62.5421 17.8218 62.5097 17.8866 62.5097 17.919C62.5097 17.9514 62.4773 17.9838 62.4773 18.0162C62.4773 18.0486 62.4449 18.081 62.4449 18.1134C62.4449 18.1458 62.4124 18.2107 62.4124 18.2107C62.4124 18.2431 62.38 18.2755 62.3152 18.5995C62.2504 18.8263 62.2504 18.8588 62.2504 18.8588V18.8912C62.2504 18.8912 62.2504 18.956 62.218 19.0208C62.218 19.0856 62.1856 19.118 62.1856 19.1504C62.1856 19.1828 62.1856 19.2152 62.1856 19.2476C62.1856 19.28 62.1856 19.3448 62.1532 19.3772C62.1532 19.4096 62.1532 19.4745 62.1532 19.5069C62.1532 19.5393 62.1532 19.5717 62.1532 19.5717C62.1532 19.5717 62.1532 19.6041 62.1532 19.6365C62.1532 19.6689 62.1532 19.7013 62.1532 19.7013C62.1532 19.7013 62.1532 19.7661 62.1532 19.7985C62.1532 19.8309 62.1532 19.8957 62.1532 19.9281C62.1532 19.9605 62.1532 20.0253 62.1532 20.155C62.1532 20.1874 62.1532 20.2198 62.1532 20.2846C62.1532 20.3494 62.1532 20.3494 62.1532 20.3818C62.1532 20.4142 62.1532 20.4466 62.1532 20.479C62.1532 20.5114 62.1532 20.5762 62.1532 20.6086C62.1532 20.641 62.1532 20.7058 62.1532 20.7058C62.1532 20.7383 62.1532 20.8031 62.1532 20.8679C62.1532 20.9327 62.1532 21.0299 62.1532 21.0623C62.1532 21.0947 62.1532 21.1919 62.1532 21.2243C62.1532 21.2891 62.1856 21.3539 62.1856 21.4188C62.1856 21.7104 62.4125 22.6826 62.5421 23.039C62.5421 23.0714 62.5745 23.1686 62.6069 23.2335C62.6393 23.2983 62.6393 23.3955 62.6717 23.3955C62.6717 23.3955 62.7041 23.4603 62.7041 23.5251C62.7041 23.5899 62.7365 23.6223 62.7689 23.6547C62.8013 23.7519 62.8337 23.7843 62.8337 23.8491C62.8337 23.8816 62.8661 23.914 62.8661 23.9464C62.8661 23.9788 62.8985 24.0112 62.8985 24.0436C62.8985 24.076 62.9309 24.1408 62.9309 24.1408C62.9309 24.1732 62.9633 24.2056 62.9633 24.238C62.9633 24.2704 62.9957 24.3028 62.9957 24.3352C62.9957 24.3676 63.0282 24.3676 62.9957 24.4C62.9957 24.4324 62.9633 24.4648 62.9633 24.4973C62.9309 24.5297 62.8985 24.5621 62.8985 24.5945C62.8013 24.7241 62.6717 24.9185 62.6393 24.9509C62.5421 25.0805 62.3476 25.3722 62.2504 25.5342C62.218 25.599 62.1856 25.6638 62.1856 25.6962C62.1856 25.7286 62.1532 25.7611 62.1532 25.7935C62.1532 25.8259 62.1208 25.8583 62.1208 25.8583C62.1208 25.8907 62.0884 25.8907 62.0884 25.9231C62.0884 25.9231 62.0884 25.9555 62.056 25.9879C62.0236 26.0527 61.9912 26.1823 61.9588 26.2471C61.9588 26.3119 61.9264 26.474 61.9264 26.5064C61.9264 26.5388 61.9264 26.5712 61.9264 26.6036C61.9264 26.636 61.9264 26.6684 61.9264 26.7008C61.9264 26.7332 61.9264 26.7656 61.9264 26.798C61.9264 26.8952 61.9912 27.1869 62.0236 27.2517C62.0236 27.2841 62.056 27.3165 62.056 27.3489C62.056 27.3813 62.0884 27.4137 62.0884 27.4137H62.1208L62.1532 27.3813L62.1856 27.3489L62.218 27.3165C62.218 27.3165 62.2504 27.3165 62.2504 27.2841L62.2828 27.2517L62.3152 27.2193L62.38 27.1869C62.4125 27.1869 62.4449 27.1545 62.4773 27.1545C62.5097 27.1545 62.5421 27.1221 62.5421 27.1221C62.5745 27.1221 62.6069 27.0897 62.6069 27.0897C62.6069 27.0897 62.6717 27.0573 62.7365 27.0249C62.8013 27.0249 62.8661 26.9925 62.8985 26.96C62.9309 26.9276 62.9957 26.9276 63.0605 26.8952C63.1254 26.8628 63.1902 26.8628 63.2226 26.8304C63.2874 26.798 63.3198 26.798 63.4494 26.7656C63.5142 26.7332 63.579 26.7332 63.579 26.7008C63.6114 26.7008 63.6438 26.6684 63.7087 26.636C63.7411 26.636 63.8383 26.6036 63.8707 26.5712C63.9031 26.5388 63.9679 26.5388 64.0003 26.5064C64.0327 26.5064 64.0651 26.474 64.0975 26.474C64.0975 26.474 64.1299 26.4416 64.1623 26.4416C64.1947 26.4416 64.2271 26.4092 64.2271 26.4092C64.2595 26.4092 64.2595 26.3768 64.292 26.3768C64.3244 26.3443 64.4864 26.2471 64.5512 26.1823C64.616 26.1175 64.7132 25.9555 64.7132 25.9231C64.7132 25.8907 64.7456 25.8583 64.7456 25.8583C64.778 25.8583 64.9076 25.8583 64.9076 25.8907C64.9401 25.8907 65.0697 25.9231 65.1345 25.9231C65.1669 25.9231 65.2317 25.9231 65.2641 25.9231C65.2965 25.9231 65.3613 25.9231 65.5233 25.8907C65.7178 25.8583 65.7826 25.8259 65.8798 25.7935C65.9122 25.7935 65.977 25.7611 66.0418 25.7286C66.1066 25.6962 66.1714 25.6962 66.2039 25.6638C66.2687 25.6314 66.5279 25.599 66.6575 25.5666C66.8196 25.5666 66.8195 25.5666 66.7871 25.5342C66.7871 25.5342 66.7547 25.5018 66.7547 25.4694C66.7547 25.437 66.7223 25.4046 66.7223 25.4046C66.7223 25.4046 66.6899 25.3722 66.6899 25.3398C66.6575 25.3074 66.6575 25.275 66.6251 25.275C66.5927 25.2426 66.5603 25.1778 66.4955 25.1129C66.4631 25.0805 66.4307 25.0481 66.4307 25.0481L66.3983 25.0157C66.3983 25.0157 66.3659 24.9833 66.3335 24.9509C66.3011 24.9185 66.2687 24.9185 66.2687 24.8861C66.2363 24.8537 65.9446 24.6917 65.9122 24.6593C65.8798 24.6593 65.815 24.6269 65.7826 24.5945C65.6854 24.5621 65.5882 24.5297 65.4261 24.4648C65.2965 24.4324 65.1669 24.4 65.1669 24.4H65.1345C65.1345 24.4 65.1021 24.4 65.0697 24.4C65.0373 24.4 65.0373 24.4 65.0049 24.4C64.9725 24.4 64.9725 24.4 64.9401 24.4C64.9076 24.4 64.8752 24.4 64.8752 24.4C64.8428 24.4 64.8428 24.4 64.8104 24.4H64.778C64.778 24.4 64.7132 24.4 64.6484 24.3676C64.616 24.3676 64.5512 24.3676 64.5188 24.3352C64.4864 24.3352 64.454 24.3352 64.454 24.3352C64.4216 24.3352 64.3892 24.3352 64.3892 24.3352C64.3892 24.3352 64.3568 24.3352 64.3244 24.3352H64.2595C64.1947 24.3352 64.1947 24.3352 64.1947 24.3676C64.1947 24.3676 64.1947 24.4 64.1947 24.4324C64.1947 24.4648 64.1947 24.4648 64.1947 24.4973C64.1947 24.4973 64.1947 24.5297 64.1947 24.5621C64.1947 24.5945 64.1947 24.6269 64.1947 24.6269C64.1947 24.6593 64.1947 24.7889 64.1623 24.8213C64.1623 24.8537 64.1623 24.8537 64.1623 24.8861C64.1623 24.8861 64.1623 24.9185 64.1623 24.9509C64.1623 24.9833 64.1299 24.9833 64.1299 24.9833C64.0975 24.9833 64.0975 24.8861 64.0975 24.8537C64.0975 24.8213 64.0975 24.6593 64.0651 24.5621C64.0651 24.4972 64.0651 24.4648 64.0327 24.3352C64.0327 24.3028 64.0327 24.2056 64.0327 24.1732C64.0327 24.1084 64.0327 24.0436 64.0327 23.9788C64.0327 23.9464 64.0327 23.8491 64.0327 23.8167C64.0327 23.7843 64.0327 23.7195 64.0327 23.7195C64.0327 23.7195 64.0327 23.6547 64.0327 23.5899C64.0327 23.5251 64.0327 23.4603 64.0327 23.4603C64.0327 23.4279 64.0327 23.3955 64.0327 23.3631C64.0327 23.3307 64.0327 23.2983 64.0327 23.2659C64.0327 23.2334 64.0327 23.201 64.0327 23.1686C64.0327 23.1362 64.0327 23.1038 64.0327 23.0714C64.0327 23.039 64.0327 23.0066 64.0327 22.9742C64.0327 22.9418 64.0327 22.9094 64.0327 22.877C64.0327 22.8122 64.0651 22.715 64.0651 22.6502C64.0651 22.6178 64.0651 22.5853 64.0651 22.5529C64.0651 22.5205 64.0651 22.4881 64.0651 22.4881C64.0651 22.4881 64.0651 22.4557 64.0651 22.4233C64.0651 22.3909 64.0651 22.3585 64.0651 22.3261C64.0651 22.2937 64.0651 22.2613 64.0651 22.2613C64.0651 22.2289 64.0651 22.1965 64.0651 22.1965C64.0651 22.1641 64.0651 22.1317 64.0651 22.1317V22.0993C64.0651 22.0993 64.0651 22.0669 64.0651 22.0345C64.0651 22.0021 64.0651 21.9696 64.0651 21.9696C64.0651 21.9372 64.1623 21.5484 64.1947 21.4512V21.4188C64.2271 21.3215 64.2595 21.1919 64.3244 20.9975C64.3568 20.9651 64.3568 20.9003 64.3568 20.9003C64.3568 20.9003 64.3568 20.8679 64.3892 20.8355C64.3892 20.8031 64.4216 20.7707 64.4216 20.7707C64.454 20.7058 64.616 20.4142 64.6808 20.2198C64.778 20.0577 64.9401 19.7985 65.1021 19.6365C65.1345 19.6041 65.1669 19.5717 65.1669 19.5393C65.1993 19.5069 65.2317 19.4744 65.2641 19.442C65.3937 19.3124 65.4585 19.2476 65.4585 19.2476C65.4585 19.2476 65.4909 19.2152 65.5233 19.1828C65.5557 19.1504 65.5882 19.118 65.653 19.0856C65.6854 19.0532 65.7502 19.0208 65.7502 18.9884C65.815 18.9236 66.0094 18.7939 66.0742 18.7291C66.1066 18.7291 66.139 18.6967 66.139 18.6643C66.1714 18.6643 66.2363 18.5995 66.2687 18.5671C66.3335 18.5347 66.3983 18.5023 66.4307 18.4699C66.4631 18.4375 66.4955 18.4375 66.4955 18.4375C66.4955 18.4375 66.5603 18.4051 66.5927 18.4051C66.6575 18.3727 66.7223 18.3403 66.8196 18.3079C66.852 18.3079 66.9168 18.2755 66.9168 18.2431C66.9492 18.2431 66.9816 18.2106 67.0464 18.1782C67.0788 18.1782 67.1436 18.1458 67.2084 18.1134C67.2732 18.081 67.3704 18.0486 67.4352 18.0486C67.5001 18.0162 67.5973 17.9838 67.6297 17.9838C67.6945 17.9514 67.7917 17.919 67.8241 17.9514C67.8565 17.9514 67.8565 17.9514 67.8241 17.9838L67.7917 18.0162C67.7917 18.0162 67.7593 18.0486 67.7269 18.0486C67.6945 18.0486 67.6621 18.081 67.6621 18.1134C67.5649 18.1458 67.5001 18.2431 67.5001 18.3079C67.5001 18.3079 67.5001 18.3403 67.5001 18.3727C67.5001 18.4051 67.5001 18.4051 67.5001 18.4375C67.5001 18.4699 67.4028 18.7615 67.3704 18.8588C67.338 18.9236 67.2732 19.0532 67.2408 19.0856C67.2408 19.118 67.2084 19.1504 67.176 19.1828C67.1436 19.2476 66.9816 19.442 66.8844 19.5717C66.8196 19.6689 66.7223 19.7985 66.7223 19.7985C66.7223 19.8309 66.7223 19.8309 66.7871 19.8633C66.8195 19.8633 66.852 19.8633 66.9168 19.8633C67.0464 19.8309 67.2408 19.7985 67.338 19.7661C67.3704 19.7337 67.4352 19.7337 67.4677 19.7013C67.5001 19.7013 67.5325 19.6689 67.5649 19.6689C67.5973 19.6689 67.6297 19.6365 67.6297 19.6365C67.6621 19.6365 67.6945 19.6041 67.6945 19.6041C67.6945 19.6041 67.7593 19.5717 67.7917 19.5393C67.8241 19.5069 67.8889 19.4745 67.9213 19.4745C67.9537 19.442 67.9861 19.442 68.0185 19.4096C68.051 19.4096 68.0833 19.3772 68.0833 19.3772C68.1482 19.3124 68.213 19.28 68.213 19.28C68.213 19.28 68.2454 19.28 68.2454 19.2476C68.2778 19.2152 68.3102 19.1828 68.375 19.1504C68.4398 19.118 68.4722 19.0532 68.5046 19.0532C68.537 19.0208 68.6342 18.9236 68.6666 18.8912C68.6666 18.8912 68.6991 18.7939 68.6991 18.7291C68.6991 18.6643 68.6991 18.6319 68.6991 18.5671C68.6991 18.5347 68.6991 18.5023 68.6991 18.4699C68.6991 18.4375 68.6991 18.3727 68.6991 18.3403C68.6991 18.2431 68.699 18.2107 68.7315 18.2107C68.7639 18.2107 68.7639 18.2755 68.7963 18.4051C68.8287 18.5023 68.8287 18.5671 68.8287 18.6319C68.8287 18.6967 68.8287 18.7615 68.8287 18.7939C68.8287 18.8263 68.8287 18.8588 68.8287 18.8912C68.8287 18.9236 68.8287 18.956 68.8287 18.9884C68.8287 19.0208 68.8287 19.0532 68.8287 19.0856C68.8287 19.118 68.8287 19.1504 68.8287 19.1504C68.8287 19.1504 68.8287 19.1828 68.7639 19.4096C68.7315 19.5717 68.6991 19.6689 68.6666 19.7013C68.6666 19.7013 68.6666 19.7337 68.6342 19.7337C68.6342 19.7661 68.5694 19.8957 68.537 19.9929C68.5046 20.0253 68.5046 20.0901 68.5046 20.0901C68.5046 20.1226 68.4722 20.155 68.4722 20.155C68.4398 20.2198 68.4074 20.317 68.4074 20.3818C68.4074 20.4142 68.4074 20.4466 68.4074 20.4466C68.4074 20.479 68.4074 20.479 68.4398 20.479C68.4722 20.479 68.4722 20.479 68.537 20.479C68.5694 20.479 68.6018 20.4466 68.6342 20.4466C68.6666 20.4466 68.699 20.4142 68.7315 20.4142C68.7639 20.4142 68.8287 20.3818 68.8287 20.3494C68.8287 20.317 68.8935 20.317 68.8935 20.2846C68.9259 20.2846 68.9583 20.2522 68.9907 20.2198C69.0231 20.1874 69.0555 20.1874 69.0879 20.155C69.1203 20.155 69.1527 20.0901 69.1851 20.0577C69.2823 19.9929 69.2823 19.9929 69.3796 19.8957C69.4444 19.8633 69.4768 19.7985 69.4768 19.7985C69.4768 19.7985 69.5092 19.7661 69.5416 19.7337C69.574 19.7013 69.6064 19.6689 69.6388 19.6041C69.6712 19.5717 69.7036 19.5069 69.736 19.5069C69.8008 19.442 69.9629 19.2152 70.0925 19.0208C70.1897 18.8912 70.3193 18.6319 70.3193 18.5995C70.3193 18.5671 70.3193 18.5671 70.3841 18.4699C70.3841 18.4375 70.4165 18.4051 70.4165 18.4051V18.3727C70.4489 18.3079 70.5137 18.081 70.5137 17.9514C70.5137 17.919 70.5137 17.8542 70.5461 17.8218C70.5461 17.7894 70.5461 17.757 70.5461 17.757C70.5461 17.6922 70.5785 17.6598 70.6758 17.6598C70.7082 17.6598 70.773 17.6598 70.8054 17.6598C70.8378 17.6598 70.9026 17.6598 70.9026 17.6598C70.9026 17.6598 70.9674 17.6598 70.9998 17.6598C71.0322 17.6598 71.0646 17.6598 71.097 17.6598C71.1294 17.6598 71.1618 17.6598 71.1942 17.6598C71.2267 17.6598 71.2915 17.6598 71.2915 17.6598C71.3239 17.6598 71.3563 17.6598 71.3563 17.6598C71.3887 17.6598 71.4211 17.6598 71.4211 17.6598C71.4535 17.6598 71.4859 17.6598 71.5183 17.6598C71.5507 17.6598 71.5831 17.6598 71.5831 17.6598C71.6155 17.6598 71.6479 17.6598 71.6803 17.6598C71.7127 17.6598 71.7451 17.6598 71.7775 17.6598C71.8424 17.6598 71.9396 17.6922 72.0044 17.6922C72.0368 17.6922 72.0692 17.6922 72.0692 17.6922C72.1016 17.6922 72.1016 17.6922 72.134 17.6922C72.134 17.6922 72.1664 17.6922 72.1988 17.6922C72.2312 17.6922 72.2636 17.6922 72.296 17.6922C72.3284 17.6922 72.3608 17.6922 72.3608 17.6922C72.3608 17.6922 72.4256 17.6922 72.458 17.7246C72.4905 17.7246 72.5553 17.7246 72.5877 17.757C72.6201 17.757 72.6525 17.757 72.6849 17.757C72.7173 17.757 72.7173 17.757 72.7497 17.757C72.7497 17.757 72.7821 17.757 72.8145 17.757C72.8793 17.757 73.0089 17.7894 73.0089 17.7894C73.0089 17.7894 73.0413 17.7894 73.0738 17.7894C73.1062 17.7894 73.1386 17.7894 73.2034 17.8218C73.2682 17.8542 73.3006 17.8542 73.333 17.8542C73.3978 17.8542 73.4626 17.8866 73.5274 17.8866C73.5598 17.8866 73.5922 17.8866 73.5922 17.8866H73.6246C73.6246 17.8866 73.657 17.8866 73.6894 17.8866C73.7543 17.8866 73.8515 17.8866 73.9163 17.919C73.9487 17.919 73.9811 17.919 74.0135 17.919C74.0459 17.919 74.1107 17.919 74.1107 17.919C74.1431 17.919 74.1755 17.919 74.1755 17.919C74.1755 17.919 74.2079 17.919 74.2727 17.919C74.37 17.919 74.5644 17.919 74.5968 17.919C74.6292 17.919 74.6616 17.919 74.694 17.919C74.7588 17.919 75.1153 17.8866 75.2125 17.8542C75.2449 17.8542 75.2773 17.8218 75.3097 17.8218C75.3745 17.7894 75.4717 17.757 75.5041 17.7246C75.5365 17.6922 75.5689 17.6274 75.5689 17.5949C75.5689 17.5625 75.5365 17.4977 75.5041 17.4329C75.4717 17.3681 75.4393 17.3681 75.3097 17.2709C75.2449 17.2385 75.1153 17.1737 75.0829 17.1413C74.9857 17.1089 74.9533 17.0765 74.8236 17.0117C74.6292 16.9144 74.532 16.8496 74.4348 16.7848C74.3051 16.6876 74.2727 16.6552 74.1755 16.5904C74.1107 16.5256 74.1107 16.4932 74.1107 16.3636C74.0783 16.0719 74.0459 15.9099 73.9811 15.7154C73.9487 15.6506 73.9487 15.5858 73.9163 15.521C73.8839 15.4562 73.8839 15.3914 73.8515 15.359C73.8191 15.3266 73.8191 15.2942 73.8191 15.2618C73.7867 15.1646 73.495 14.7433 73.4302 14.6785L73.3978 14.6461C73.3978 14.6137 73.3654 14.5813 73.333 14.5813C73.3006 14.5489 73.3006 14.5489 73.2682 14.5165C73.2682 14.5165 73.2358 14.4841 73.2034 14.4516C73.171 14.4192 73.1386 14.4192 73.1386 14.3868C73.1062 14.3544 72.9765 14.2572 72.8793 14.1924C72.8145 14.16 72.7821 14.1276 72.7821 14.1276C72.7821 14.1276 72.5229 13.9656 72.458 13.9332C72.4256 13.9332 72.3932 13.9008 72.3608 13.8684C72.3284 13.8684 72.296 13.836 72.2312 13.8035C72.1988 13.7711 72.134 13.7711 72.0692 13.7387C72.0368 13.7063 71.972 13.7063 71.9396 13.6739C71.9072 13.6739 71.8423 13.6415 71.8099 13.6415C71.7775 13.6415 71.7451 13.6091 71.7451 13.6091H71.7127C71.7127 13.6091 71.5831 13.5767 71.4535 13.5443C71.3239 13.5119 71.1942 13.4795 71.1942 13.4795C71.1618 13.4795 71.1294 13.4795 71.097 13.4471C71.0646 13.4147 70.9998 13.4471 70.9674 13.4147C70.935 13.3823 70.8702 13.4147 70.8378 13.4147C70.8054 13.4147 70.773 13.4147 70.773 13.4147C70.7406 13.4147 70.4813 13.3823 70.4165 13.3823C70.3841 13.3823 70.3517 13.3823 70.3193 13.3823C70.3193 13.3823 70.2869 13.3823 70.2545 13.3823C70.2221 13.3823 70.1897 13.3823 70.1573 13.3823C70.1249 13.3823 70.0925 13.3823 70.0601 13.3823C70.0277 13.3823 69.9953 13.3823 69.9629 13.3823C69.9304 13.3823 69.898 13.3823 69.8656 13.3823C69.8332 13.3823 69.8008 13.3823 69.7684 13.3823C69.736 13.3823 69.7036 13.3823 69.6712 13.3823C69.6388 13.3823 69.6064 13.3823 69.574 13.3823C69.5416 13.3823 69.5092 13.3823 69.4768 13.3823C69.4444 13.3823 69.412 13.3823 69.3796 13.3823C69.3472 13.3823 69.2823 13.3823 69.2175 13.3823C69.1527 13.3823 69.0879 13.3823 69.0555 13.3823C69.0231 13.3823 68.9583 13.3823 68.8935 13.3823C68.8611 13.3823 68.7963 13.3823 68.7639 13.3823C68.699 13.3823 68.6666 13.3823 68.4398 13.4147C68.375 13.4147 68.3102 13.4147 68.2778 13.4471C67.9213 13.4795 66.9492 13.7063 66.7547 13.7711C66.7223 13.8035 66.6251 13.8035 66.5603 13.836C66.4955 13.836 66.4307 13.8684 66.3983 13.9008C66.3659 13.9332 66.3011 13.9332 66.2363 13.9656C66.1715 13.998 66.139 13.998 66.1066 14.0304C66.0742 14.0304 66.0418 14.0628 66.0094 14.0628C65.977 14.0628 65.9122 14.0952 65.8798 14.1276C65.8474 14.16 65.815 14.16 65.7826 14.16C65.7826 14.16 65.7178 14.1924 65.6854 14.1924C65.653 14.2248 65.6206 14.2248 65.5882 14.2248C65.5882 14.2248 65.5557 14.2572 65.5233 14.2572C65.4909 14.2896 65.4585 14.2896 65.4261 14.322C65.3613 14.3544 65.2317 14.4192 65.1993 14.4516C65.1669 14.4841 65.1021 14.4841 65.1021 14.4841C65.1021 14.4841 65.1021 14.4841 65.1021 14.4516C65.1021 14.4192 65.1345 14.3868 65.1669 14.3868C65.2641 14.2896 65.2641 14.2896 65.2965 14.2572L65.3289 14.2248C65.3289 14.2248 65.3613 14.1924 65.3937 14.16C65.4585 14.0952 65.4585 14.0952 65.3613 14.0628C65.3289 14.0628 65.2641 14.0304 65.2641 14.0304C65.2317 14.0304 65.0049 13.9656 64.9401 13.9656C64.9076 13.9656 64.8752 13.9656 64.8428 13.9656C64.8104 13.9656 64.778 13.9656 64.7456 13.9656C64.6808 13.9656 64.5836 13.9332 64.5512 13.9332H64.5188C64.5188 13.9332 64.4864 13.9332 64.454 13.9332C64.3892 13.9332 64.3244 13.9332 64.1947 13.9008C64.1623 13.9008 64.1299 13.9008 64.0975 13.9008C64.0651 13.9008 64.0327 13.9008 64.0003 13.9008C63.9679 13.9008 63.9355 13.9008 63.8707 13.9008C63.8383 13.9008 63.7735 13.9008 63.7411 13.9008C63.7087 13.9008 63.6438 13.9008 63.6114 13.9008C63.579 13.9008 63.5142 13.9008 63.4818 13.9008C63.4494 13.9008 63.3522 13.9008 63.2874 13.9332C63.2226 13.9332 63.093 13.9656 62.9957 13.9656C62.8985 13.998 62.7689 13.998 62.7365 13.998C62.8985 13.8684 62.8661 13.8684 62.8337 13.8684Z" fill="black"/>
<path fill-rule="evenodd" clip-rule="evenodd" d="M23.0077 11.0501C21.0958 12.4112 20.1884 14.9388 20.8365 17.2395C21.0958 18.1469 21.4846 18.8598 22.2623 19.7347C23.2345 20.8365 23.753 21.9707 23.915 23.3317C24.0122 24.0446 23.753 25.3732 23.3641 26.151C23.2021 26.5074 22.7484 27.0259 22.7484 27.0583C22.8456 27.0907 24.077 26.7018 24.9196 26.1834C25.7945 25.6973 26.4426 25.0168 27.1231 24.1418C27.4472 23.6558 27.2203 24.077 27.512 23.5585C27.9008 22.8456 28.2249 22.1651 29.035 21.9383C29.2619 21.8735 29.4239 21.7763 29.5211 21.5818C29.5859 21.4198 29.7479 21.2254 29.8776 21.0957L30.1044 20.9013L29.8127 20.8041C29.6507 20.7393 29.3915 20.5773 29.2295 20.4152C28.9702 20.156 28.873 20.1236 28.4841 20.1236C27.9657 20.1236 27.6092 20.318 27.4148 20.7393C27.3176 20.9985 27.3175 20.9985 27.1879 20.3828C26.9935 19.1838 26.637 18.5681 25.5677 17.3368C24.7251 16.3646 24.1742 15.2952 23.7854 13.9342C23.6558 13.4805 23.6234 13.0269 23.6234 11.9575C23.6234 11.1798 23.6234 10.5641 23.6234 10.5641C23.6234 10.5641 23.3641 10.7909 23.0077 11.0501ZM25.9565 12.3788C25.3084 12.8324 24.7899 13.7398 24.7899 14.3231C24.7899 14.8416 25.5353 16.1702 26.3778 17.1747C26.7343 17.6284 26.7991 17.6284 26.8963 17.4988C27.1231 17.1747 27.0259 16.559 26.7018 16.0405C25.9889 14.9388 25.7945 13.7074 26.1834 12.638C26.2806 12.3464 26.3454 12.1195 26.3454 12.1195C26.313 12.1195 26.151 12.2491 25.9565 12.3788ZM28.7758 20.7717C28.8082 20.8689 28.7434 20.9337 28.6786 20.9337C28.5165 20.9337 28.4193 20.8041 28.4841 20.6745C28.5489 20.5125 28.7434 20.6097 28.7758 20.7717ZM15.7165 23.6882C16.9803 24.7575 19.0218 25.7621 20.4152 25.9565C20.6745 25.9889 20.7717 26.0537 20.7069 26.1185C20.6421 26.1834 20.0588 26.1834 19.119 26.151C17.4988 26.1186 16.4942 25.8917 15.3924 25.438C14.7119 25.1464 14.8416 25.276 15.6841 25.7621C16.5266 26.2482 17.7256 26.7342 18.633 26.9287C19.3459 27.0907 21.4846 27.3499 21.8411 27.2527C21.9707 27.2203 22.1651 26.8963 22.3272 26.6046C22.6188 26.1185 23.0401 25.0492 22.9753 24.9844C22.9428 24.952 22.5216 24.9844 21.9707 25.0492C20.0264 25.276 17.7904 24.7899 15.9757 23.7854C15.6517 23.5909 15.5545 23.5585 15.7165 23.6882Z" fill="black"/>
<path fill-rule="evenodd" clip-rule="evenodd" d="M52.0751 7.6476H52.0427C52.0427 7.6476 52.0103 7.6476 52.0103 7.68001L51.9779 7.71241C51.9455 7.71241 51.9131 7.77722 51.9131 7.80962C51.9131 7.84203 51.9131 7.84203 51.9131 7.84203C51.9131 7.84203 51.8807 7.87444 51.8807 7.90684C51.8807 7.90684 51.8807 7.93925 51.8807 7.97165C51.8807 8.03646 51.8807 8.03646 51.9455 8.10127L51.9779 8.13368C51.9779 8.13368 51.9779 8.16608 52.0103 8.16608C52.0427 8.19849 52.0427 8.23089 52.0427 8.23089C52.0427 8.23089 52.0427 8.2633 52.0751 8.2633L52.1075 8.32811C52.1399 8.32811 52.1399 8.45773 52.1399 8.55494C52.1399 8.58735 52.1399 8.61975 52.1399 8.61975C52.1399 8.61975 52.1723 8.74937 52.1399 8.78178C52.1399 8.81418 52.1399 8.81419 52.1075 8.81419C52.1075 8.81419 52.0751 8.81418 52.0751 8.78178H52.0427C52.0427 8.78178 52.0103 8.78178 52.0103 8.74938C51.9779 8.71697 51.9131 8.71697 51.8807 8.74938C51.8483 8.78178 51.8159 8.81419 51.8159 8.81419C51.8159 8.81419 51.8159 8.81419 51.8159 8.84659V8.879V8.9114C51.8159 8.9114 51.7835 8.94381 51.7835 8.97621C51.7835 9.00862 51.7511 9.04102 51.7511 9.07343C51.7511 9.10583 51.7511 9.10583 51.7511 9.13824C51.7511 9.17064 51.7511 9.23545 51.7511 9.23545V9.30026C51.7511 9.30026 51.7511 9.33267 51.7187 9.36507V9.39748C51.7187 9.39748 51.7186 9.42988 51.6862 9.46229C51.6538 9.4947 51.6538 9.5271 51.6538 9.55951C51.6538 9.59191 51.6214 9.59191 51.6214 9.59191V9.62432C51.6214 9.62432 51.6214 9.62432 51.6214 9.65672L51.5566 9.75393L51.5242 9.78634L51.4918 9.81875C51.4918 9.81875 51.4594 9.85115 51.4594 9.88356C51.4594 9.91596 51.427 9.91596 51.427 9.91596C51.427 9.91596 51.3622 9.98077 51.3298 10.0456C51.3298 10.0456 51.2974 10.078 51.2974 10.1104C51.265 10.1428 51.265 10.1752 51.2002 10.2724C51.1678 10.3048 51.1678 10.3372 51.1678 10.3372V10.3696V10.402V10.4344C51.1678 10.4669 51.1678 10.4993 51.103 10.5965C51.103 10.6289 51.103 10.6289 51.103 10.6289C51.103 10.6289 51.103 10.6613 51.0705 10.6613L51.0381 10.6937V10.7261V10.7585C51.0381 10.7585 51.0381 10.7909 51.0057 10.7909C50.9733 10.7909 50.9733 10.8233 50.9733 10.8233C50.9733 10.8233 50.9733 10.8557 50.9409 10.8881C50.9085 10.9205 50.9085 10.9529 50.9085 10.9529C50.9085 10.9529 50.8761 10.9853 50.8761 11.0177C50.8761 11.0177 50.8437 11.0501 50.8437 11.0825C50.8437 11.115 50.8113 11.1474 50.7789 11.1798C50.7465 11.2122 50.7465 11.2446 50.7141 11.2446C50.6817 11.2446 50.7141 11.277 50.7141 11.277C50.7141 11.277 50.7141 11.3094 50.6817 11.3094C50.6817 11.3418 50.6493 11.3418 50.6493 11.3418V11.3742C50.6493 11.3742 50.6493 11.4066 50.6169 11.439C50.5845 11.4714 50.4873 11.601 50.4549 11.6334L50.4224 11.6658C50.4224 11.6658 50.39 11.6982 50.3576 11.7307C50.3252 11.7631 50.3252 11.7955 50.3252 11.7955L50.2928 11.8279C50.2928 11.8279 50.2604 11.8603 50.2604 11.8927C50.228 11.9251 50.228 11.9575 50.228 11.9575C50.228 11.9575 50.228 11.9899 50.1956 11.9899C50.1632 12.0223 50.0984 12.0871 50.066 12.1519C50.0336 12.1843 50.0336 12.2167 50.0012 12.2167C50.0012 12.2491 49.9688 12.2491 49.9688 12.2491C49.9688 12.2491 49.9688 12.2491 49.9688 12.2815C49.9688 12.2815 49.9688 12.2815 49.9688 12.3139C49.9688 12.3139 49.9688 12.3463 49.9364 12.3463C49.904 12.3788 49.8067 12.5084 49.8067 12.5084L49.7743 12.5408C49.7419 12.5732 49.7419 12.5732 49.7419 12.5732C49.7419 12.5732 49.7419 12.6056 49.7095 12.6056C49.6771 12.638 49.6771 12.638 49.6447 12.6704C49.6123 12.7028 49.5799 12.7352 49.5151 12.8324C49.4827 12.8648 49.4827 12.8648 49.4827 12.8972C49.4827 12.8972 49.4827 12.8972 49.4503 12.9296C49.4179 12.962 49.4179 12.962 49.4179 12.962C49.4179 12.962 49.2234 13.1889 49.191 13.1889V13.2213C49.191 13.2213 49.191 13.2213 49.191 13.2537C49.191 13.2537 49.1911 13.2537 49.1586 13.2861C49.1262 13.3185 49.1262 13.3185 49.1262 13.3185C49.1262 13.3185 49.0938 13.3509 49.0614 13.3833C49.029 13.4157 48.9966 13.4481 48.9966 13.4481C48.9966 13.4481 48.9642 13.4805 48.9318 13.5129C48.8994 13.5453 48.867 13.5777 48.867 13.5777C48.867 13.5777 48.8346 13.6101 48.8022 13.6426C48.7698 13.675 48.7374 13.7074 48.7374 13.7074L48.705 13.7398L48.5105 13.9018C48.5105 13.9018 48.4781 13.9018 48.4781 13.9342C48.4781 13.9342 48.4457 13.9666 48.4133 13.9666C48.3809 13.9666 48.3809 13.999 48.3809 13.999C48.3809 13.999 48.3809 13.999 48.3485 13.999C48.3161 14.0314 48.2189 14.0962 48.1217 14.1286C48.0893 14.1286 48.0893 14.161 48.0893 14.161C48.0893 14.161 48.0893 14.161 48.0569 14.161H48.0245C48.0245 14.161 47.9597 14.1934 47.8948 14.2258C47.83 14.2583 47.7976 14.2907 47.7976 14.2907C47.7976 14.2907 47.7976 14.2907 47.7652 14.2907H47.7328L47.7004 14.3231C47.668 14.3231 47.6356 14.3555 47.5708 14.3879C47.5384 14.3879 47.506 14.4203 47.506 14.4203C47.506 14.4203 47.4736 14.4203 47.4736 14.4527C47.4736 14.4527 47.4736 14.4527 47.4412 14.4527C47.4412 14.4527 47.4088 14.4527 47.3764 14.4851C47.344 14.4851 47.2791 14.5175 47.2143 14.5499C47.1495 14.5823 47.0847 14.6147 47.0847 14.6147C47.0523 14.6147 46.9551 14.6471 46.9551 14.6471C46.9551 14.6471 46.9227 14.6471 46.9227 14.6795L46.8903 14.7119C46.8579 14.7119 46.6959 14.7767 46.6959 14.8091C46.6959 14.8091 46.6958 14.8091 46.6634 14.8415C46.631 14.874 46.631 14.874 46.631 14.874L46.5986 14.9064L46.5662 14.9388C46.5662 14.9388 46.5338 14.9712 46.5014 14.9712C46.469 14.9712 46.469 15.0036 46.469 15.0036C46.469 15.0036 46.469 15.0036 46.4366 15.0036L46.4042 15.036C46.4042 15.036 46.3718 15.0684 46.2422 15.1656C46.2098 15.198 46.1774 15.2304 46.1774 15.2304C46.1774 15.2304 45.9829 15.4248 45.8209 15.5869C45.7885 15.6193 45.7237 15.6841 45.6913 15.7165C45.6589 15.7489 45.6265 15.7489 45.6265 15.7813L45.4969 15.8461C45.4969 15.8461 45.4645 15.8461 45.4645 15.8785C45.432 15.8785 45.432 15.9109 45.432 15.9109C45.432 15.9109 45.4321 15.9109 45.3996 15.9109C45.3996 15.9109 45.3996 15.9109 45.3672 15.9109H45.3348C45.3024 15.9109 45.3024 15.9433 45.27 15.9433C45.2376 15.9433 45.2052 15.9757 45.1728 15.9757C45.1404 15.9757 45.108 16.0081 45.108 16.0081H45.0756H45.0432H45.0108H44.9784H44.946C44.946 16.0081 44.9136 16.0405 44.8488 16.0405C44.8163 16.0405 44.7839 16.0729 44.7839 16.0729C44.7839 16.0729 44.7191 16.1053 44.6867 16.1053C44.6867 16.1053 44.6543 16.1054 44.6219 16.1378C44.5895 16.1378 44.5895 16.1702 44.5571 16.1702H44.5247C44.5247 16.1702 44.4923 16.2026 44.4599 16.2026C44.3951 16.2026 44.3303 16.235 44.1682 16.2998C44.1358 16.2998 44.1034 16.3322 44.1034 16.3322H44.071C44.071 16.3322 44.0386 16.3322 44.0062 16.3646C43.9738 16.3646 43.9414 16.397 43.909 16.397C43.8766 16.397 43.8442 16.4294 43.8118 16.4294C43.7794 16.4294 43.7794 16.4294 43.7794 16.4294H43.747C43.7146 16.4294 43.6822 16.4294 43.6822 16.4618C43.6498 16.4618 43.6174 16.4942 43.6174 16.4942C43.585 16.4942 43.585 16.4942 43.5525 16.4942C43.5525 16.4942 43.5201 16.4942 43.4877 16.4942C43.4553 16.4942 43.4229 16.4942 43.3905 16.5266C43.3581 16.559 43.3257 16.559 43.3257 16.559C43.2933 16.559 43.2933 16.5914 43.2933 16.5914C43.2933 16.5914 43.2933 16.5914 43.2609 16.5914C43.2609 16.5914 43.2285 16.5914 43.2285 16.6238C43.2285 16.6238 43.1961 16.6562 43.1637 16.6562C43.1313 16.6562 43.1313 16.6886 43.0989 16.6886C43.0989 16.6886 43.0665 16.6886 43.0665 16.721C43.0665 16.721 43.0341 16.7535 43.0017 16.7535C42.9368 16.8183 42.9044 16.8183 42.9044 16.8183H42.872C42.872 16.8183 42.872 16.8507 42.8396 16.8507C42.8072 16.8507 42.8072 16.8831 42.7748 16.8831L42.7424 16.9155C42.7424 16.9155 42.7424 16.9155 42.71 16.9479L42.6776 16.9803C42.6776 16.9803 42.6452 16.9803 42.6128 17.0451C42.5804 17.0775 42.548 17.1099 42.548 17.1099L42.5156 17.1423C42.4832 17.1747 42.4832 17.1747 42.4832 17.1747C42.4832 17.1747 42.4508 17.2071 42.386 17.2395C42.3212 17.2719 42.2563 17.3691 42.2239 17.4016C42.1915 17.434 42.1267 17.4988 42.1267 17.4988C42.1267 17.4988 42.1267 17.5312 42.0943 17.5312C42.0619 17.5312 42.0295 17.596 41.9971 17.596C41.9647 17.6284 41.9323 17.6608 41.9323 17.6608C41.8999 17.6932 41.8027 17.8228 41.8027 17.8228V17.8552C41.8027 17.8552 41.7379 17.9848 41.7055 18.0497C41.673 18.1145 41.6731 18.1469 41.6731 18.1469C41.6731 18.1469 41.6731 18.1469 41.6731 18.1793V18.2117C41.6731 18.2117 41.673 18.2441 41.6406 18.2765C41.6406 18.3089 41.6082 18.3413 41.5758 18.4385C41.5758 18.4709 41.5434 18.5033 41.5434 18.5033C41.5434 18.5357 41.511 18.5357 41.511 18.5681V18.6005C41.511 18.6005 41.511 18.6329 41.511 18.6654C41.511 18.6978 41.511 18.7302 41.511 18.7302C41.511 18.7626 41.511 18.7626 41.4786 18.795C41.4786 18.8274 41.4462 18.8274 41.4462 18.8274C41.4462 18.8274 41.4462 18.8598 41.4138 18.8598C41.4138 18.8922 41.3814 18.9246 41.3814 19.0542C41.3814 19.1514 41.3814 19.2486 41.349 19.2811C41.349 19.3135 41.349 19.3783 41.3166 19.4431C41.3166 19.5079 41.3166 19.5727 41.2842 19.6051C41.2842 19.6699 41.2842 19.7671 41.2842 19.7995C41.2842 19.8319 41.2842 19.8643 41.2842 19.8968C41.2842 19.9292 41.2842 19.994 41.2842 20.0264C41.2842 20.0588 41.2842 20.1236 41.2842 20.1884C41.2842 20.2856 41.2842 20.318 41.2842 20.3504C41.2842 20.3828 41.2842 20.3828 41.2842 20.4476C41.2842 20.5124 41.2842 20.5449 41.2842 20.6421C41.2842 20.7069 41.2842 20.8041 41.2842 20.8689C41.2842 20.9337 41.2842 21.0633 41.2842 21.1606C41.2842 21.2902 41.2842 21.355 41.2842 21.4198C41.2842 21.4522 41.2842 21.517 41.2842 21.5494C41.2842 21.5818 41.2842 21.6142 41.2842 21.6466C41.2842 21.679 41.2518 21.7114 41.2518 21.7438C41.2194 21.8735 41.187 21.9383 41.1222 22.0031C41.0898 22.0355 41.0898 22.0355 41.0898 22.0355L41.0574 22.0679C41.0574 22.1003 41.0249 22.1327 41.0249 22.1327C41.0249 22.1327 40.9925 22.1651 40.9925 22.1975C40.9925 22.2299 40.9925 22.2299 40.9601 22.2299C40.9601 22.2299 40.9277 22.2623 40.9277 22.2947C40.8953 22.3271 40.8953 22.3595 40.8953 22.4244V22.4892H40.9277C40.9601 22.4892 40.9601 22.4892 40.9601 22.4892V22.4568C40.9601 22.4568 40.9601 22.4568 40.9925 22.4244C41.0249 22.3919 41.0574 22.3595 41.0574 22.3271C41.0574 22.3271 41.0898 22.2947 41.0898 22.2623C41.1222 22.2299 41.1222 22.2299 41.1222 22.1975C41.1222 22.1651 41.1222 22.1651 41.1222 22.1651L41.1546 22.1327C41.1546 22.1327 41.187 22.1003 41.187 22.0679C41.2194 22.0355 41.2194 22.0031 41.2194 22.0031C41.2194 22.0031 41.2194 21.9707 41.2518 21.9707C41.2518 21.9707 41.2518 21.9707 41.2518 21.9383C41.2518 21.9383 41.2518 21.9059 41.2842 21.8735C41.2842 21.8411 41.3166 21.8087 41.3166 21.7763C41.3166 21.7438 41.3166 21.679 41.349 21.6466C41.349 21.6142 41.3814 21.5494 41.3814 21.517C41.3814 21.4846 41.3814 21.4522 41.3814 21.4522C41.3814 21.4198 41.4138 21.0957 41.4138 21.0309C41.4138 20.9013 41.4138 20.5449 41.4462 20.48C41.4462 20.4476 41.4786 20.3504 41.4786 20.2532C41.4786 20.156 41.4786 20.0912 41.511 20.0912C41.511 20.0912 41.511 19.994 41.511 19.8968C41.511 19.7347 41.5434 19.6699 41.5434 19.6375C41.5434 19.6375 41.5434 19.6699 41.5434 19.7347C41.5434 19.7995 41.5434 19.8319 41.5434 19.8643C41.5434 19.8968 41.5434 19.9292 41.5758 19.994C41.5758 20.0588 41.5758 20.0912 41.5758 20.0912V20.1236C41.6082 20.2532 41.6406 20.48 41.6406 20.5125C41.6406 20.5773 41.6731 20.6421 41.6731 20.6745C41.6731 20.7069 41.673 20.7393 41.7055 20.7717C41.7055 20.8041 41.7055 20.8365 41.7379 20.8689C41.7379 20.9013 41.7703 20.9337 41.7703 21.0309C41.7703 21.193 41.7703 21.3226 41.7379 21.355C41.7379 21.3874 41.7379 21.3874 41.7379 21.4198V21.4522C41.7379 21.4522 41.7379 21.4846 41.7055 21.517C41.7055 21.5494 41.7055 21.5818 41.6731 21.5818C41.6731 21.5818 41.6731 21.6142 41.6731 21.6466C41.6731 21.679 41.6082 21.8087 41.6082 21.8411C41.6082 21.8411 41.6082 21.8735 41.5758 21.8735C41.5758 21.8735 41.5758 21.9059 41.5434 21.9059V21.9383V21.9707C41.5434 22.0031 41.4462 22.1651 41.4462 22.1651C41.4462 22.1651 41.4462 22.1651 41.4138 22.1975C41.4138 22.1975 41.4138 22.2299 41.3814 22.2299C41.3814 22.2299 41.349 22.2623 41.3166 22.3271C41.2518 22.4244 41.2518 22.4568 41.2194 22.4892C41.2194 22.4892 41.187 22.5216 41.187 22.554C41.1546 22.5864 41.0898 22.6836 41.0898 22.716L41.0574 22.7484C41.0574 22.7808 41.0249 22.7808 41.0249 22.7808C41.0249 22.7808 40.9925 22.8456 40.9601 22.9428C40.9601 23.0076 40.9601 23.0401 40.9601 23.1049C40.9601 23.1373 40.9601 23.2021 40.9601 23.2021C40.9601 23.2021 40.9601 23.2345 40.9601 23.2669C40.9601 23.2993 40.9925 23.3317 40.9925 23.3641C41.0249 23.4289 41.0574 23.5261 41.0898 23.5585V23.5909C41.0898 23.5909 41.0898 23.6233 41.0898 23.6558C41.0898 23.6882 41.1222 23.753 41.1222 23.8178C41.1222 23.8826 41.1546 23.915 41.1546 23.915C41.1546 23.915 41.1546 23.9474 41.1546 24.0122C41.1546 24.077 41.1546 24.1094 41.187 24.1418C41.187 24.1742 41.187 24.239 41.187 24.3363C41.187 24.4335 41.187 24.5631 41.2194 24.6279C41.2194 24.6927 41.2194 24.7899 41.2194 24.8547C41.2194 24.9196 41.2194 24.9844 41.2194 25.0816C41.2194 25.1788 41.2194 25.4056 41.2518 26.313C41.2518 26.9287 41.2518 27.4147 41.2518 27.4472C41.2518 27.4796 41.2842 27.512 41.2842 27.512C41.2842 27.5444 41.3166 27.5444 41.3166 27.5444C41.3166 27.5768 41.349 27.5768 41.3814 27.5768C41.4138 27.5768 41.4786 27.5768 41.4786 27.6092C41.511 27.674 41.511 27.7064 41.5434 27.836C41.5434 27.9656 41.5434 27.998 41.5434 28.0304C41.5434 28.0629 41.5434 28.0629 41.5434 28.0953C41.5434 28.1277 41.5434 28.1277 41.5758 28.1277C41.5758 28.1277 41.5758 28.1277 41.5758 28.1601C41.5758 28.1925 41.5758 28.1925 41.6082 28.2249C41.6406 28.2573 41.6406 28.2573 41.7055 28.2573C41.8027 28.2573 42.0619 28.2573 42.1267 28.2249C42.1591 28.2249 42.1591 28.2249 42.1915 28.2249H42.2563C42.2887 28.2249 42.3212 28.2249 42.386 28.2249C42.4508 28.2249 42.4508 28.2249 42.4832 28.2249C42.5156 28.2249 42.5156 28.1925 42.5156 28.1925C42.5156 28.1601 42.5156 28.1277 42.4832 28.0953C42.4832 28.0629 42.4508 28.0629 42.4508 28.0629C42.4184 27.998 42.386 27.998 42.3536 27.9332C42.3212 27.9008 42.3212 27.9008 42.3212 27.9008C42.3212 27.9008 42.1915 27.7388 42.1267 27.7064C42.0943 27.674 42.0619 27.6416 42.0619 27.6092C42.0619 27.6092 42.0619 27.5768 42.0295 27.5768V27.5444V27.512C42.0295 27.512 41.9971 27.4472 41.9971 27.4147C41.9971 27.3823 41.9971 27.3499 41.9647 27.3175C41.9647 27.2851 41.9323 27.2203 41.9323 27.1879C41.9323 27.1231 41.9323 27.0907 41.8999 27.0907C41.8999 27.0907 41.8675 26.9611 41.8675 26.8639C41.8675 26.7991 41.8675 26.7666 41.8675 26.7342C41.8675 26.7018 41.8675 26.637 41.8675 26.5074C41.8675 26.3778 41.8675 26.2806 41.8675 26.2806C41.8351 26.2482 41.8351 24.4335 41.8351 24.077C41.8351 23.9798 41.8351 23.915 41.8675 23.8826C41.8675 23.8502 41.8675 23.8178 41.8675 23.8178C41.8675 23.8178 41.8675 23.7854 41.8999 23.7854C41.8999 23.7854 41.9323 23.753 41.9323 23.7206C41.9323 23.6882 41.9647 23.5585 41.9971 23.5261V23.4937C41.9971 23.4937 41.9971 23.4613 42.0295 23.4613C42.0295 23.4613 42.0295 23.4613 42.0295 23.4289C42.0295 23.4289 42.0295 23.3965 42.0619 23.3641C42.1267 23.2345 42.1591 23.1697 42.1591 23.1373C42.1591 23.1373 42.1915 23.1049 42.1915 23.0401C42.2239 23.0076 42.2239 22.9752 42.2239 22.9428L42.2887 22.8132C42.2887 22.8132 42.2887 22.7808 42.3212 22.7808L42.3536 22.7484V22.716V22.6836C42.3536 22.6836 42.3536 22.6512 42.386 22.6512L42.4184 22.6188V22.5864L42.4508 22.554C42.4508 22.554 42.4832 22.5216 42.4832 22.4892C42.5156 22.4244 42.5156 22.4244 42.548 22.3919C42.548 22.3595 42.5804 22.3595 42.5804 22.3595C42.5804 22.3595 42.5804 22.3595 42.5804 22.3271C42.5804 22.2947 42.5804 22.2947 42.6128 22.2623C42.6452 22.1975 42.6452 22.1975 42.71 22.1327C42.7424 22.1003 42.7424 22.0679 42.7748 22.0679V22.0355C42.7748 22.0355 42.7748 22.0031 42.8072 22.0031L42.8396 21.9707V21.9383C42.8396 21.9383 42.9044 21.8735 42.9044 21.8411V21.8087L42.9369 21.7763C42.9369 21.7438 42.9693 21.7114 43.0017 21.7114C43.0017 21.679 43.0341 21.679 43.0341 21.6466C43.0341 21.6142 43.0665 21.6142 43.0989 21.6142C43.0989 21.6142 43.0989 21.6142 43.0989 21.6466C43.0989 21.7114 43.0665 21.8735 43.0665 21.9059C43.0665 21.9059 43.0665 21.9707 43.0665 22.0031C43.0665 22.0355 43.0665 22.1003 43.0341 22.1003C43.0017 22.1003 43.0341 22.1327 43.0341 22.1651C43.0341 22.1651 43.0341 22.1975 43.0341 22.2299C43.0341 22.2623 43.0341 22.2623 43.0341 22.2947C43.0341 22.2947 43.0341 22.3271 43.0017 22.3595C43.0017 22.392 42.9693 22.4244 42.9693 22.4244V22.4568C42.9693 22.4568 42.9693 22.4892 42.9369 22.5216C42.9044 22.554 42.9044 22.5864 42.9044 22.6188C42.9044 22.6512 42.872 22.6836 42.872 22.6836C42.872 22.716 42.872 22.716 42.8396 22.7484V22.7808V22.8132C42.8396 22.8132 42.8396 22.8456 42.8072 22.8456C42.8072 22.8456 42.8072 22.878 42.7748 22.878C42.7748 22.878 42.7748 22.9104 42.7424 22.9428C42.71 22.9752 42.7424 23.0076 42.71 23.0076C42.6776 23.0725 42.6776 23.1697 42.6776 23.3317C42.6776 23.3965 42.71 23.4289 42.7424 23.5261C42.7748 23.6233 42.8072 23.6557 42.8072 23.6882C42.8072 23.6882 42.8396 23.7206 42.8396 23.753C42.8396 23.7854 42.872 23.7854 42.872 23.7854C42.872 23.7854 42.872 23.8178 42.9044 23.8178C42.9044 23.8502 42.9369 23.8502 42.9369 23.8502C42.9369 23.8502 42.9369 23.8502 42.9369 23.8826C42.9369 23.8826 42.9693 23.915 42.9693 23.9474C42.9693 23.9798 43.0017 24.0122 43.0341 24.0446C43.0665 24.077 43.0665 24.1094 43.0665 24.1094L43.0989 24.1418C43.1313 24.1742 43.1313 24.1742 43.1313 24.1742C43.1313 24.1742 43.1313 24.1742 43.1637 24.2066C43.1637 24.2066 43.1961 24.239 43.2285 24.2714C43.2609 24.3039 43.2933 24.3687 43.3581 24.4011C43.4877 24.5307 43.5201 24.5631 43.5201 24.5955C43.5201 24.6279 43.5525 24.6279 43.5525 24.6603L43.585 24.6927C43.585 24.6927 43.6174 24.7251 43.6174 24.7575C43.6174 24.7899 43.6498 24.7899 43.6498 24.8223C43.6498 24.8547 43.6822 24.8547 43.6822 24.8871C43.6822 24.9196 43.7146 24.9196 43.7146 24.952V24.9844C43.7146 24.9844 43.7146 25.0168 43.747 25.0168C43.7794 25.0816 43.8118 25.114 43.8118 25.114C43.8118 25.114 43.8442 25.1788 43.909 25.276C43.909 25.3084 43.9414 25.3084 43.9414 25.3084C43.9414 25.3084 43.9738 25.3408 43.9738 25.3732C43.9738 25.4056 44.0062 25.4056 44.0062 25.4056C44.0062 25.4056 44.0062 25.438 44.0386 25.438L44.071 25.4704V25.5028C44.071 25.5028 44.1034 25.5352 44.1034 25.5677C44.1034 25.5677 44.1034 25.6001 44.1358 25.6001V25.6325C44.1358 25.6325 44.1358 25.6649 44.1682 25.6649L44.2007 25.6973V25.7297V25.7621C44.2007 25.7621 44.2007 25.7945 44.2331 25.7945L44.2655 25.8269C44.2655 25.8269 44.2655 25.8593 44.2979 25.8593L44.3303 25.8917C44.3303 25.8917 44.4599 26.151 44.4599 26.1834C44.4599 26.1834 44.4599 26.2158 44.4923 26.2158C44.4923 26.2158 44.4923 26.2482 44.5247 26.2482V26.2806V26.313C44.5247 26.313 44.5247 26.313 44.5571 26.3454C44.5571 26.4102 44.5895 26.4102 44.5895 26.4102V26.4426C44.5895 26.4426 44.6219 26.5398 44.6867 26.6046C44.7191 26.7018 44.7515 26.7666 44.7839 26.7666C44.7839 26.7666 44.7839 26.7666 44.7839 26.7991C44.7839 26.7991 44.7839 26.8315 44.8164 26.8639C44.8164 26.8963 44.8488 26.9287 44.8812 26.9935C44.946 27.1555 44.9784 27.2203 45.0108 27.2203V27.2527L45.0432 27.2851L45.0756 27.3175C45.0756 27.3499 45.0756 27.3499 45.108 27.3823C45.108 27.4148 45.108 27.4148 45.1404 27.4796C45.1404 27.5444 45.1404 27.5768 45.108 27.6092L45.0756 27.6416C45.0756 27.6416 45.0756 27.674 45.0432 27.674C45.0108 27.7388 44.9784 27.8684 45.0432 27.8684C45.0432 27.8684 45.0432 27.8684 45.0756 27.8684C45.0756 27.8684 45.0756 27.8684 45.108 27.8684C45.108 27.8684 45.108 27.8684 45.1404 27.8684C45.1728 27.9008 45.3672 27.9656 45.5293 27.9656C45.5617 27.9656 45.6265 27.9656 45.6589 27.998C45.7237 27.998 45.9505 28.0304 45.9829 27.998C46.0153 27.998 46.0153 27.998 46.0153 27.9332C46.0153 27.9008 46.0153 27.8684 46.0153 27.836C46.0153 27.8036 45.9829 27.8036 45.9829 27.8036C45.9829 27.8036 45.9829 27.8036 45.9505 27.7712C45.9181 27.7388 45.9181 27.7388 45.9181 27.7388C45.9181 27.7388 45.9181 27.7388 45.9181 27.7064C45.9181 27.674 45.9181 27.674 45.9181 27.674C45.9181 27.674 45.8857 27.6416 45.8857 27.6092C45.8857 27.5768 45.8533 27.5444 45.8533 27.512C45.8533 27.4796 45.8209 27.4796 45.8209 27.4472C45.8209 27.4147 45.8209 27.4147 45.8209 27.4147C45.8209 27.4147 45.8209 27.3823 45.7885 27.3823C45.7885 27.3499 45.7561 27.3175 45.7561 27.3175V27.2851V27.2527C45.7561 27.2203 45.6913 27.0907 45.6913 27.0259C45.6913 26.9935 45.6589 26.9611 45.6589 26.9287V26.8963C45.6589 26.8963 45.6589 26.8639 45.6589 26.8315C45.6589 26.7991 45.6589 26.799 45.6589 26.7666C45.6589 26.7666 45.6589 26.7342 45.6265 26.7342L45.5941 26.7018C45.5941 26.6694 45.5293 26.5722 45.5293 26.5722C45.5293 26.5722 45.4969 26.5074 45.4969 26.4426L45.4645 26.4102C45.4645 26.4102 45.432 26.3778 45.432 26.3454V26.313V26.2806C45.432 26.2806 45.3996 26.2482 45.3996 26.2158C45.3672 26.1185 45.3348 26.0861 45.3348 26.0861C45.3348 26.0861 45.3348 26.0537 45.3024 26.0537C45.3024 26.0213 45.3024 26.0213 45.27 26.0213C45.27 26.0213 45.27 26.0213 45.2052 25.9241C45.1728 25.8917 45.1728 25.8593 45.1728 25.8269C45.1404 25.7945 45.1404 25.7621 45.1404 25.7297C45.1404 25.7297 45.0108 25.5353 45.0108 25.5028C45.0108 25.5028 45.0108 25.4704 44.9784 25.4704L44.946 25.438V25.4056V25.3732C44.946 25.3732 44.946 25.3732 44.946 25.3408L44.9136 25.3084C44.9136 25.276 44.8812 25.276 44.8812 25.2436C44.8812 25.2436 44.8488 25.2112 44.8488 25.1788C44.8488 25.1464 44.8164 25.1464 44.8164 25.114C44.8164 25.114 44.7839 25.0816 44.7839 25.0492C44.7839 25.0492 44.7839 25.0168 44.7515 25.0168L44.7191 24.9844C44.7191 24.952 44.7191 24.952 44.6867 24.952C44.6867 24.952 44.6543 24.9196 44.6543 24.8871C44.6543 24.8547 44.6219 24.8547 44.6219 24.8223C44.6219 24.8223 44.6219 24.7899 44.5895 24.7899C44.5895 24.7575 44.5571 24.7575 44.5571 24.7575C44.5571 24.7575 44.5571 24.7251 44.5247 24.7251C44.5247 24.6927 44.4923 24.6603 44.4599 24.6279L44.4275 24.5631C44.3951 24.4983 44.3951 24.4983 44.3303 24.4011C44.2979 24.3687 44.2979 24.3363 44.2655 24.3039L44.2331 24.2714V24.239L44.2007 24.2066C44.2007 24.2066 44.2007 24.1742 44.1682 24.1742V24.1418V24.1094V24.077V24.0446C44.1682 24.0446 44.1358 23.8826 44.1034 23.8178C44.1034 23.753 44.1034 22.9104 44.1034 22.7484C44.1358 22.4244 44.1358 22.3271 44.1682 22.2947V22.2299C44.1682 22.1975 44.1682 22.1651 44.2007 22.1651V22.1327C44.2007 22.1003 44.2331 22.0355 44.2331 22.0031V21.9707V21.9383C44.2331 21.9383 44.2331 21.9059 44.2655 21.8735C44.2655 21.8411 44.2655 21.8411 44.2655 21.8411C44.2655 21.8411 44.2979 21.7763 44.3303 21.679C44.3303 21.679 44.3303 21.6466 44.3627 21.6142C44.3627 21.6142 44.3627 21.5494 44.3951 21.517C44.3951 21.4846 44.4275 21.4522 44.4275 21.4522C44.4275 21.4522 44.4599 21.4198 44.4599 21.3874C44.4599 21.355 44.4923 21.2902 44.4923 21.2902C44.4923 21.2578 44.5247 21.2254 44.5247 21.2254V21.193V21.1606C44.5247 21.1606 44.5247 21.1281 44.5571 21.1281C44.5895 21.0957 44.5895 21.0633 44.6219 21.0309C44.6219 20.9985 44.6543 20.9661 44.6543 20.9661C44.6867 20.9661 44.6867 20.9337 44.6867 20.9013C44.6867 20.8689 44.6867 20.8689 44.7191 20.8365V20.8041C44.7191 20.8041 44.7191 20.7717 44.7191 20.7393C44.7515 20.6745 44.7839 20.48 44.7839 20.4152V20.3504H44.8164C44.8488 20.3504 44.8488 20.3504 44.8812 20.318L44.9136 20.2856H44.946C44.946 20.2856 44.9784 20.2532 45.0108 20.2532C45.0432 20.2532 45.0432 20.2208 45.1404 20.1884C45.1728 20.156 45.2052 20.156 45.2052 20.156C45.2052 20.156 45.2052 20.156 45.2376 20.156L45.27 20.1236C45.27 20.1236 45.3024 20.1236 45.3024 20.0912C45.3348 20.0912 45.3996 20.0264 45.432 20.0264C45.432 20.0264 45.4645 20.0264 45.4969 20.0264C45.5293 20.0264 45.5617 19.994 45.5617 19.994C45.5941 19.994 45.5941 19.994 45.6265 19.9616C45.6265 19.9616 45.6913 19.9616 45.7237 19.9292C45.7561 19.9292 45.7885 19.9292 45.8209 19.9292C45.8533 19.9292 45.9181 19.9292 45.9829 19.9292C46.0477 19.9292 46.145 19.9292 46.1774 19.9292C46.307 19.9292 46.5662 19.8968 46.6959 19.9292C46.7607 19.9292 46.7931 19.9292 46.8255 19.9616C46.8579 19.9616 46.9551 20.0912 46.9551 20.0912C46.9551 20.0912 46.9551 20.1236 46.9875 20.156C47.0199 20.1884 47.0523 20.318 47.0523 20.3828C47.0523 20.4152 47.0523 20.48 47.0523 20.48C47.0523 20.5125 47.0523 20.5449 47.0523 20.6097C47.0523 20.6421 47.0523 20.7069 47.0523 20.7069C47.0847 20.7393 47.0847 20.9337 47.0847 21.3874C47.0847 21.8411 47.0847 22.1975 47.0523 22.3595C47.0523 22.392 47.0523 22.5864 47.0523 22.7808C47.0523 22.9752 47.0523 23.1373 47.0523 23.1373C47.0523 23.1373 47.0199 23.2345 47.0199 23.3317C47.0199 23.3965 47.0199 23.6557 47.0199 23.6882C47.0199 23.7206 47.0199 23.753 47.0199 23.7854C47.0199 23.8178 47.0199 23.8826 47.0199 23.8826C47.0199 23.915 47.0199 23.9474 47.0199 23.9474C47.0199 23.9798 47.0199 23.9798 47.0523 24.0122L47.0847 24.077C47.0847 24.1094 47.0847 24.1418 47.1171 24.1742C47.1495 24.2066 47.1171 24.239 47.1171 24.3039C47.1171 24.3687 47.1171 24.4335 47.1495 24.4983C47.1819 24.6603 47.1819 24.8547 47.1819 25.1788C47.1819 25.3408 47.1819 25.5352 47.1819 25.6325C47.1819 25.7297 47.1819 25.8917 47.1819 25.9889C47.1819 26.1509 47.1819 26.1834 47.1819 26.2158C47.1819 26.2482 47.1495 26.2482 47.1495 26.2482C47.1495 26.2482 47.1495 26.2806 47.1171 26.2806C47.1171 26.313 47.0523 26.4102 47.0199 26.4102C47.0199 26.4102 46.9875 26.4102 46.9875 26.4426C46.9227 26.475 46.8579 26.5398 46.8579 26.5398C46.8579 26.5398 46.8255 26.5398 46.8255 26.5722L46.7931 26.6046H46.7607C46.7283 26.637 46.5662 26.6694 46.5338 26.6694C46.5014 26.6694 46.5014 26.6694 46.469 26.7018C46.4366 26.7342 46.4366 26.7666 46.4366 26.8315C46.4366 26.8963 46.4366 27.0259 46.469 27.0583C46.469 27.0583 46.469 27.0907 46.469 27.1231C46.469 27.1231 46.469 27.1879 46.5014 27.1879C46.5014 27.2203 46.5338 27.2527 46.5338 27.2527C46.5338 27.2851 46.5338 27.2851 46.5338 27.2851C46.5338 27.2851 46.5338 27.2851 46.5662 27.3175C46.5662 27.3499 46.5662 27.3499 46.5986 27.3823C46.631 27.4148 46.631 27.4148 46.6634 27.4796C46.7283 27.5768 46.7283 27.5768 46.7607 27.6416C46.8255 27.7064 46.8255 27.7064 46.8903 27.7064C46.9551 27.7064 46.9875 27.674 46.9875 27.6416V27.6092V27.5768C46.9875 27.512 47.0199 27.4147 47.0523 27.3499C47.0523 27.3175 47.0847 27.2851 47.0847 27.2851V27.2527C47.0847 27.2203 47.0847 27.2203 47.0847 27.2203L47.1171 27.1555C47.1495 27.1555 47.1495 27.1555 47.1495 27.1879C47.1495 27.2203 47.1495 27.2527 47.1495 27.2527C47.1495 27.2851 47.1819 27.2851 47.1819 27.2851C47.1819 27.2851 47.1819 27.3175 47.2143 27.3499C47.2143 27.3823 47.2467 27.4147 47.2467 27.4147V27.4472C47.2467 27.4472 47.2791 27.512 47.3115 27.5444L47.344 27.6092V27.7064C47.344 27.7712 47.344 27.8036 47.3115 27.836V27.8684C47.3115 27.9008 47.3115 27.9008 47.2791 27.9332C47.2467 27.9656 47.2467 27.998 47.2791 28.0304C47.2791 28.0629 47.344 28.1277 47.344 28.1277H47.3764C47.3764 28.1277 47.4088 28.1277 47.4088 28.1601H47.4412C47.4412 28.1601 47.4736 28.1601 47.506 28.1925C47.5384 28.1925 47.6032 28.2249 47.6356 28.2249C47.7004 28.2249 47.7328 28.2249 47.9597 28.2249C48.1541 28.2249 48.2189 28.2249 48.2513 28.2249C48.2513 28.2249 48.2837 28.2249 48.3161 28.1925C48.3485 28.1925 48.3485 28.1925 48.3485 28.1601C48.3485 28.1277 48.3485 28.0953 48.3485 28.0629C48.3485 28.0304 48.2837 27.998 48.2837 27.998L48.2513 27.9656C48.1865 27.9332 48.0893 27.836 48.0893 27.836V27.8036L48.0569 27.7712C48.0569 27.7712 48.0245 27.7388 48.0245 27.7064C48.0245 27.674 47.9921 27.6416 47.9921 27.6416C47.9921 27.6092 47.9597 27.6092 47.9597 27.6092C47.9597 27.6092 47.9596 27.5768 47.9272 27.5444C47.9272 27.512 47.8948 27.4796 47.8948 27.4796C47.83 27.3823 47.83 27.3823 47.83 27.0907C47.83 26.8315 47.83 26.7991 47.7976 26.7342C47.7976 26.6694 47.7652 26.6046 47.7652 26.5722C47.7652 26.5398 47.7328 26.5074 47.7328 26.5074V26.475C47.7328 26.475 47.7328 26.475 47.7328 26.4426V26.4102V26.3778V26.3454C47.7328 26.313 47.7328 26.2158 47.7976 26.1509C47.7976 26.1185 47.83 26.0861 47.83 26.0537C47.8624 25.9565 47.8948 25.9241 47.9272 25.8593C47.9596 25.8269 47.9597 25.7945 47.9597 25.7945V25.7621C47.9597 25.7621 47.9597 25.7297 47.9921 25.7297C48.0245 25.6649 48.0245 25.6649 48.0569 25.6325L48.0893 25.6001C48.1217 25.5677 48.1217 25.5353 48.1217 25.5353C48.1217 25.5353 48.1217 25.5028 48.1541 25.5028C48.1541 25.4704 48.1865 25.4704 48.1865 25.4704C48.1865 25.4704 48.1865 25.438 48.2189 25.438L48.2513 25.4056V25.3732C48.2513 25.3732 48.2513 25.3732 48.2837 25.3408C48.2837 25.3084 48.3161 25.3084 48.3161 25.3084C48.3161 25.3084 48.3485 25.276 48.3809 25.2436C48.4133 25.2112 48.4133 25.1788 48.4457 25.1788C48.4457 25.1788 48.4457 25.1788 48.4457 25.1464C48.4457 25.1464 48.4457 25.1464 48.4781 25.114L48.5105 25.0816V25.0492L48.5429 25.0168C48.5753 24.9844 48.5753 24.952 48.5753 24.952V24.9196C48.5753 24.9196 48.5753 24.9196 48.6078 24.8871C48.6078 24.8547 48.6402 24.8547 48.6402 24.8547V24.8223V24.7899C48.6402 24.7899 48.6402 24.7575 48.6726 24.7575L48.705 24.7251C48.705 24.7251 48.7698 24.6279 48.8022 24.5955V24.5631C48.8022 24.5631 48.8346 24.5307 48.867 24.4983C48.8994 24.4659 48.9318 24.4335 48.9318 24.4011V24.3687C48.9318 24.3687 48.9318 24.3363 48.9642 24.3363C48.9966 24.3363 48.9966 24.3039 48.9966 24.3039C48.9966 24.3039 48.9966 24.2714 49.029 24.2714C49.0614 24.2714 49.0614 24.239 49.0614 24.239C49.0938 24.2066 49.0938 24.2066 49.1262 24.1418L49.1586 24.1094L49.191 24.077C49.2234 24.0446 49.2235 24.0446 49.2235 24.0122C49.2235 24.0122 49.2235 24.0122 49.2235 23.9798C49.2235 23.9798 49.2883 23.915 49.2883 23.8826C49.2883 23.8826 49.2883 23.8826 49.3207 23.8502L49.3531 23.8178C49.3531 23.8178 49.3855 23.7854 49.3855 23.753C49.4179 23.7206 49.4179 23.7206 49.4179 23.6882C49.4179 23.6882 49.4179 23.6882 49.4179 23.6558V23.6233C49.4179 23.6233 49.4503 23.5585 49.4827 23.5261V23.4937C49.4827 23.4937 49.4827 23.4613 49.5151 23.4289C49.5151 23.3965 49.5475 23.3965 49.5475 23.3641V23.3317C49.5799 23.2993 49.5799 23.1697 49.5799 23.0076C49.5799 22.8456 49.5799 22.7808 49.5151 22.6188C49.5151 22.5864 49.5151 22.554 49.4827 22.554C49.4827 22.5216 49.4503 22.4892 49.4503 22.4892C49.4503 22.4568 49.4503 22.4568 49.4503 22.4244C49.4503 22.4244 49.4503 22.392 49.4179 22.3595C49.4179 22.3271 49.3855 22.3271 49.3855 22.2947C49.3855 22.2947 49.3855 22.2623 49.3531 22.2299C49.3531 22.2299 49.3531 22.1975 49.3207 22.1651C49.3207 22.1327 49.2883 22.1003 49.2883 22.1003C49.2883 22.1003 49.2883 22.0679 49.2559 22.0679C49.2235 22.0679 49.2559 22.0355 49.2235 22.0031C49.2235 21.9707 49.191 21.9707 49.191 21.9383C49.191 21.9059 49.191 21.9059 49.191 21.9059C49.191 21.9059 49.1911 21.8735 49.1586 21.8735C49.1586 21.8411 49.1262 21.7763 49.0614 21.6466C49.0614 21.6142 49.029 21.5818 49.029 21.5818C49.029 21.5818 49.029 21.5494 48.9966 21.517C48.9966 21.4846 48.9966 21.4846 48.9966 21.4522V21.4198C48.9966 21.3874 48.9642 21.355 48.9642 21.3226C48.9642 21.2902 48.9318 21.2254 48.9318 21.2254C48.9318 21.193 48.9318 21.193 48.9318 21.1606V21.1281V21.0957C48.9318 21.0957 48.9318 21.0633 48.8994 21.0309C48.8994 20.9985 48.867 20.9661 48.867 20.9661C48.867 20.9661 48.867 20.9337 48.867 20.9013C48.867 20.8689 48.8346 20.8365 48.8346 20.8041C48.8346 20.7717 48.8022 20.7069 48.8022 20.7069C48.8022 20.6745 48.7698 20.6097 48.7698 20.5449C48.7698 20.5124 48.7698 20.48 48.7374 20.4476C48.7374 20.4152 48.7374 20.3828 48.7374 20.3828V20.3504C48.7374 20.3504 48.7374 20.318 48.705 20.2856C48.6726 20.2532 48.705 20.2208 48.705 20.2208C48.6726 20.156 48.6726 20.1236 48.6726 20.0588C48.6726 20.0264 48.6726 19.994 48.6402 19.994C48.6078 19.994 48.6402 19.9616 48.6402 19.9292C48.6402 19.8968 48.6402 19.8319 48.6402 19.7995C48.6402 19.6699 48.6402 19.4755 48.6726 19.3783C48.6726 19.3459 48.6726 19.3459 48.6726 19.3135C48.6726 19.2811 48.6726 19.2811 48.6726 19.2811C48.6726 19.2811 48.6726 19.2811 48.6726 19.2486V19.2162C48.6726 19.2162 48.6726 19.1838 48.705 19.1838C48.705 19.1514 48.705 19.1514 48.705 19.119C48.705 19.119 48.7374 19.0866 48.7374 19.0542C48.7698 18.9894 48.7698 18.957 48.8022 18.9246C48.8022 18.8922 48.8346 18.8598 48.8346 18.8598C48.8346 18.8598 48.8346 18.8274 48.867 18.8274V18.795C48.867 18.795 48.867 18.795 48.8994 18.7626C48.8994 18.7302 48.9318 18.6978 48.9642 18.633C48.9642 18.633 48.9966 18.6005 48.9966 18.5681C49.029 18.5357 49.0938 18.4709 49.0938 18.4385V18.4061L49.1262 18.3737C49.1262 18.3413 49.1586 18.3413 49.1586 18.3413C49.1586 18.3413 49.1586 18.3413 49.1586 18.3089V18.2765V18.2441V18.2117C49.1911 18.1793 49.191 18.0497 49.191 17.92C49.191 17.7904 49.191 17.7256 49.1262 17.6608C49.1262 17.6284 49.0938 17.596 49.0938 17.596L49.0614 17.5636C49.0614 17.5636 49.029 17.4664 48.9966 17.434V17.4016V17.3691C48.9966 17.3691 48.9642 17.3043 48.9318 17.2719C48.8994 17.2071 48.867 17.1747 48.867 17.1747V17.1423C48.867 17.1423 48.8346 17.1099 48.8346 17.0775C48.8346 17.0451 48.8022 17.0127 48.8022 17.0127C48.7374 16.9155 48.7374 16.8831 48.7374 16.8831C48.7374 16.8831 48.7374 16.8183 48.7374 16.7859C48.7374 16.7535 48.8022 16.721 48.8346 16.6886C48.867 16.6562 48.9318 16.5914 48.9318 16.559C48.9642 16.5266 48.9966 16.4942 48.9966 16.4942C48.9966 16.4942 48.9966 16.4942 48.9966 16.4618C48.9966 16.4618 49.029 16.397 49.0614 16.3646C49.0614 16.3646 49.0938 16.3322 49.0938 16.2998C49.0938 16.2674 49.1262 16.2674 49.1262 16.2674L49.1586 16.235C49.1586 16.235 49.191 16.2026 49.191 16.1702L49.2235 16.1378L49.2559 16.1053V16.0729V16.0405C49.2559 16.0405 49.2559 16.0405 49.2559 16.0081L49.2883 15.9757L49.3207 15.9433C49.3207 15.9433 49.3207 15.9109 49.3531 15.8785C49.4503 15.7165 49.5151 15.6517 49.5151 15.6193C49.5151 15.6193 49.5475 15.5869 49.5475 15.5545C49.5799 15.5221 49.5799 15.4897 49.5799 15.4897C49.5799 15.4897 49.5799 15.4572 49.6123 15.4572C49.6447 15.4248 49.6447 15.3924 49.6771 15.36L49.7095 15.3276C49.7095 15.3276 49.7095 15.3276 49.7095 15.2952V15.2628C49.7095 15.2628 49.7095 15.2628 49.7419 15.2304C49.7419 15.198 49.7743 15.198 49.8391 15.1008C49.8716 15.0684 49.8716 15.036 49.8716 15.0036C49.8716 14.9712 49.8716 14.9712 49.904 14.9712C49.9364 14.9712 49.9364 14.9388 49.9688 14.874L50.0012 14.8415V14.8091V14.7767V14.7443C50.0012 14.7443 50.0012 14.7443 50.0012 14.7119L50.066 14.5823C50.066 14.5823 50.066 14.5823 50.0984 14.5499C50.0984 14.5175 50.1308 14.5175 50.1308 14.5175C50.1308 14.5175 50.1308 14.4851 50.1632 14.4851C50.1632 14.4527 50.1632 14.4527 50.1632 14.4527C50.1632 14.4527 50.1632 14.4527 50.1956 14.4203L50.228 14.3879C50.228 14.3879 50.228 14.3879 50.228 14.3555V14.3231V14.2907C50.228 14.2907 50.228 14.2583 50.2604 14.2583C50.2928 14.2583 50.2928 14.2258 50.2928 14.2258C50.2928 14.2258 50.3252 14.161 50.3576 14.0962C50.3576 14.0962 50.3576 14.0638 50.39 14.0638C50.39 14.0638 50.39 14.0314 50.4224 14.0314C50.4549 14.0314 50.4548 13.9666 50.4872 13.9018C50.5197 13.837 50.5197 13.8046 50.5197 13.8046C50.5197 13.8046 50.5197 13.8046 50.5197 13.7722V13.7398C50.5197 13.7398 50.5197 13.7074 50.5521 13.7074L50.5845 13.675V13.6426C50.5845 13.6426 50.5845 13.6426 50.5845 13.6102C50.5845 13.6102 50.6493 13.4805 50.6493 13.4481C50.6493 13.4481 50.6817 13.3833 50.7141 13.3509C50.7141 13.3509 50.7141 13.3185 50.7465 13.3185C50.7465 13.3185 50.7789 13.2861 50.7789 13.2537C50.7789 13.2537 50.7789 13.2213 50.8113 13.2213C50.8437 13.2213 50.8113 13.2213 50.8113 13.1889C50.8113 13.1565 50.8113 13.1565 50.8437 13.1565C50.8437 13.1565 50.8437 13.1565 50.8437 13.1241V13.0917V13.0593V13.0269C50.8437 13.0269 50.8437 12.9945 50.8761 12.9945C50.8761 12.9945 50.9085 12.9296 50.9409 12.8648C50.9733 12.8 51.0057 12.7676 51.0057 12.7352C51.0057 12.7352 51.0057 12.7028 51.0381 12.6704C51.0381 12.638 51.0705 12.638 51.0705 12.638C51.0705 12.638 51.1354 12.5084 51.1678 12.476C51.1678 12.476 51.2002 12.4436 51.2002 12.4112C51.2002 12.4112 51.2002 12.3788 51.2326 12.3788C51.265 12.3139 51.265 12.2815 51.2974 12.2491C51.2974 12.2491 51.2974 12.2167 51.3298 12.2167V12.1843C51.3298 12.1843 51.3298 12.1519 51.3622 12.1195C51.3946 12.0223 51.4594 11.9251 51.4594 11.8927C51.4594 11.8927 51.4594 11.8603 51.4918 11.8603C51.4918 11.8603 51.5242 11.8279 51.5566 11.6982C51.589 11.6334 51.6214 11.5362 51.6538 11.5038C51.6538 11.5038 51.6538 11.4714 51.6862 11.4714C51.6862 11.439 51.7187 11.3742 51.7187 11.3742C51.7187 11.3742 51.7187 11.3742 51.7187 11.3418V11.3094C51.7187 11.277 51.7511 11.2446 51.7511 11.2122C51.7511 11.2122 51.7835 11.1798 51.7835 11.1474C51.7835 11.115 51.8159 11.0501 51.8483 11.0177C51.8807 10.9205 51.8807 10.9205 51.9131 10.8881C51.9131 10.8881 51.9455 10.8557 51.9455 10.8233C51.9455 10.7909 51.9779 10.7909 51.9779 10.7909C51.9779 10.7909 51.9779 10.7585 52.0103 10.7585L52.0427 10.7261V10.6937C52.0751 10.6613 52.0751 10.5965 52.0751 10.5965C52.0751 10.5965 52.0751 10.5965 52.0751 10.5641V10.5317C52.0751 10.5317 52.0751 10.5317 52.0751 10.4993C52.0751 10.4993 52.0751 10.4669 52.1075 10.4669L52.1399 10.4344L52.1723 10.402C52.2047 10.3696 52.2047 10.3696 52.2047 10.3696L52.2371 10.3372L52.2695 10.3048C52.2695 10.3048 52.3019 10.2724 52.3343 10.2724C52.3668 10.2724 52.3668 10.24 52.3992 10.24H52.4316H52.464C52.4964 10.24 52.4964 10.24 52.5288 10.24H52.5612H52.5936L52.626 10.2724C52.6584 10.2724 52.6584 10.3048 52.6584 10.3048C52.6584 10.3048 52.7556 10.3372 52.788 10.3372C52.8204 10.3372 52.8528 10.3372 52.8528 10.3696C52.8852 10.3696 52.8852 10.3696 52.9176 10.3696C52.9176 10.3696 52.9825 10.3696 53.0149 10.402C53.0797 10.402 53.1121 10.4344 53.3713 10.4344H53.663L53.6954 10.4669C53.7926 10.4993 53.825 10.5317 53.825 10.5317C53.825 10.5317 53.825 10.5317 53.8574 10.5317C53.8574 10.5317 53.8898 10.5641 53.9222 10.5965C53.9222 10.5965 53.9546 10.6289 53.987 10.6289C54.0194 10.6289 54.0194 10.6613 54.0194 10.6613C54.0194 10.6613 54.0842 10.6937 54.1814 10.6937C54.2463 10.6937 54.2463 10.6937 54.2787 10.6613C54.3111 10.6289 54.3759 10.5965 54.3759 10.5317C54.3759 10.4993 54.3759 10.4993 54.4407 10.4669C54.4731 10.4669 54.5055 10.4344 54.5055 10.4344C54.5379 10.4344 54.5703 10.402 54.5703 10.3696C54.5703 10.3696 54.5703 10.3372 54.6027 10.3372C54.6351 10.3372 54.6027 10.2076 54.5703 10.1428L54.5379 10.1104C54.5379 10.1104 54.5379 10.078 54.5055 10.0456C54.4731 10.0132 54.4083 9.94837 54.3435 9.88356C54.3111 9.85115 54.3111 9.85115 54.2787 9.85115C54.2787 9.85115 54.2787 9.85115 54.2463 9.81875H54.2138C54.2138 9.81875 54.1814 9.78634 54.149 9.72153C54.1166 9.65672 54.0842 9.65672 54.0842 9.62432C54.0842 9.62432 54.0518 9.59191 54.0194 9.55951C53.987 9.5271 53.9546 9.4947 53.9546 9.4947L53.9222 9.46229C53.8898 9.42988 53.8898 9.39748 53.8574 9.39748C53.825 9.39748 53.825 9.36507 53.825 9.36507C53.7926 9.33267 53.5657 9.10583 53.5657 9.07343C53.5657 9.07343 53.5657 9.07343 53.5333 9.07343C53.5333 9.07343 53.5333 9.07343 53.5009 9.07343C53.5009 9.07343 53.4685 9.04102 53.4361 9.00862C53.3713 8.94381 53.3389 8.9114 53.3065 8.81419C53.3065 8.78178 53.3065 8.74938 53.3065 8.58735C53.3065 8.42533 53.3065 8.39292 53.3065 8.39292C53.3065 8.39292 53.3065 8.39292 53.3065 8.36052C53.3065 8.36052 53.2093 8.32811 53.1769 8.32811C53.1769 8.32811 53.1445 8.32811 53.1121 8.32811H53.0797H53.0473C52.9825 8.36051 52.95 8.36051 52.9176 8.32811C52.9176 8.32811 52.9176 8.2957 52.8852 8.2957C52.8852 8.2957 52.8204 8.19849 52.8204 8.16608C52.8204 8.16608 52.8204 8.13368 52.788 8.10127C52.788 8.06887 52.7556 8.03646 52.7556 7.71241C52.7556 7.48558 52.7556 7.35595 52.7556 7.35595C52.7556 7.35595 52.7232 7.35595 52.6584 7.35595C52.5936 7.35595 52.5612 7.35596 52.5288 7.38836C52.4964 7.38836 52.464 7.42076 52.4316 7.42076L52.3992 7.45317V7.51798C52.3992 7.58279 52.3992 7.58279 52.4316 7.6152L52.464 7.6476C52.464 7.6476 52.464 7.6476 52.4964 7.68001C52.5612 7.77722 52.5612 7.97165 52.4964 8.06887C52.4964 8.10127 52.464 8.13368 52.464 8.13368C52.464 8.16608 52.4316 8.16608 52.3668 8.10127L52.3343 8.06887L52.3019 8.03646C52.3019 8.03646 52.3019 8.00406 52.2695 7.97165C52.2695 7.93925 52.2371 7.90684 52.2371 7.87444C52.2371 7.84203 52.2047 7.80962 52.2047 7.80962C52.2047 7.77722 52.1399 7.6476 52.1399 7.6476V7.6152V7.58279C52.1075 7.48557 52.1075 7.48557 52.1075 7.42076C52.1075 7.35595 52.0751 7.35595 52.0427 7.32355C52.1075 7.6476 52.0751 7.6476 52.0751 7.6476ZM47.83 21.4198L47.8624 21.4522V21.4846V21.517V21.5494L47.8948 21.5818C47.8948 21.5818 47.9272 21.679 47.9597 21.7114L47.9921 21.7438V21.7763C47.9921 21.8087 48.0245 21.8087 48.0245 21.8087C48.0245 21.8087 48.0245 21.8411 48.0569 21.8735C48.0893 21.9059 48.0893 21.9383 48.1217 21.9707V22.0031C48.1217 22.0031 48.1541 22.0355 48.1541 22.0679C48.1541 22.1003 48.1865 22.1327 48.1865 22.1327C48.2189 22.1975 48.2837 22.2947 48.2837 22.3271C48.2837 22.3271 48.2837 22.3595 48.3161 22.3595V22.3919V22.4244V22.4568V22.4892C48.3161 22.4892 48.3161 22.4892 48.3161 22.5216C48.3161 22.5216 48.3485 22.5864 48.3809 22.6512C48.4133 22.716 48.4457 22.7808 48.4457 22.8132C48.4457 22.8456 48.4781 22.8456 48.4781 22.878C48.4781 22.9104 48.4781 22.9104 48.4781 22.9104V22.9428C48.4781 22.9752 48.5429 23.1373 48.5429 23.1373V23.1697C48.5429 23.2021 48.5429 23.2021 48.5429 23.2021C48.5429 23.2021 48.5429 23.2345 48.5753 23.2669C48.6078 23.3317 48.6078 23.3317 48.6078 23.4937C48.6078 23.6558 48.6078 23.6882 48.5753 23.7206C48.5753 23.753 48.5429 23.7854 48.5429 23.7854V23.8178C48.5429 23.8178 48.5429 23.8502 48.5105 23.8502V23.8826L48.4457 24.0122C48.4457 24.0122 48.4457 24.0446 48.4133 24.0446C48.3809 24.077 48.3485 24.1094 48.3485 24.1094C48.3485 24.1094 48.3485 24.1094 48.3161 24.1418L48.2837 24.1742C48.2837 24.1742 48.2513 24.2066 48.2513 24.239L48.2189 24.2714C48.2189 24.2714 48.2189 24.3039 48.1865 24.3039C48.1865 24.3363 48.1541 24.3363 48.1541 24.3687C48.1541 24.3687 48.1541 24.4011 48.1217 24.4011C48.1217 24.4335 48.0569 24.4983 48.0569 24.4983C48.0569 24.4983 48.0569 24.4983 48.0245 24.5307L47.9921 24.5631C47.9921 24.5631 47.9921 24.5631 47.9597 24.5955C47.9597 24.6279 47.9272 24.6279 47.9272 24.6279C47.9272 24.6279 47.8948 24.6279 47.8948 24.6603C47.8948 24.6603 47.8948 24.6927 47.8624 24.7251C47.83 24.7575 47.83 24.7899 47.83 24.7899C47.83 24.8223 47.7976 24.8223 47.7976 24.8547C47.7976 24.8871 47.7652 24.8871 47.7652 24.8871C47.7652 24.8871 47.7652 24.8871 47.7652 24.9196V24.952C47.7652 24.952 47.7652 24.9844 47.7328 24.9844C47.7004 25.0168 47.668 25.0492 47.668 25.0816C47.668 25.114 47.668 25.114 47.6356 25.114C47.6356 25.114 47.6032 25.114 47.6032 25.1464C47.6032 25.1788 47.5708 25.1788 47.5708 25.2112L47.5384 25.2436C47.5384 25.2436 47.5384 25.2436 47.5384 25.276C47.5384 25.276 47.506 25.276 47.506 25.3084C47.4736 25.3732 47.4736 25.3732 47.4412 25.438C47.4088 25.4704 47.4088 25.5028 47.4088 25.5028C47.4088 25.5028 47.4088 25.5353 47.3764 25.5353L47.344 25.5677C47.344 25.5677 47.344 25.6001 47.3115 25.6001C47.2791 25.6325 47.2791 25.6325 47.2791 25.6001C47.2791 25.6001 47.2791 25.5352 47.2791 24.9844C47.2791 24.4659 47.2791 24.3687 47.3115 24.3687C47.3115 24.3687 47.3115 24.3363 47.344 24.3039C47.344 24.2714 47.344 24.239 47.3764 24.2066C47.3764 24.1742 47.4088 24.1418 47.4088 24.1418C47.4088 24.1094 47.4088 24.1094 47.4412 24.077C47.4736 23.9798 47.506 23.8826 47.506 23.8502C47.506 23.8502 47.506 23.7854 47.5384 23.753C47.5708 23.6558 47.5708 23.4289 47.5384 23.3965C47.5384 23.3965 47.5384 23.2993 47.5384 23.0401C47.5708 22.1651 47.5708 22.1651 47.6032 21.7438C47.6032 21.7114 47.6032 21.6466 47.6032 21.6466C47.6032 21.6466 47.6032 21.6142 47.6032 21.5818C47.6032 21.5494 47.6032 21.517 47.6356 21.517V21.4846C47.7976 21.4846 47.7976 21.4522 47.83 21.4198Z" fill="black"/>
</svg>
