<svg width="65" height="65" viewBox="0 0 65 65" fill="none" xmlns="http://www.w3.org/2000/svg">
<path d="M37.2396 55.3244H27.7604C27.1061 55.3226 26.4793 55.0615 26.0173 54.5982C25.5553 54.1349 25.2958 53.5073 25.2958 52.8531V52.4197C25.291 50.5036 24.8729 48.6111 24.0702 46.8713C23.2674 45.1314 22.0989 43.5852 20.6443 42.338C17.8429 39.9208 15.8468 36.7056 14.923 33.1227C13.9993 29.5398 14.1921 25.7603 15.4756 22.29C16.7591 18.8197 19.072 15.8242 22.1048 13.7047C25.1376 11.5851 28.7454 10.4425 32.4455 10.4299C36.1455 10.4173 39.7611 11.5352 42.8082 13.6341C45.8554 15.7329 48.1887 18.7125 49.4959 22.1739C50.803 25.6354 51.0216 29.4135 50.1223 33.0026C49.223 36.5917 47.2489 39.8205 44.4641 42.2567C42.9949 43.5132 41.8118 45.0697 40.9942 46.8215C40.1767 48.5733 39.7438 50.4799 39.7245 52.413V52.8463C39.7254 53.1726 39.6617 53.4958 39.537 53.7973C39.4124 54.0988 39.2293 54.3726 38.9983 54.603C38.7672 54.8334 38.4929 55.0157 38.1911 55.1396C37.8892 55.2634 37.5658 55.3262 37.2396 55.3244ZM32.5 11.7947H31.9922C28.6097 11.8972 25.337 13.0188 22.6028 15.0127C19.8686 17.0066 17.8003 19.7799 16.6689 22.9692C15.5375 26.1585 15.3957 29.6151 16.2621 32.8863C17.1285 36.1576 18.9627 39.0909 21.5245 41.302C23.126 42.676 24.4123 44.3792 25.2957 46.2955C26.179 48.2118 26.6387 50.2961 26.6432 52.4062V52.8395C26.6414 52.9874 26.669 53.1341 26.7244 53.2712C26.7797 53.4083 26.8617 53.5331 26.9656 53.6383C27.0695 53.7434 27.1933 53.827 27.3297 53.8839C27.4662 53.9409 27.6126 53.9703 27.7604 53.9703H37.2396C37.5347 53.9685 37.8171 53.85 38.0252 53.6407C38.2332 53.4313 38.35 53.1482 38.35 52.8531V52.4197C38.3719 50.2915 38.8484 48.1925 39.7476 46.2634C40.6467 44.3343 41.9478 42.6197 43.5635 41.2343C46.1354 38.9836 47.9595 36.0019 48.7925 32.6873C49.6254 29.3727 49.4276 25.8829 48.2253 22.6837C47.023 19.4846 44.8735 16.7282 42.0638 14.7826C39.254 12.8369 35.9176 11.7946 32.5 11.7947Z" fill="black"/>
<path d="M36.4813 61.1339H28.5255C27.9754 61.1339 27.4477 60.9158 27.0581 60.5275C26.6685 60.1391 26.4487 59.6121 26.4469 59.062V54.6474C26.4469 54.4678 26.5182 54.2956 26.6452 54.1686C26.7722 54.0417 26.9444 53.9703 27.124 53.9703H37.876C38.0556 53.9703 38.2278 54.0417 38.3548 54.1686C38.4818 54.2956 38.5531 54.4678 38.5531 54.6474V59.062C38.5513 59.611 38.3325 60.1369 37.9443 60.5251C37.5561 60.9132 37.0302 61.1321 36.4813 61.1339ZM27.801 55.3245V59.062C27.8028 59.253 27.8799 59.4355 28.0156 59.5699C28.1513 59.7043 28.3345 59.7797 28.5255 59.7797H36.4813C36.6711 59.7779 36.8526 59.7018 36.9868 59.5676C37.121 59.4333 37.1972 59.2518 37.199 59.062V55.3245H27.801Z" fill="black"/>
<path d="M34.7005 55.3245H34.6396C34.5505 55.3168 34.4639 55.2916 34.3846 55.2503C34.3054 55.209 34.2351 55.1524 34.1778 55.0838C34.1205 55.0152 34.0774 54.9359 34.0509 54.8506C34.0244 54.7652 34.0151 54.6754 34.0234 54.5865L35.3776 39.9885C35.4259 39.4388 35.6122 38.9101 35.9193 38.4516L38.3771 34.7547C38.5722 34.4652 38.6875 34.1293 38.7113 33.781C38.7351 33.4326 38.6665 33.0842 38.5125 32.7708C38.3813 32.4829 38.1763 32.2348 37.9182 32.0517C37.6602 31.8686 37.3583 31.757 37.0432 31.7281C36.9082 31.7146 36.7721 31.7146 36.637 31.7281C35.6749 31.855 34.7016 31.5971 33.9286 31.0104C33.5322 30.7007 33.0437 30.5325 32.5406 30.5325C32.0376 30.5325 31.549 30.7007 31.1526 31.0104C30.3796 31.5971 29.4063 31.855 28.4443 31.7281C28.3092 31.7146 28.1731 31.7146 28.038 31.7281C27.7229 31.757 27.4211 31.8686 27.163 32.0517C26.905 32.2348 26.7 32.4829 26.5688 32.7708C26.4148 33.0842 26.3462 33.4326 26.37 33.781C26.3937 34.1293 26.509 34.4652 26.7042 34.7547L29.1146 38.4448C29.4217 38.9033 29.608 39.432 29.6562 39.9818L31.0104 54.5797C31.0188 54.6687 31.0095 54.7584 30.983 54.8438C30.9565 54.9292 30.9133 55.0084 30.8561 55.077C30.7988 55.1457 30.7285 55.2022 30.6492 55.2436C30.57 55.2849 30.4833 55.3101 30.3943 55.3177C30.2167 55.3328 30.0404 55.2773 29.9035 55.1632C29.7666 55.0491 29.6802 54.8857 29.663 54.7083L28.3089 40.1037C28.278 39.7778 28.1688 39.4642 27.9906 39.1896L25.526 35.4995C25.2065 35.0124 25.0181 34.4512 24.9789 33.87C24.9398 33.2888 25.0513 32.7073 25.3026 32.1818C25.5359 31.6831 25.8954 31.254 26.3455 30.937C26.7956 30.6199 27.3206 30.4258 27.8687 30.374C28.0939 30.3519 28.3207 30.3519 28.5458 30.374C29.1603 30.4602 29.7845 30.3102 30.2927 29.9542C30.9339 29.4567 31.7223 29.1868 32.5339 29.1868C33.3454 29.1868 34.1338 29.4567 34.775 29.9542C35.2832 30.3102 35.9074 30.4602 36.5219 30.374C36.747 30.3519 36.9738 30.3519 37.199 30.374C37.7471 30.4258 38.2721 30.6199 38.7222 30.937C39.1723 31.254 39.5318 31.6831 39.7651 32.1818C40.0164 32.7073 40.1279 33.2888 40.0888 33.87C40.0496 34.4512 39.8612 35.0124 39.5417 35.4995L37.0771 39.1896C36.8989 39.4642 36.7897 39.7778 36.7589 40.1037L35.4047 54.7083C35.3892 54.8819 35.3073 55.0429 35.1762 55.1576C35.045 55.2724 34.8746 55.3321 34.7005 55.3245Z" fill="black"/>
<path d="M33.8 63.6458H31.2C30.3548 63.644 29.5446 63.3075 28.947 62.7098C28.3493 62.1121 28.0127 61.302 28.0109 60.4567C28.0109 60.2772 28.0823 60.105 28.2092 59.978C28.3362 59.851 28.5084 59.7797 28.688 59.7797H36.312C36.4916 59.7797 36.6638 59.851 36.7908 59.978C36.9177 60.105 36.9891 60.2772 36.9891 60.4567C36.9873 61.302 36.6507 62.1121 36.053 62.7098C35.4554 63.3075 34.6452 63.644 33.8 63.6458ZM29.4938 61.1338C29.6302 61.475 29.8656 61.7676 30.1696 61.9739C30.4737 62.1802 30.8325 62.2909 31.2 62.2916H33.8C34.1675 62.2909 34.5263 62.1802 34.8304 61.9739C35.1344 61.7676 35.3698 61.475 35.5062 61.1338H29.4938Z" fill="black"/>
<path d="M37.876 58.2292H27.124C26.9444 58.2292 26.7722 58.1578 26.6452 58.0309C26.5182 57.9039 26.4469 57.7317 26.4469 57.5521C26.4469 57.3725 26.5182 57.2003 26.6452 57.0733C26.7722 56.9463 26.9444 56.875 27.124 56.875H37.876C38.0556 56.875 38.2278 56.9463 38.3548 57.0733C38.4818 57.2003 38.5531 57.3725 38.5531 57.5521C38.5531 57.7317 38.4818 57.9039 38.3548 58.0309C38.2278 58.1578 38.0556 58.2292 37.876 58.2292Z" fill="black"/>
<path d="M32.5 8.71402C32.3204 8.71402 32.1482 8.64269 32.0212 8.51571C31.8942 8.38873 31.8229 8.21651 31.8229 8.03694V2.03121C31.8229 1.85164 31.8942 1.67942 32.0212 1.55244C32.1482 1.42546 32.3204 1.35413 32.5 1.35413C32.6796 1.35413 32.8518 1.42546 32.9788 1.55244C33.1057 1.67942 33.1771 1.85164 33.1771 2.03121V8.03694C33.1771 8.21651 33.1057 8.38873 32.9788 8.51571C32.8518 8.64269 32.6796 8.71402 32.5 8.71402Z" fill="black"/>
<path d="M17.963 14.7333C17.8739 14.7338 17.7856 14.7168 17.7031 14.6831C17.6206 14.6494 17.5456 14.5997 17.4823 14.537L13.237 10.2916C13.1735 10.2287 13.1231 10.1538 13.0888 10.0713C13.0544 9.9888 13.0367 9.9003 13.0367 9.81092C13.0367 9.72154 13.0544 9.63304 13.0888 9.55053C13.1231 9.46802 13.1735 9.39314 13.237 9.33019C13.3638 9.20408 13.5354 9.1333 13.7143 9.1333C13.8932 9.1333 14.0648 9.20408 14.1917 9.33019L18.4437 13.5823C18.5699 13.7091 18.6406 13.8807 18.6406 14.0596C18.6406 14.2385 18.5699 14.4101 18.4437 14.537C18.3805 14.5997 18.3054 14.6494 18.223 14.6831C18.1405 14.7168 18.0521 14.7338 17.963 14.7333Z" fill="black"/>
<path d="M11.9437 29.2703H5.93802C5.75845 29.2703 5.58623 29.199 5.45925 29.072C5.33227 28.945 5.26094 28.7728 5.26094 28.5932C5.26094 28.4136 5.33227 28.2414 5.45925 28.1145C5.58623 27.9875 5.75845 27.9161 5.93802 27.9161H11.9437C12.1233 27.9161 12.2955 27.9875 12.4225 28.1145C12.5495 28.2414 12.6208 28.4136 12.6208 28.5932C12.6208 28.7728 12.5495 28.945 12.4225 29.072C12.2955 29.199 12.1233 29.2703 11.9437 29.2703Z" fill="black"/>
<path d="M13.7177 48.0729C13.6286 48.0734 13.5403 48.0563 13.4578 48.0226C13.3753 47.9889 13.3002 47.9393 13.237 47.8765C13.1109 47.7497 13.0401 47.5781 13.0401 47.3992C13.0401 47.2203 13.1109 47.0487 13.237 46.9218L17.4823 42.6562C17.5452 42.5928 17.6201 42.5424 17.7026 42.508C17.7851 42.4736 17.8736 42.4559 17.963 42.4559C18.0524 42.4559 18.1409 42.4736 18.2234 42.508C18.3059 42.5424 18.3808 42.5928 18.4438 42.6562C18.5699 42.7831 18.6406 42.9547 18.6406 43.1336C18.6406 43.3124 18.5699 43.484 18.4438 43.6109L14.2188 47.8562C14.1548 47.9251 14.0773 47.98 13.991 48.0173C13.9048 48.0546 13.8117 48.0735 13.7177 48.0729Z" fill="black"/>
<path d="M47.037 14.7333C46.9479 14.7338 46.8595 14.7168 46.777 14.6831C46.6945 14.6494 46.6195 14.5997 46.5563 14.537C46.4301 14.4101 46.3594 14.2385 46.3594 14.0596C46.3594 13.8807 46.4301 13.7091 46.5563 13.5823L50.7812 9.33019C50.9081 9.20408 51.0797 9.1333 51.2586 9.1333C51.4375 9.1333 51.6091 9.20408 51.7359 9.33019C51.7994 9.39314 51.8498 9.46802 51.8841 9.55053C51.9185 9.63304 51.9362 9.72154 51.9362 9.81092C51.9362 9.9003 51.9185 9.9888 51.8841 10.0713C51.8498 10.1538 51.7994 10.2287 51.7359 10.2916L47.4906 14.537C47.3696 14.6572 47.2075 14.7274 47.037 14.7333Z" fill="black"/>
<path d="M59.062 29.2703H53.0562C52.8767 29.2703 52.7045 29.199 52.5775 29.072C52.4505 28.945 52.3792 28.7728 52.3792 28.5932C52.3792 28.4136 52.4505 28.2414 52.5775 28.1145C52.7045 27.9875 52.8767 27.9161 53.0562 27.9161H59.062C59.2416 27.9161 59.4138 27.9875 59.5407 28.1145C59.6677 28.2414 59.7391 28.4136 59.7391 28.5932C59.7391 28.7728 59.6677 28.945 59.5407 29.072C59.4138 29.199 59.2416 29.2703 59.062 29.2703Z" fill="black"/>
<path d="M51.2823 48.073C51.1047 48.0722 50.9344 48.0017 50.8083 47.8766L46.5563 43.6313C46.4301 43.5044 46.3594 43.3328 46.3594 43.1539C46.3594 42.9751 46.4301 42.8035 46.5563 42.6766C46.6192 42.6131 46.6941 42.5628 46.7766 42.5284C46.8591 42.494 46.9476 42.4763 47.037 42.4763C47.1264 42.4763 47.2149 42.494 47.2974 42.5284C47.3799 42.5628 47.4548 42.6131 47.5177 42.6766L51.763 46.9219C51.8891 47.0488 51.9599 47.2204 51.9599 47.3993C51.9599 47.5781 51.8891 47.7497 51.763 47.8766C51.6998 47.9394 51.6247 47.989 51.5422 48.0227C51.4597 48.0564 51.3714 48.0735 51.2823 48.073Z" fill="black"/>
</svg>
