<svg width="15" height="15" viewBox="0 0 15 15" fill="none" xmlns="http://www.w3.org/2000/svg">
<mask id="mask0_40_2070" style="mask-type:alpha" maskUnits="userSpaceOnUse" x="0" y="0" width="15" height="15">
<rect width="15" height="15" fill="#D9D9D9"/>
</mask>
<g mask="url(#mask0_40_2070)">
<path d="M7.5 14.4242C6.39583 14.4242 5.49479 14.2368 4.79688 13.8621C4.09896 13.4873 3.75 13.0035 3.75 12.4106C3.75 12.1421 3.82552 11.8932 3.97656 11.6639C4.1276 11.4345 4.33854 11.236 4.60938 11.0682L5.59375 12.0582C5.5 12.103 5.39844 12.1533 5.28906 12.2092C5.17969 12.2652 5.09375 12.3323 5.03125 12.4106C5.16667 12.5896 5.47917 12.7462 5.96875 12.8804C6.45833 13.0147 6.96875 13.0818 7.5 13.0818C8.03125 13.0818 8.54427 13.0147 9.03906 12.8804C9.53385 12.7462 9.84896 12.5896 9.98438 12.4106C9.91146 12.3211 9.81771 12.2484 9.70313 12.1924C9.58854 12.1365 9.47917 12.0862 9.375 12.0414L10.3438 11.0346C10.6354 11.2136 10.8594 11.4178 11.0156 11.6471C11.1719 11.8764 11.25 12.1309 11.25 12.4106C11.25 13.0035 10.901 13.4873 10.2031 13.8621C9.50521 14.2368 8.60417 14.4242 7.5 14.4242ZM7.51562 10.7326C8.54688 9.91592 9.32292 9.09649 9.84375 8.27425C10.3646 7.45202 10.625 6.62699 10.625 5.79916C10.625 4.6581 10.2865 3.79671 9.60938 3.215C8.93229 2.63328 8.22917 2.34242 7.5 2.34242C6.77083 2.34242 6.06771 2.63328 5.39062 3.215C4.71354 3.79671 4.375 4.6581 4.375 5.79916C4.375 6.54868 4.63021 7.32896 5.14062 8.14001C5.65104 8.95106 6.44271 9.81524 7.51562 10.7326ZM7.5 12.4106C6.03125 11.2472 4.9349 10.1173 4.21094 9.02097C3.48698 7.92466 3.125 6.85072 3.125 5.79916C3.125 5.00489 3.25781 4.30851 3.52344 3.71002C3.78906 3.11152 4.13021 2.61091 4.54688 2.20818C4.96354 1.80545 5.43229 1.50341 5.95312 1.30205C6.47396 1.10068 6.98958 1 7.5 1C8.01042 1 8.52604 1.10068 9.04688 1.30205C9.56771 1.50341 10.0365 1.80545 10.4531 2.20818C10.8698 2.61091 11.2109 3.11152 11.4766 3.71002C11.7422 4.30851 11.875 5.00489 11.875 5.79916C11.875 6.85072 11.513 7.92466 10.7891 9.02097C10.0651 10.1173 8.96875 11.2472 7.5 12.4106ZM7.5 7.0409C7.84375 7.0409 8.13802 6.90946 8.38281 6.64656C8.6276 6.38367 8.75 6.06764 8.75 5.69848C8.75 5.32931 8.6276 5.01328 8.38281 4.75039C8.13802 4.4875 7.84375 4.35606 7.5 4.35606C7.15625 4.35606 6.86198 4.4875 6.61719 4.75039C6.3724 5.01328 6.25 5.32931 6.25 5.69848C6.25 6.06764 6.3724 6.38367 6.61719 6.64656C6.86198 6.90946 7.15625 7.0409 7.5 7.0409Z" fill="#1C1B1F"/>
</g>
</svg>
