<svg width="58" height="62" viewBox="0 0 58 62" fill="none" xmlns="http://www.w3.org/2000/svg">
<path d="M38.0076 18.2567C37.9363 18.0425 37.7997 17.856 37.617 17.7233C37.4343 17.5907 37.2147 17.5184 36.9889 17.5168H31.6594L30.0187 12.4554C29.9482 12.2409 29.8117 12.0541 29.6288 11.9216C29.4459 11.7892 29.2258 11.7179 29 11.7179C28.7742 11.7179 28.5541 11.7892 28.3712 11.9216C28.1882 12.0541 28.0518 12.2409 27.9813 12.4554L26.3406 17.5168H21.0111C20.7853 17.5184 20.5657 17.5907 20.383 17.7233C20.2003 17.856 20.0637 18.0425 19.9924 18.2567C19.9211 18.473 19.9212 18.7065 19.9926 18.9227C20.064 19.1389 20.203 19.3265 20.3891 19.4578L24.6892 22.589L23.0485 27.6504C22.9777 27.8657 22.9769 28.0979 23.0462 28.3137C23.1156 28.5295 23.2515 28.7177 23.4346 28.8514C23.6196 28.9823 23.8406 29.0525 24.0672 29.0525C24.2939 29.0525 24.5149 28.9823 24.6999 28.8514L29 25.7202L33.3001 28.8514C33.4867 28.9794 33.7065 29.0502 33.9327 29.0552C34.1595 29.0534 34.3803 28.9823 34.5654 28.8514C34.7484 28.7177 34.8844 28.5295 34.9537 28.3137C35.0231 28.0979 35.0223 27.8657 34.9515 27.6504L33.3108 22.589L37.6109 19.4578C37.797 19.3265 37.936 19.1389 38.0074 18.9227C38.0788 18.7065 38.0789 18.473 38.0076 18.2567ZM31.4235 21.3129C31.2393 21.4458 31.1018 21.6335 31.0306 21.8492C30.9594 22.0648 30.958 22.2974 31.0267 22.5139L31.8953 25.1733L29.6327 23.5219C29.4483 23.3894 29.227 23.3182 29 23.3182C28.773 23.3182 28.5517 23.3894 28.3673 23.5219L26.1047 25.1733L26.9733 22.5139C27.042 22.2974 27.0406 22.0648 26.9694 21.8492C26.8981 21.6335 26.7607 21.4458 26.5765 21.3129L24.3139 19.6615H27.1127C27.3392 19.6628 27.5602 19.5918 27.7434 19.4587C27.9267 19.3256 28.0626 19.1374 28.1314 18.9216L29 16.2622L29.8686 18.9216C29.9374 19.1374 30.0733 19.3256 30.2566 19.4587C30.4398 19.5918 30.6608 19.6628 30.8873 19.6615H33.6861L31.4235 21.3129Z" fill="black"/>
<path d="M29 7.20093C25.3391 7.19991 21.8193 8.61314 19.1756 11.1455C16.5319 13.6779 14.9687 17.1336 14.8123 20.7912C14.6559 24.4487 15.9185 28.0253 18.3364 30.7741C20.7543 33.5229 24.1406 35.2313 27.7882 35.5428C28.1957 35.575 28.5925 35.5964 29 35.5964C29.3646 35.5964 29.7399 35.575 30.1045 35.5428H30.2117V35.5321C33.8579 35.2207 37.2429 33.5128 39.6599 30.765C42.0768 28.0172 43.3389 24.442 43.1825 20.7858C43.0261 17.1297 41.4634 13.6752 38.8207 11.1439C36.1779 8.61249 32.6595 7.19986 29 7.20093ZM39.5196 27.2751C39.5168 27.2751 39.514 27.2762 39.512 27.2782C39.51 27.2802 39.5089 27.283 39.5089 27.2858C38.5497 29.0049 37.1823 30.4616 35.5273 31.5275C33.8723 32.5934 31.9805 33.2358 30.0187 33.3981L30.008 33.4089H29.9972C29.3267 33.4749 28.6511 33.4713 27.9812 33.3981C25.3891 33.1772 22.9381 32.1233 20.9946 30.3939C19.0511 28.6645 17.7196 26.3525 17.1991 23.8035C16.6786 21.2546 16.9971 18.6057 18.1069 16.2527C19.2167 13.8998 21.0583 11.9693 23.3563 10.7498C25.6543 9.53034 28.2853 9.0874 30.856 9.48721C33.4266 9.88702 35.7988 11.1081 37.6178 12.9679C39.4369 14.8278 40.6052 17.2264 40.948 19.8053C41.2908 22.3841 40.7897 25.0046 39.5196 27.2751Z" fill="black"/>
<path d="M57.8244 52.7431L53.7924 46.4914C50.9079 42.0412 48.0268 37.5838 45.1494 33.1193C45.3746 33.0336 45.632 32.937 45.8893 32.8513C46.4705 32.7349 47.0228 32.5043 47.5143 32.173C48.0057 31.8417 48.4266 31.4161 48.7525 30.921C48.9347 30.3612 49.0048 29.7709 48.9588 29.184C48.9128 28.597 48.7516 28.0249 48.4844 27.5003C48.2323 26.9515 48.0972 26.3562 48.0876 25.7524C48.3532 25.2362 48.7218 24.78 49.1707 24.412C49.648 24.0505 50.0492 23.5981 50.351 23.081C50.6528 22.5638 50.8493 21.9921 50.9293 21.3987C50.8505 20.8064 50.6544 20.2358 50.3524 19.7203C50.0505 19.2047 49.6487 18.7546 49.1707 18.3961C48.7235 18.0222 48.3553 17.5629 48.0876 17.045C48.0972 16.4412 48.2323 15.8459 48.4844 15.2971C48.7514 14.7743 48.9125 14.204 48.9585 13.6188C49.0045 13.0336 48.9345 12.4451 48.7525 11.8871C48.4256 11.3928 48.0045 10.9679 47.5132 10.6367C47.0219 10.3054 46.4701 10.0744 45.8893 9.95685C45.3118 9.81076 44.7688 9.55202 44.2915 9.19549C44.0542 8.6498 43.9232 8.06383 43.9055 7.46903C43.9216 6.87805 43.821 6.28969 43.6094 5.73766C43.3978 5.18563 43.0793 4.68077 42.6723 4.25202C41.6474 3.64864 40.4254 3.47517 39.273 3.76946C38.6894 3.88994 38.0873 3.88994 37.5036 3.76946C37.0545 3.3932 36.6861 2.92995 36.4206 2.4076C36.1767 1.86037 35.8264 1.36713 35.3901 0.95659C34.9538 0.546047 34.4402 0.226408 33.8791 0.0162845C33.2982 -0.0336633 32.713 0.03156 32.1573 0.208214C31.6016 0.384869 31.0862 0.66948 30.6407 1.04573C30.1536 1.41696 29.595 1.68347 29 1.82853C28.405 1.68347 27.8464 1.41696 27.3593 1.04573C26.9154 0.670307 26.4019 0.386136 25.848 0.209488C25.2941 0.0328401 24.7109 -0.0328144 24.1316 0.0162845C23.5682 0.22456 23.0522 0.543418 22.6139 0.954092C22.1756 1.36477 21.8239 1.85896 21.5794 2.4076C21.3135 2.9267 20.9493 3.38922 20.5071 3.76946C19.9198 3.88976 19.3143 3.88976 18.727 3.76946C17.5782 3.47503 16.3594 3.64858 15.3384 4.25202C14.9268 4.68025 14.6048 5.1863 14.3912 5.74054C14.1776 6.29477 14.0768 6.88605 14.0945 7.47975C14.0836 8.0731 13.9484 8.65758 13.6977 9.19549C13.2302 9.55262 12.6933 9.80828 12.1214 9.94613C10.9458 10.1839 9.91231 10.878 9.24755 11.8763C9.06533 12.4362 8.99522 13.0264 9.04122 13.6134C9.08722 14.2003 9.24843 14.7725 9.51563 15.2971C9.76769 15.8459 9.9028 16.4412 9.9124 17.045C9.64473 17.5629 9.27654 18.0222 8.82934 18.3961C8.35129 18.7546 7.94953 19.2047 7.64756 19.7203C7.34559 20.2358 7.14948 20.8064 7.0707 21.3987C7.15066 21.9921 7.34721 22.5638 7.64903 23.081C7.95085 23.5981 8.35198 24.0505 8.82934 24.412C9.27818 24.78 9.64679 25.2362 9.9124 25.7524C9.9028 26.3562 9.76769 26.9515 9.51563 27.5003C9.24863 28.023 9.0875 28.5934 9.0415 29.1786C8.99549 29.7638 9.06551 30.3523 9.24755 30.9103C9.57176 31.4069 9.99213 31.8335 10.4839 32.165C10.9756 32.4966 11.5288 32.7262 12.1107 32.8405C12.3573 32.937 12.6147 33.0228 12.8506 33.1193C9.96601 37.5803 7.085 42.0376 4.20756 46.4914L0.175574 52.7431C0.0592721 52.9183 -0.00186793 53.1243 4.3486e-05 53.3345C0.0019549 53.5448 0.0668303 53.7497 0.186298 53.9227C0.302802 54.0957 0.467579 54.2306 0.660142 54.3106C0.852705 54.3907 1.06456 54.4124 1.26936 54.3731L8.59342 53.0112L10.3735 60.2602C10.4252 60.4627 10.5349 60.6457 10.6893 60.7867C10.8436 60.9277 11.0357 61.0205 11.2421 61.0537C11.2985 61.0661 11.3559 61.0733 11.4137 61.0752C11.5934 61.0764 11.7704 61.0317 11.928 60.9454C12.0857 60.8591 12.2187 60.734 12.3144 60.5819L23.8742 42.6846C23.96 42.706 24.0351 42.7596 24.1209 42.7811C24.2965 42.823 24.4764 42.8446 24.657 42.8454C25.6414 42.7369 26.5766 42.3584 27.3593 41.7516C27.8464 41.3804 28.405 41.1139 29 40.9688C29.595 41.1139 30.1536 41.3804 30.6407 41.7516C31.0865 42.1309 31.6035 42.4173 32.1615 42.594C32.7194 42.7708 33.307 42.8344 33.8899 42.7811C33.9756 42.7596 34.0507 42.706 34.1258 42.6846L45.6856 60.5819C45.7813 60.734 45.9143 60.8591 46.072 60.9454C46.2296 61.0317 46.4066 61.0764 46.5863 61.0752C46.6441 61.0733 46.7015 61.0661 46.7579 61.0537C46.9643 61.0205 47.1564 60.9277 47.3107 60.7867C47.4651 60.6457 47.5748 60.4627 47.6265 60.2602L49.4066 53.0112L56.7306 54.3731C56.9354 54.4113 57.1469 54.3891 57.3392 54.3091C57.5315 54.2291 57.6964 54.0948 57.8137 53.9227C57.9332 53.7497 57.998 53.5448 58 53.3345C58.0019 53.1243 57.9407 52.9183 57.8244 52.7431ZM11.8641 57.322L10.4378 51.5206C10.3738 51.2545 10.2104 51.023 9.98108 50.8734C9.7518 50.7239 9.47402 50.6677 9.20465 50.7164L3.32825 51.8102L6.00909 47.6602C8.68993 43.4996 11.3779 39.3389 14.0731 35.1782C14.0847 35.2275 14.0919 35.2778 14.0945 35.3284C14.0784 35.9193 14.179 36.5077 14.3906 37.0597C14.6022 37.6118 14.9207 38.1166 15.3277 38.5454C16.3528 39.1482 17.5746 39.3216 18.727 39.0279C19.3106 38.9074 19.9127 38.9074 20.4964 39.0279C20.9481 39.4017 21.3169 39.8655 21.5794 40.3898C21.7832 40.7008 21.9869 41.0117 22.2014 41.312L11.8641 57.322ZM33.7183 40.4756C33.6316 40.5739 33.5207 40.6479 33.3966 40.69C33.0963 40.7544 32.3028 40.2718 31.7881 39.9394C30.9818 39.3133 30.0156 38.9269 29 38.8242C27.9844 38.9269 27.0182 39.3133 26.2119 39.9394C25.6972 40.2718 24.9037 40.7651 24.6141 40.7008C24.4827 40.6504 24.3651 40.5696 24.271 40.4648C23.9389 40.0932 23.6477 39.687 23.4024 39.2531C22.9587 38.368 22.2797 37.6223 21.44 37.0977C20.9526 36.8758 20.4205 36.7694 19.8851 36.7867C19.4188 36.7958 18.9533 36.8316 18.4911 36.894C17.8262 36.969 16.9255 37.0763 16.6681 36.8725C16.4108 36.6688 16.3035 35.7573 16.2285 35.0924C16.2154 34.0883 15.922 33.1077 15.3813 32.2615C15.296 32.1544 15.1989 32.0573 15.0918 31.9719C15.0509 31.9372 15.0079 31.905 14.9631 31.8754L14.9524 31.8647H14.9417C14.3006 31.3959 13.5818 31.0438 12.8184 30.8245C12.1858 30.5993 11.3279 30.2991 11.1778 29.9774C11.0276 29.6771 11.3279 28.83 11.5423 28.208C11.9719 27.2961 12.1319 26.2804 12.0035 25.2806C11.6885 24.3414 11.1119 23.5117 10.3413 22.8892C9.8695 22.4174 9.21538 21.7633 9.21538 21.3987C9.21538 21.0341 9.8695 20.38 10.3413 19.9081C11.1119 19.2857 11.6885 18.456 12.0035 17.5168C12.1319 16.517 11.9719 15.5013 11.5423 14.5893C11.3279 13.9674 11.0276 13.1202 11.1778 12.8093C11.3279 12.4983 12.1965 12.198 12.8292 11.9728C13.7958 11.7456 14.6775 11.2471 15.3706 10.5359C15.9193 9.69669 16.2169 8.71825 16.2285 7.71567C16.3035 7.05082 16.4 6.15005 16.6681 5.93559C16.9362 5.72112 17.8262 5.82835 18.4911 5.90342C19.4738 6.11275 20.4955 6.04216 21.44 5.69967C22.2822 5.17814 22.9619 4.43159 23.4024 3.54427C23.7563 2.96521 24.2495 2.18241 24.6034 2.10734C24.9037 2.03228 25.6972 2.53628 26.2119 2.85798C27.0182 3.48404 27.9844 3.87052 29 3.97321C30.0156 3.87052 30.9818 3.48404 31.7881 2.85798C32.3028 2.53628 33.0856 2.043 33.3966 2.10734C33.7505 2.18241 34.2437 2.96521 34.5976 3.54427C35.0381 4.43159 35.7178 5.17814 36.56 5.69967C37.5045 6.04216 38.5262 6.11275 39.5089 5.90342C40.1738 5.82835 41.0745 5.72112 41.3319 5.92486C41.5892 6.12861 41.6965 7.04009 41.7715 7.70494C41.7846 8.7091 42.078 9.68963 42.6187 10.5359C43.322 11.247 44.2095 11.7483 45.1816 11.9836C45.8143 12.198 46.6721 12.4983 46.8222 12.82C46.9724 13.1202 46.6721 13.9674 46.4576 14.5893C46.0281 15.5013 45.8681 16.517 45.9965 17.5168C46.3115 18.456 46.8881 19.2857 47.6587 19.9081C48.1305 20.38 48.7846 21.0341 48.7846 21.3987C48.7846 21.7633 48.1305 22.4174 47.6587 22.8892C46.8881 23.5117 46.3115 24.3414 45.9965 25.2806C45.8681 26.2804 46.0281 27.2961 46.4576 28.208C46.6721 28.83 46.9724 29.6771 46.8222 29.9881C46.6721 30.2991 45.8035 30.6101 45.1816 30.8245C44.3786 31.0439 43.6251 31.4152 42.9618 31.9183C42.843 32.0246 42.7319 32.1393 42.6294 32.2615C42.0808 33.1007 41.7831 34.0791 41.7715 35.0817C41.6965 35.7466 41.6 36.6473 41.3319 36.8618C41.0638 37.0763 40.1738 36.969 39.5089 36.894C38.5266 36.6793 37.5034 36.7499 36.56 37.0977C35.7203 37.6223 35.0413 38.368 34.5976 39.2531C34.3498 39.6913 34.0549 40.1012 33.7183 40.4756ZM48.7953 50.7164C48.526 50.6677 48.2482 50.7239 48.0189 50.8734C47.7896 51.023 47.6262 51.2545 47.5622 51.5206L46.136 57.322L35.7986 41.312C36.0131 41.0117 36.2168 40.7008 36.4206 40.3898C36.6834 39.8687 37.048 39.4056 37.4929 39.0279C38.0802 38.9076 38.6857 38.9076 39.273 39.0279C40.4218 39.3223 41.6406 39.1488 42.6616 38.5454C43.0722 38.1186 43.3937 37.6144 43.6073 37.062C43.8209 36.5097 43.9222 35.9203 43.9055 35.3284C43.9074 35.2777 43.9145 35.2274 43.9269 35.1782C46.6185 39.3389 49.3065 43.4996 51.9909 47.6602L54.6718 51.8102L48.7953 50.7164Z" fill="black"/>
</svg>
