<svg width="16" height="16" viewBox="0 0 16 16" fill="none" xmlns="http://www.w3.org/2000/svg">
<mask id="mask0_49_2389" style="mask-type:alpha" maskUnits="userSpaceOnUse" x="0" y="0" width="16" height="16">
<rect width="16" height="16" fill="white"/>
</mask>
<g mask="url(#mask0_49_2389)">
<path d="M13.0667 15L8.86667 10.8C8.53333 11.0667 8.15 11.2778 7.71667 11.4333C7.28333 11.5889 6.82222 11.6667 6.33333 11.6667C5.12222 11.6667 4.09722 11.2472 3.25833 10.4083C2.41944 9.56944 2 8.54444 2 7.33333C2 6.12222 2.41944 5.09722 3.25833 4.25833C4.09722 3.41944 5.12222 3 6.33333 3C7.54444 3 8.56944 3.41944 9.40833 4.25833C10.2472 5.09722 10.6667 6.12222 10.6667 7.33333C10.6667 7.82222 10.5889 8.28333 10.4333 8.71667C10.2778 9.15 10.0667 9.53333 9.8 9.86667L14 14.0667L13.0667 15ZM6.33333 10.3333C7.16667 10.3333 7.875 10.0417 8.45833 9.45833C9.04167 8.875 9.33333 8.16667 9.33333 7.33333C9.33333 6.5 9.04167 5.79167 8.45833 5.20833C7.875 4.625 7.16667 4.33333 6.33333 4.33333C5.5 4.33333 4.79167 4.625 4.20833 5.20833C3.625 5.79167 3.33333 6.5 3.33333 7.33333C3.33333 8.16667 3.625 8.875 4.20833 9.45833C4.79167 10.0417 5.5 10.3333 6.33333 10.3333Z" fill="white"/>
</g>
</svg>
