<svg width="62" height="63" viewBox="0 0 62 63" fill="none" xmlns="http://www.w3.org/2000/svg">
<g clip-path="url(#clip0_20_366)">
<path d="M31 21.8077C30.0567 21.8077 29.1347 21.5234 28.3504 20.9909C27.5661 20.4584 26.9548 19.7016 26.5938 18.8161C26.2328 17.9305 26.1384 16.9561 26.3224 16.0161C26.5064 15.076 26.9607 14.2125 27.6277 13.5348C28.2946 12.857 29.1444 12.3955 30.0696 12.2085C30.9947 12.0215 31.9536 12.1175 32.8251 12.4843C33.6966 12.851 34.4414 13.4722 34.9655 14.2691C35.4895 15.0661 35.7692 16.003 35.7692 16.9615C35.7692 18.2468 35.2668 19.4794 34.3724 20.3883C33.478 21.2971 32.2649 21.8077 31 21.8077Z" fill="black"/>
<path d="M31 63C24.8688 63 18.8753 61.1526 13.7773 57.6913C8.67941 54.23 4.70606 49.3104 2.35975 43.5545C0.0134318 37.7987 -0.600471 31.4651 0.59567 25.3547C1.79181 19.2443 4.74427 13.6315 9.0797 9.22615C13.4151 4.8208 18.9388 1.82071 24.9522 0.605278C30.9656 -0.610156 37.1987 0.0136485 42.8632 2.39781C48.5277 4.78197 53.3692 8.8194 56.7756 13.9995C60.1819 19.1797 62 25.2699 62 31.5C62 39.8543 58.7339 47.8665 52.9203 53.7739C47.1067 59.6813 39.2217 63 31 63ZM31 4.84617C25.8121 4.84617 20.7406 6.40939 16.427 9.33815C12.1133 12.2669 8.75129 16.4297 6.76594 21.3C4.7806 26.1704 4.26114 31.5296 5.27326 36.6999C6.28538 41.8703 8.78362 46.6195 12.4521 50.3471C16.1205 54.0747 20.7944 56.6133 25.8826 57.6417C30.9709 58.6701 36.245 58.1423 41.0381 56.1249C45.8311 54.1076 49.9278 50.6913 52.8101 46.3081C55.6924 41.9249 57.2308 36.7716 57.2308 31.5C57.2308 24.431 54.4672 17.6515 49.548 12.6529C44.6287 7.65433 37.9568 4.84617 31 4.84617Z" fill="black"/>
<path d="M31 50.8846C29.7351 50.8846 28.5221 50.374 27.6276 49.4652C26.7332 48.5563 26.2308 47.3237 26.2308 46.0384V31.5C26.2308 30.2147 26.7332 28.982 27.6276 28.0732C28.5221 27.1644 29.7351 26.6538 31 26.6538C32.2649 26.6538 33.478 27.1644 34.3724 28.0732C35.2668 28.982 35.7692 30.2147 35.7692 31.5V46.0384C35.7692 47.3237 35.2668 48.5563 34.3724 49.4652C33.478 50.374 32.2649 50.8846 31 50.8846Z" fill="black"/>
</g>
<defs>
<clipPath id="clip0_20_366">
<rect width="62" height="63" fill="white"/>
</clipPath>
</defs>
</svg>
